<svg id="Layer_1" data-name="Layer 1" xmlns="http://www.w3.org/2000/svg" viewBox="0 0 76.93 76.93"><defs><style>.cls-1{fill:#0d4060;}</style></defs><path class="cls-1" d="M38.32,75.66v-5a32.16,32.16,0,1,0,0-64.32v-5a37.16,37.16,0,1,1,0,74.32Z"/><path class="cls-1" d="M38.44,75.67a38.15,38.15,0,0,1-4.29-.25l.57-5a32.87,32.87,0,0,0,3.72.22Z"/><path class="cls-1" d="M26.06,73.55a37.06,37.06,0,0,1-7.47-3.62l2.67-4.23a31.87,31.87,0,0,0,6.46,3.14ZM12.11,64.74A37.93,37.93,0,0,1,7,58.25l4.23-2.66a32.34,32.34,0,0,0,4.48,5.62Zm-8.77-14A37.22,37.22,0,0,1,1.5,42.67l5-.56a32.26,32.26,0,0,0,1.6,7ZM6.47,34.93l-5-.55a36.59,36.59,0,0,1,1.83-8.1l4.72,1.64A32.22,32.22,0,0,0,6.47,34.93Zm4.69-13.48L6.93,18.79a37.07,37.07,0,0,1,5.16-6.49l3.54,3.52A32.73,32.73,0,0,0,11.16,21.45ZM21.24,11.32,18.56,7.1A36.5,36.5,0,0,1,26,3.47l1.67,4.71A32.07,32.07,0,0,0,21.24,11.32Z"/><path class="cls-1" d="M34.72,6.55l-.57-5a35.93,35.93,0,0,1,4.29-.25v5A32.87,32.87,0,0,0,34.72,6.55Z"/><path class="cls-1" d="M32.07,55.46l-13.88-13a2.5,2.5,0,0,1,3.42-3.66l10.22,9.55L55.2,23.31a2.5,2.5,0,0,1,3.66,3.4Z"/></svg>