<?xml version="1.0" standalone="no"?>
<!DOCTYPE svg PUBLIC "-//W3C//DTD SVG 20010904//EN"
 "http://www.w3.org/TR/2001/REC-SVG-20010904/DTD/svg10.dtd">
<svg version="1.0" xmlns="http://www.w3.org/2000/svg"
 width="485.000000pt" height="300.000000pt" viewBox="0 0 485.000000 300.000000"
 preserveAspectRatio="xMidYMid meet">

<g transform="translate(0.000000,300.000000) scale(0.100000,-0.100000)"
fill="#000000" stroke="none">
<path d="M796 2965 c-15 -19 -41 -65 -59 -103 l-32 -67 0 -713 0 -713 -65 2
-65 3 -6 -130 c-8 -147 -7 -146 -19 -119 -5 11 -9 113 -9 227 -1 126 -5 209
-11 213 -6 4 -10 -19 -11 -62 -4 -278 -11 -369 -28 -359 -10 7 -21 -42 -21
-95 0 -36 2 -39 28 -40 20 -1 22 -2 7 -6 -11 -3 -26 -10 -32 -15 -7 -6 -19 -8
-28 -5 -8 4 -17 2 -20 -3 -3 -5 -28 -6 -55 -3 -40 5 -51 3 -56 -11 -3 -9 -12
-16 -19 -16 -21 0 -45 -35 -45 -68 0 -18 -10 -42 -24 -59 -23 -27 -26 -27
-125 -25 l-101 2 0 -371 c0 -326 2 -370 15 -365 8 3 15 1 15 -4 0 -6 -7 -10
-15 -10 -9 0 -15 -9 -15 -25 0 -23 3 -25 49 -25 53 0 74 16 48 35 -22 16 -22
39 -1 31 9 -3 20 -6 25 -6 6 0 15 -13 20 -30 11 -31 39 -42 39 -14 0 8 5 12
10 9 22 -13 8 25 -15 43 -24 19 -24 20 -5 25 11 3 20 11 20 19 0 10 -3 9 -10
-2 -6 -10 -10 -11 -10 -2 0 6 -9 12 -20 12 -14 0 -19 -6 -17 -21 1 -12 -4 -24
-10 -26 -8 -3 -13 5 -13 21 0 14 4 26 8 26 4 0 14 16 21 35 7 19 17 35 22 35
5 0 9 4 9 9 0 5 -9 7 -20 4 -18 -5 -20 0 -21 38 -1 24 0 51 1 58 1 12 -1 13
-14 2 -13 -11 -14 -5 -9 61 3 40 10 76 15 79 4 3 4 30 -1 60 -12 68 -20 219
-12 219 8 0 26 -39 57 -118 34 -89 78 -173 141 -273 l54 -86 -17 -36 -17 -36
-20 40 c-11 23 -28 41 -42 45 -15 4 -25 15 -29 35 -3 17 -10 28 -16 24 -6 -4
-4 -17 6 -36 14 -29 14 -32 -3 -44 -16 -12 -18 -29 -18 -124 l0 -111 149 0
c131 0 147 2 136 15 -7 8 -9 15 -6 15 4 0 2 9 -4 20 -12 23 -48 27 -56 7 -9
-24 -33 -14 -40 16 -8 40 22 81 64 85 26 3 33 -2 47 -27 9 -18 13 -41 9 -55
-3 -13 -1 -27 6 -31 6 -4 8 -15 5 -26 -6 -19 5 -19 487 -18 271 1 483 4 471 6
-30 6 -29 23 1 23 43 0 53 83 12 101 -29 13 -95 4 -97 -14 -2 -19 -2 -20 6
-46 7 -23 7 -23 -16 -7 -13 9 -33 16 -45 16 -15 0 -25 9 -32 29 -8 23 -19 31
-46 36 -19 4 -37 13 -40 21 -8 21 -33 17 -39 -6 -3 -11 -10 -20 -16 -20 -6 0
-11 9 -11 20 0 11 -7 20 -15 20 -9 0 -22 15 -30 33 -11 27 -11 33 0 40 21 11
0 53 -52 106 -24 24 -47 56 -50 72 -5 25 -10 29 -39 29 -29 0 -34 -4 -34 -22
0 -13 11 -36 25 -52 32 -37 31 -39 -5 -31 -22 5 -30 3 -30 -7 0 -9 -2 -10 -8
-1 -4 6 -21 15 -37 19 -17 4 -35 11 -41 16 -8 5 -13 -2 -18 -23 -7 -38 10 -56
78 -84 38 -16 43 -21 35 -37 -15 -27 -71 -24 -107 7 -16 13 -32 22 -36 18 -9
-10 -7 18 9 130 8 56 22 156 31 222 14 106 24 154 24 116 0 -7 33 -52 73 -99
41 -48 81 -101 90 -117 8 -17 33 -53 56 -80 24 -29 47 -72 57 -107 10 -32 21
-58 26 -58 4 0 9 48 9 108 1 59 4 136 8 172 l6 65 45 -75 c25 -41 54 -97 66
-125 12 -27 33 -74 48 -104 14 -30 26 -62 26 -70 0 -9 12 -29 26 -45 23 -26
26 -27 43 -12 22 20 55 21 71 1 22 -26 30 -16 30 38 1 28 7 66 15 82 l13 30 1
-27 c1 -15 6 -38 12 -52 10 -21 8 -39 -10 -98 -13 -40 -25 -81 -28 -91 -3 -13
5 -21 31 -32 20 -9 36 -20 36 -25 0 -6 144 -10 400 -10 l400 0 0 120 0 121
-42 41 c-24 22 -61 52 -82 65 -22 14 -55 41 -75 59 -19 19 -39 33 -44 31 -5
-1 -19 -27 -30 -57 -16 -43 -18 -60 -9 -82 6 -16 6 -28 1 -28 -5 0 -9 -6 -9
-14 0 -8 -8 -17 -18 -20 -14 -5 -19 -17 -19 -49 0 -23 -1 -58 -2 -77 l-2 -35
-15 34 c-18 43 -35 30 -36 -28 0 -22 -4 -41 -8 -41 -15 0 -58 76 -65 113 -7
42 -4 42 45 -7 19 -19 20 -19 31 10 6 16 12 37 14 46 2 9 9 26 15 38 6 12 9
26 7 33 -3 7 -8 0 -12 -15 -4 -16 -13 -28 -21 -28 -8 0 -14 2 -14 5 0 12 24
55 32 55 4 0 8 9 8 20 0 11 -6 20 -14 20 -7 0 -28 3 -45 6 -26 6 -31 4 -31
-13 0 -27 10 -35 27 -22 10 9 13 6 12 -17 0 -16 -3 -23 -6 -16 -2 6 -9 12 -14
12 -6 0 -7 -4 -4 -10 3 -5 0 -10 -8 -10 -8 0 -18 -10 -22 -22 -4 -15 -8 -18
-12 -10 -3 7 1 19 7 28 15 17 11 23 -20 26 -19 3 -26 -4 -39 -42 -14 -39 -19
-45 -41 -42 l-26 3 46 206 c25 114 47 198 49 188 2 -11 20 -43 40 -71 75 -107
135 -184 141 -184 6 0 73 152 68 154 -52 21 -146 79 -167 102 -15 16 -32 29
-37 27 -7 -2 -6 21 3 64 17 81 23 90 23 35 0 -38 2 -42 25 -42 14 0 25 -5 25
-11 0 -6 7 -9 15 -5 8 3 15 1 15 -4 0 -5 11 -12 25 -16 14 -3 25 -10 25 -14 0
-4 9 -10 20 -13 14 -3 24 1 31 14 5 11 15 17 20 13 6 -3 3 -12 -8 -20 -16 -12
-16 -15 -3 -24 22 -14 30 -12 36 7 3 10 9 25 14 34 11 20 -7 40 -28 32 -10 -4
-13 -2 -10 8 3 8 11 13 17 11 6 -1 11 2 11 8 0 5 9 10 20 10 28 0 25 20 -2 21
-20 1 -20 2 -4 6 21 6 46 27 46 39 0 5 -5 3 -12 -4 -18 -18 -40 -15 -34 5 20
69 20 70 -18 75 -25 3 -41 -1 -51 -12 -21 -24 -19 -74 5 -95 19 -17 29 -41 13
-32 -5 3 -9 -9 -10 -26 -1 -17 -10 -38 -19 -46 -15 -15 -16 -14 -9 9 4 14 10
32 12 40 3 8 -5 4 -16 -9 l-21 -23 6 31 c7 33 -10 43 -35 19 -10 -11 -11 -9
-5 6 4 11 2 21 -7 27 -22 13 -27 11 -43 -18 -8 -16 -15 -21 -15 -13 -1 8 3 21
8 29 11 17 -13 46 -29 36 -16 -10 -11 33 14 130 l24 90 -25 9 c-23 8 -25 12
-21 57 3 27 1 49 -3 49 -5 0 -9 18 -9 40 0 22 -10 63 -22 92 l-23 51 -6 -39
c-5 -31 -6 -24 -8 33 -1 63 -3 72 -22 78 -25 8 -35 0 -22 -17 5 -7 11 -49 12
-93 1 -44 4 -82 7 -86 5 -9 -22 -60 -38 -70 -10 -6 -10 -17 -2 -48 11 -39 10
-41 -10 -41 -28 0 -76 45 -77 73 -2 28 2 61 7 66 2 2 15 -2 29 -9 14 -7 28
-10 32 -7 3 4 -1 7 -10 7 -10 0 -17 4 -17 10 0 5 -11 12 -24 16 -22 5 -25 12
-31 84 -8 94 3 125 42 115 16 -4 22 -2 18 5 -3 5 -17 10 -31 10 -28 0 -27 -4
-25 145 1 70 -2 96 -9 85 -5 -8 -10 -30 -10 -47 0 -52 -17 -38 -24 20 -11 97
-15 201 -19 531 l-5 328 41 -6 c41 -7 185 -58 223 -79 62 -35 90 -54 112 -75
l24 -23 104 103 c103 102 173 151 200 141 9 -3 14 2 14 15 0 17 -4 19 -32 12
-46 -10 -110 -46 -138 -75 -13 -14 -32 -25 -42 -25 -10 0 -19 -4 -19 -10 -1
-5 -2 -15 -3 -20 -2 -19 -68 -80 -87 -80 -9 0 -30 10 -46 23 -33 27 -83 49
-178 78 -108 32 -159 52 -167 63 -4 6 -8 56 -8 111 0 106 -19 209 -46 250 -9
13 -13 28 -10 33 3 5 -11 34 -32 63 l-38 54 -137 3 -137 3 0 -109 c0 -59 4
-112 9 -117 16 -17 18 -125 3 -125 -10 0 -12 -25 -10 -105 1 -65 6 -105 12
-105 6 0 5 -4 -3 -9 -10 -7 -15 -55 -19 -214 -5 -203 -5 -205 17 -212 28 -9
29 -57 1 -76 -19 -13 -20 -26 -20 -239 -1 -245 -6 -300 -26 -300 -7 0 -13 8
-13 18 -1 9 -4 71 -7 137 -4 77 -2 135 5 160 8 31 8 42 -2 50 -9 8 -11 63 -6
245 10 326 12 788 4 800 -3 5 -1 10 4 10 7 0 11 35 11 95 l0 95 -209 0 -209 0
-26 -35z m244 -131 c0 -8 -14 -29 -31 -46 -28 -30 -32 -31 -43 -16 -7 10 -15
15 -18 13 -3 -3 -11 2 -19 11 -12 15 -12 16 6 10 16 -4 25 1 39 24 9 17 22 28
27 25 5 -4 9 -1 9 6 0 8 4 8 15 -1 8 -7 15 -19 15 -26z m-185 16 c3 -5 1 -10
-4 -10 -6 0 -11 5 -11 10 0 6 2 10 4 10 3 0 8 -4 11 -10z m483 -65 c-2 -12 -7
-7 -15 16 -12 30 -11 32 3 17 9 -8 14 -23 12 -33z m-490 -1 c-11 -23 -13 -24
-18 -8 -4 10 -2 24 4 30 18 19 26 5 14 -22z m50 -51 c2 52 13 58 50 27 17 -14
22 -25 17 -40 -4 -11 -11 -18 -16 -15 -5 4 -9 -7 -9 -24 0 -28 -2 -30 -38 -28
l-38 1 4 56 c5 80 15 93 22 30 l7 -55 1 48z m165 -10 c-7 -73 -23 -93 -23 -29
0 41 13 86 25 86 2 0 1 -26 -2 -57z m308 -70 c7 -12 8 -30 4 -40 -11 -27 -13
-53 -3 -47 5 4 7 12 4 20 -6 16 10 29 19 14 3 -5 18 -11 33 -11 25 -2 25 -2 4
-6 -17 -3 -22 -9 -17 -21 4 -9 8 -24 8 -32 0 -8 8 -21 18 -28 10 -7 18 -20 17
-30 0 -9 2 -30 5 -47 3 -16 8 -54 12 -82 9 -66 24 -61 17 6 -4 47 -3 49 17 44
23 -6 27 -23 10 -40 -8 -8 -9 -31 -4 -70 9 -71 9 -67 -8 -71 -10 -2 -19 13
-28 43 -15 52 -36 76 -48 57 -10 -16 -3 -94 8 -102 5 -3 12 -34 16 -70 3 -35
11 -72 16 -81 16 -30 11 -51 -10 -44 -17 5 -19 1 -18 -42 2 -46 1 -48 -28 -51
-16 -1 -25 1 -20 5 24 19 33 51 25 87 -7 33 -6 38 13 45 17 6 18 9 4 14 -13 5
-14 12 -6 39 11 40 11 47 0 30 -6 -10 -17 0 -40 36 -27 43 -31 57 -31 120 0
41 -4 72 -10 72 -5 0 -10 -8 -10 -17 0 -10 -4 -23 -8 -30 -4 -6 -7 24 -7 68 0
43 3 79 6 79 4 0 10 7 13 16 4 12 1 14 -14 9 -14 -4 -20 -2 -20 9 0 8 7 16 16
18 18 3 20 47 9 183 l-5 60 15 -45 c8 -25 20 -55 26 -67z m56 75 c-3 -8 -6 -5
-6 6 -1 11 2 17 5 13 3 -3 4 -12 1 -19z m-580 -65 c-3 -10 -5 -2 -5 17 0 19 2
27 5 18 2 -10 2 -26 0 -35z m241 -12 c-15 -5 -18 3 -11 29 l7 25 6 -25 c3 -14
2 -27 -2 -29z m431 2 c1 -7 -3 -13 -9 -13 -5 0 -10 15 -9 33 0 27 2 29 9 12 5
-11 9 -26 9 -32z m-512 5 c-3 -8 -6 -5 -6 6 -1 11 2 17 5 13 3 -3 4 -12 1 -19z
m0 -60 c-3 -7 -5 -2 -5 12 0 14 2 19 5 13 2 -7 2 -19 0 -25z m44 15 c0 -11 3
-13 6 -5 2 6 12 12 20 12 13 0 15 -11 8 -72 -8 -82 -15 -100 -27 -72 -6 13 -7
7 -4 -18 5 -37 4 -38 -26 -38 -25 0 -29 3 -23 18 4 9 12 56 17 105 6 48 15 87
19 87 5 0 9 -8 10 -17z m265 -15 c-3 -13 -6 -30 -6 -38 0 -13 -1 -13 -10 0
-16 24 -12 60 6 60 12 0 15 -6 10 -22z m-531 -8 c-3 -5 -10 -10 -16 -10 -5 0
-9 5 -9 10 0 6 7 10 16 10 8 0 12 -4 9 -10z m140 0 c-4 -6 -15 -8 -26 -5 -13
4 -19 2 -19 -9 0 -9 -4 -16 -10 -16 -5 0 -10 9 -10 20 0 16 7 20 36 20 22 0
33 -4 29 -10z m595 -10 c0 -5 -2 -10 -4 -10 -3 0 -8 5 -11 10 -3 6 -1 10 4 10
6 0 11 -4 11 -10z m-595 -67 c7 -17 8 -16 15 2 6 14 9 3 9 -37 l1 -58 -35 0
c-37 0 -37 -1 -19 88 5 26 19 29 29 5z m592 -5 c-3 -8 -6 -5 -6 6 -1 11 2 17
5 13 3 -3 4 -12 1 -19z m-645 -48 c-2 -22 -9 -40 -14 -40 -6 0 -8 10 -4 23 3
12 6 36 6 52 0 18 3 25 8 18 4 -7 6 -30 4 -53z m-86 28 l6 -21 14 24 c13 23
13 22 14 -22 0 -46 0 -47 -32 -45 -36 2 -45 19 -34 62 8 30 22 31 32 2z m736
-35 c2 -18 0 -33 -4 -33 -4 0 -9 12 -9 28 l-2 27 -4 -27 c-6 -39 -18 -35 -21
6 -2 29 1 35 17 33 14 -1 20 -10 23 -34z m-792 -5 c0 -19 -2 -20 -10 -8 -13
19 -13 30 0 30 6 0 10 -10 10 -22z m860 -13 c0 -14 -4 -25 -9 -25 -5 0 -8 11
-8 25 0 14 3 25 8 25 5 0 9 -11 9 -25z m27 -7 c-3 -8 -6 -5 -6 6 -1 11 2 17 5
13 3 -3 4 -12 1 -19z m-835 -90 l2 -73 3 68 c3 55 7 67 21 67 17 0 20 -23 14
-142 -2 -36 -4 -38 -37 -38 l-35 0 0 88 c0 49 3 92 7 95 17 18 23 1 25 -65z
m164 33 c-3 -20 -8 -54 -11 -76 l-5 -40 14 35 14 35 1 -48 c1 -41 -2 -50 -19
-54 -11 -3 -20 -10 -20 -15 0 -6 7 -8 15 -4 12 4 15 -4 17 -37 3 -82 2 -136
-3 -141 -2 -2 -27 -6 -54 -8 l-50 -3 -1 93 c-1 61 3 92 10 93 23 1 48 8 54 13
5 6 -31 10 -56 7 -10 -2 -13 18 -11 86 1 48 3 90 4 93 2 3 27 6 55 6 l52 2 -6
-37z m-219 -18 c-3 -10 -5 -2 -5 17 0 19 2 27 5 18 2 -10 2 -26 0 -35z m327
32 c-4 -8 -10 -12 -15 -9 -5 3 -6 -2 -3 -10 3 -9 1 -16 -5 -16 -6 0 -11 -19
-11 -44 0 -25 -4 -48 -10 -51 -6 -4 -10 22 -10 69 l0 76 30 0 c22 0 28 -4 24
-15z m258 -20 c3 -14 1 -28 -3 -31 -5 -3 -9 1 -9 10 0 8 -3 21 -6 30 -3 9 -2
16 4 16 5 0 12 -11 14 -25z m278 -19 c0 -24 3 -65 6 -92 5 -34 3 -46 -4 -39
-15 15 -27 175 -13 175 6 0 11 -18 11 -44z m40 22 c0 -13 -5 -30 -10 -38 -7
-11 -10 -5 -10 23 0 20 5 37 10 37 6 0 10 -10 10 -22z m-73 -120 c-2 -18 -4
-4 -4 32 0 36 2 50 4 33 2 -18 2 -48 0 -65z m70 -20 c-3 -8 -6 -5 -6 6 -1 11
2 17 5 13 3 -3 4 -12 1 -19z m-607 2 c0 -5 -2 -10 -4 -10 -3 0 -8 5 -11 10 -3
6 -1 10 4 10 6 0 11 -4 11 -10z m-202 -116 l-1 -94 -33 0 -34 0 0 93 0 93 35
1 35 1 -2 -94z m712 46 c0 -16 -4 -30 -9 -30 -5 0 -14 14 -20 30 -9 27 -8 30
10 30 14 0 19 -7 19 -30z m39 -65 c1 -50 -3 -85 -9 -85 -6 0 -10 37 -10 91 0
51 4 88 9 85 5 -3 10 -44 10 -91z m38 15 c2 -41 5 -78 6 -83 1 -5 -4 -12 -10
-14 -10 -3 -13 11 -13 55 0 33 -3 74 -7 92 -4 24 -3 32 6 29 8 -3 15 -32 18
-79z m20 33 c-3 -10 -5 -2 -5 17 0 19 2 27 5 18 2 -10 2 -26 0 -35z m-95 -126
c-8 -19 -42 16 -42 43 0 39 7 38 19 -2 9 -32 9 -32 12 17 l2 50 6 -50 c4 -27
5 -53 3 -58z m95 41 c-2 -13 -4 -3 -4 22 0 25 2 35 4 23 2 -13 2 -33 0 -45z
m-307 42 c0 -5 -5 -10 -11 -10 -5 0 -7 5 -4 10 3 6 8 10 11 10 2 0 4 -4 4 -10z
m-509 -120 c-3 -12 -19 -136 -21 -161 0 -3 -10 -5 -22 -4 -21 1 -22 6 -21 88
1 48 2 90 2 93 1 3 16 4 34 2 22 -2 31 -7 28 -18z m131 14 c4 -3 0 -21 -8 -40
-8 -18 -19 -56 -25 -83 -6 -27 -16 -52 -23 -54 -29 -11 -40 12 -44 97 l-5 86
50 0 c27 0 52 -3 55 -6z m553 -53 c10 -75 27 -87 19 -13 -4 39 -3 62 3 62 15
0 23 -127 9 -155 -6 -15 -19 -25 -32 -25 -17 0 -24 9 -33 46 -12 48 -7 69 10
44 11 -15 8 15 -7 74 -5 21 -3 25 9 20 9 -3 18 -24 22 -53z m79 32 c9 -32 6
-163 -4 -163 -6 0 -10 26 -10 59 0 32 -3 73 -6 90 -7 33 11 45 20 14z m46 -75
c-1 -109 -14 -100 -24 15 -5 64 -3 77 9 77 12 0 15 -17 15 -92z m-790 -45 c0
-35 -3 -44 -11 -36 -7 7 -9 25 -5 47 9 50 16 45 16 -11z m510 33 c0 -3 -4 -8
-10 -11 -5 -3 -10 -1 -10 4 0 6 5 11 10 11 6 0 10 -2 10 -4z m187 -148 c-3 -7
-5 -2 -5 12 0 14 2 19 5 13 2 -7 2 -19 0 -25z m-329 0 c-2 -15 -10 -23 -23
-23 -13 0 -21 8 -23 23 -3 18 1 22 23 22 22 0 26 -4 23 -22z m392 18 c0 -3 -4
-8 -10 -11 -5 -3 -10 -1 -10 4 0 6 5 11 10 11 6 0 10 -2 10 -4z m27 -33 c-3
-10 -5 -4 -5 12 0 17 2 24 5 18 2 -7 2 -21 0 -30z m10 -75 c-3 -8 -6 -5 -6 6
-1 11 2 17 5 13 3 -3 4 -12 1 -19z m-484 -4 c3 -4 2 -15 -4 -25 -13 -25 -59
-26 -59 -1 0 10 3 22 7 25 8 9 48 9 56 1z m-441 -390 c3 -105 3 -107 -22 -117
-23 -9 -23 -11 -5 -15 28 -6 35 -20 35 -72 -1 -56 -18 -80 -58 -80 -20 0 -35
7 -41 18 -9 18 -7 119 3 129 3 4 2 11 -3 17 -14 18 -21 102 -14 166 l6 60 48
0 48 0 3 -106z m558 -9 c0 -63 -4 -105 -10 -105 -6 0 -8 34 -5 93 3 50 5 98 5
105 0 6 2 12 5 12 3 0 5 -47 5 -105z m98 98 c-10 -2 -28 -2 -40 0 -13 2 -5 4
17 4 22 1 32 -1 23 -4z m240 0 c-16 -2 -40 -2 -55 0 -16 2 -3 4 27 4 30 0 43
-2 28 -4z m109 -70 c-3 -10 -5 -2 -5 17 0 19 2 27 5 18 2 -10 2 -26 0 -35z
m-447 -220 c0 -48 -4 -72 -9 -63 -11 20 -23 118 -16 130 16 27 25 3 25 -67z
m662 15 c-8 -8 -9 -4 -5 13 4 13 8 18 11 10 2 -7 -1 -18 -6 -23z m-220 -52
c11 -16 -1 -26 -32 -26 -33 0 -80 16 -80 27 0 12 104 11 112 -1z m118 -41 c0
-8 -7 -15 -15 -15 -16 0 -20 12 -8 23 11 12 23 8 23 -8z m-287 -2 c-13 -2 -35
-2 -50 0 -16 2 -5 4 22 4 28 0 40 -2 28 -4z m-423 -39 c0 -2 -16 -4 -35 -4
-19 0 -35 4 -35 8 0 4 16 6 35 4 19 -2 35 -6 35 -8z m-212 -1 c-71 -2 -185 -2
-255 0 -71 1 -13 3 127 3 140 0 198 -2 128 -3z m875 0 c-95 -2 -251 -2 -345 0
-95 1 -18 3 172 3 190 0 267 -2 173 -3z m-374 -50 c0 -25 -1 -25 -8 -8 -5 11
-7 23 -4 28 8 14 13 7 12 -20z m71 1 c0 -8 5 -14 10 -14 6 0 10 -4 10 -9 0 -5
-11 -4 -25 2 -24 12 -32 27 -19 40 10 9 24 -2 24 -19z m-1197 -4 c3 -11 1 -20
-4 -20 -5 0 -9 9 -9 20 0 11 2 20 4 20 2 0 6 -9 9 -20z m688 -3 c-10 -9 -11
-8 -5 6 3 10 9 15 12 12 3 -3 0 -11 -7 -18z m681 1 c-5 -20 -22 -25 -23 -5 0
6 -4 3 -9 -8 -8 -19 -9 -19 -9 -1 -1 15 -4 17 -12 9 -6 -6 -18 -9 -25 -6 -8 3
-14 0 -14 -6 0 -6 -7 -11 -15 -11 -9 0 -15 9 -15 23 0 20 5 22 64 23 56 0 63
-2 58 -18z m185 7 c8 -22 -6 -33 -17 -15 -13 20 -12 30 0 30 6 0 13 -7 17 -15z
m-1107 -10 c0 -8 -4 -15 -9 -15 -5 0 -16 -3 -25 -6 -12 -4 -16 0 -16 15 0 16
6 21 25 21 16 0 25 -6 25 -15z m190 5 c0 -5 -4 -10 -10 -10 -5 0 -10 5 -10 10
0 6 5 10 10 10 6 0 10 -4 10 -10z m160 -4 c0 -8 -4 -17 -9 -21 -12 -7 -24 12
-16 25 9 15 25 12 25 -4z m55 -24 c-6 -6 -35 18 -35 29 0 5 9 1 20 -8 11 -9
17 -19 15 -21z m159 22 c5 -14 4 -15 -9 -4 -17 14 -19 20 -6 20 5 0 12 -7 15
-16z m584 -1 c-4 -22 -22 -20 -26 1 -2 10 3 16 13 16 10 0 15 -7 13 -17z
m-988 -14 c0 -6 -4 -7 -10 -4 -5 3 -10 11 -10 16 0 6 5 7 10 4 6 -3 10 -11 10
-16z m1292 -31 c-7 -7 -12 -8 -12 -2 0 14 12 26 19 19 2 -3 -1 -11 -7 -17z
m-1709 1 c-8 -8 -16 -8 -30 0 -16 9 -14 10 12 11 21 0 26 -3 18 -11z m1759 5
c3 -3 -1 -19 -10 -37 -15 -30 -16 -30 -25 -9 -13 29 15 66 35 46z m-1919 -31
c-7 -2 -21 -2 -30 0 -10 3 -4 5 12 5 17 0 24 -2 18 -5z m60 0 c-7 -2 -19 -2
-25 0 -7 3 -2 5 12 5 14 0 19 -2 13 -5z m105 0 c-10 -2 -28 -2 -40 0 -13 2 -5
4 17 4 22 1 32 -1 23 -4z m2 -35 c0 -4 -21 -7 -47 -7 -42 1 -44 2 -18 9 38 9
65 8 65 -2z m-177 -5 c-7 -2 -19 -2 -25 0 -7 3 -2 5 12 5 14 0 19 -2 13 -5z
m54 1 c-3 -3 -12 -4 -19 -1 -8 3 -5 6 6 6 11 1 17 -2 13 -5z m57 -95 c6 -5
-18 -9 -57 -9 -60 0 -77 6 -62 22 8 8 109 -3 119 -13z m46 6 c0 -8 -7 -15 -15
-15 -9 0 -12 6 -9 15 4 8 10 15 15 15 5 0 9 -7 9 -15z m-2 -66 c-5 -14 -161
-15 -166 -1 -2 6 32 10 83 11 61 1 86 -2 83 -10z m-57 -96 c8 -21 5 -23 -27
-23 -31 0 -34 2 -25 19 6 10 7 22 3 26 -4 4 4 5 17 3 14 -2 27 -13 32 -25z
m465 -190 c-11 -11 -19 6 -11 24 8 17 8 17 12 0 3 -10 2 -21 -1 -24z m878 -35
c10 -87 9 -88 -25 -88 -28 0 -31 -3 -24 -22 17 -58 22 -88 15 -88 -5 0 -10 10
-12 23 -3 20 -8 22 -50 20 -56 -1 -60 8 -18 39 25 18 30 29 30 65 0 32 -4 43
-15 43 -16 0 -19 17 -9 44 4 12 20 16 54 16 l47 0 7 -52z m-1618 -49 c-6 -57
-16 -61 -16 -6 0 26 4 47 10 47 5 0 8 -18 6 -41z m864 11 c8 -5 11 -12 8 -16
-4 -3 -14 1 -23 10 -18 17 -9 21 15 6z m-312 -32 c17 -17 15 -28 -6 -28 -32 0
-41 -19 -35 -77 5 -50 4 -54 -13 -52 -10 2 -25 0 -32 -5 -20 -12 -51 21 -47
50 1 14 18 42 36 62 61 65 75 72 97 50z m1469 -27 c0 -11 -5 -17 -9 -15 -11 7
-10 34 1 34 6 0 9 -9 8 -19z m-1673 -7 c5 -14 4 -15 -9 -4 -17 14 -19 20 -6
20 5 0 12 -7 15 -16z m422 -27 c11 -11 -10 -35 -34 -40 -32 -6 -29 -9 -38 27
-7 29 -7 29 31 23 21 -3 39 -8 41 -10z m1362 -23 c61 -13 62 -14 49 -29 -9
-10 -16 -10 -27 -1 -13 10 -13 9 0 -8 11 -15 12 -20 3 -23 -7 -3 -13 -11 -13
-19 0 -19 -27 -29 -43 -16 -7 6 -33 12 -57 14 -43 3 -45 5 -50 38 -3 20 -11
34 -18 32 -14 -2 -14 0 -6 22 9 25 37 20 31 -5 -3 -13 0 -22 10 -26 16 -6 33
12 29 31 -2 6 -1 8 1 4 9 -16 53 -8 54 10 1 16 2 16 6 0 2 -10 17 -21 31 -24z
m-1553 -4 c3 -5 1 -10 -4 -10 -6 0 -11 5 -11 10 0 6 2 10 4 10 3 0 8 -4 11
-10z m95 0 c0 -5 -4 -10 -10 -10 -5 0 -10 5 -10 10 0 6 5 10 10 10 6 0 10 -4
10 -10z m798 -45 c-3 -3 -9 2 -12 12 -6 14 -5 15 5 6 7 -7 10 -15 7 -18z
m-458 6 c0 -5 -7 -12 -16 -15 -22 -9 -24 -8 -24 9 0 8 9 15 20 15 11 0 20 -4
20 -9z m1203 -6 c-3 -9 -8 -14 -10 -11 -3 3 -2 9 2 15 9 16 15 13 8 -4z m-143
-65 c0 -5 -5 -10 -11 -10 -5 0 -7 5 -4 10 3 6 8 10 11 10 2 0 4 -4 4 -10z"/>
<path d="M1370 2520 c0 -5 5 -10 10 -10 6 0 10 5 10 10 0 6 -4 10 -10 10 -5 0
-10 -4 -10 -10z"/>
<path d="M1500 2359 c0 -5 5 -7 10 -4 6 3 10 8 10 11 0 2 -4 4 -10 4 -5 0 -10
-5 -10 -11z"/>
<path d="M780 2450 c0 -5 5 -10 10 -10 6 0 10 5 10 10 0 6 -4 10 -10 10 -5 0
-10 -4 -10 -10z"/>
<path d="M867 2361 c-4 -18 -6 -54 -6 -80 l1 -46 10 55 c5 30 7 66 6 80 -3 22
-4 21 -11 -9z"/>
<path d="M887 1904 c-4 -4 -7 -14 -7 -23 0 -11 3 -12 11 -4 6 6 10 16 7 23 -2
6 -7 8 -11 4z"/>
<path d="M1480 1855 c0 -14 4 -25 9 -25 4 0 6 11 3 25 -2 14 -6 25 -8 25 -2 0
-4 -11 -4 -25z"/>
<path d="M2420 2705 l0 -295 35 0 35 0 0 243 c0 133 -3 266 -6 295 -6 49 -8
52 -35 52 l-29 0 0 -295z"/>
<path d="M3365 2750 c3 -140 5 -288 5 -328 0 -46 4 -71 10 -67 6 3 10 28 10
56 0 34 4 48 13 47 9 -2 13 28 17 117 5 116 6 120 27 117 12 -2 24 2 28 8 4 6
-6 10 -25 10 l-31 0 3 97 3 98 31 2 31 3 7 -90 c9 -112 26 -109 26 6 l0 84 55
0 55 0 -6 -55 c-5 -41 -4 -55 6 -55 9 0 11 -14 8 -51 -5 -49 -5 -50 31 -69 20
-10 50 -33 68 -49 18 -17 34 -31 37 -31 3 0 30 -16 60 -35 30 -19 59 -35 64
-35 5 0 7 57 6 128 -2 70 -3 176 -4 235 l0 108 -72 -3 -73 -3 -3 -32 c-3 -29
-7 -33 -33 -33 -34 0 -39 22 -12 52 15 17 14 18 -30 18 -47 0 -47 0 -47 -34 0
-33 -1 -34 -47 -38 -65 -6 -73 -1 -73 38 0 46 -18 43 -22 -3 -3 -34 -6 -37
-33 -37 -27 0 -30 3 -33 37 -2 26 -8 37 -19 37 -12 0 -14 -7 -10 -30 8 -37
-10 -50 -19 -13 -3 15 -8 33 -10 38 -2 6 -2 -105 1 -245z m33 55 c1 -52 -2
-95 -7 -95 -9 0 -20 176 -13 193 11 24 19 -14 20 -98z m337 86 c-5 -18 -25
-128 -25 -142 0 -4 -7 -9 -15 -12 -12 -5 -14 9 -14 83 l0 90 30 0 c25 0 29 -3
24 -19z m-335 -303 c0 -56 -2 -99 -4 -97 -2 2 -7 48 -11 102 -5 68 -4 97 4 97
7 0 11 -35 11 -102z"/>
<path d="M3450 2985 c0 -8 5 -15 10 -15 6 0 10 7 10 15 0 8 -4 15 -10 15 -5 0
-10 -7 -10 -15z"/>
<path d="M3994 2970 c5 -28 4 -30 -20 -26 l-27 5 8 -382 c4 -210 8 -467 9
-572 l1 -190 60 -6 60 -6 -63 -1 -63 -2 3 -97 3 -98 258 0 c143 0 261 3 263 7
2 4 0 10 -6 13 -6 4 -8 21 -4 40 3 19 1 35 -5 39 -12 8 -15 77 -5 114 5 16 14
22 38 23 31 2 31 2 3 6 -31 5 -49 37 -40 72 3 13 1 21 -6 21 -8 0 -7 7 3 22
17 25 20 57 9 109 l-8 34 -5 -44 c-3 -25 -10 -46 -16 -48 -16 -5 -24 100 -24
322 0 105 -5 289 -10 409 -5 121 -8 222 -5 225 3 3 29 -3 58 -12 29 -9 69 -21
90 -26 39 -10 152 -81 175 -110 12 -14 19 -10 68 42 48 50 54 62 54 99 0 38
-1 40 -14 23 -8 -11 -12 -24 -9 -28 8 -12 -68 -87 -88 -87 -9 0 -34 13 -57 30
-22 16 -65 36 -94 45 -29 9 -62 21 -73 25 -50 20 -116 33 -192 37 l-83 4 0
-30 c0 -18 -5 -31 -12 -32 -7 0 -24 -2 -38 -3 -42 -5 -70 11 -70 39 0 20 -5
25 -26 25 -21 0 -25 -4 -21 -20 7 -26 -16 -55 -37 -47 -9 4 -19 20 -22 37 -4
16 -11 30 -16 30 -6 0 -8 -13 -4 -30z m273 -17 c-3 -10 -5 -4 -5 12 0 17 2 24
5 18 2 -7 2 -21 0 -30z m43 2 c0 -26 -14 -33 -25 -15 -9 14 1 40 15 40 5 0 10
-11 10 -25z m40 -1 c0 -8 -4 -14 -10 -14 -5 0 -10 9 -10 21 0 11 5 17 10 14 6
-3 10 -13 10 -21z m-276 -113 c8 -75 0 -124 -18 -118 -6 2 -12 21 -12 43 -1
24 0 29 3 12 2 -16 9 -28 14 -28 13 0 3 53 -17 94 -22 46 -17 80 11 70 7 -3
15 -33 19 -73z m169 6 c10 -123 10 -122 -61 -125 l-62 -3 0 94 c0 51 2 96 5
99 3 2 29 5 59 6 l53 1 6 -72z m103 -33 l2 -99 -9 79 c-12 109 -19 117 -16 17
1 -60 -2 -85 -10 -88 -9 -3 -13 8 -13 35 0 21 -3 66 -6 100 l-7 61 29 -3 29
-3 1 -99z m-336 65 c0 -17 -4 -28 -10 -24 -5 3 -10 17 -10 31 0 13 5 24 10 24
6 0 10 -14 10 -31z m268 -74 c2 -53 -1 -85 -8 -85 -6 0 -10 38 -10 98 0 117
15 108 18 -13z m-261 -12 c-3 -10 -5 -4 -5 12 0 17 2 24 5 18 2 -7 2 -21 0
-30z m233 -173 c2 -113 4 -107 -35 -112 -19 -2 -39 -2 -44 2 -9 5 -41 143 -41
175 0 13 9 16 45 14 24 -2 48 0 52 4 14 15 22 -11 23 -83z m33 28 c4 -29 10
-72 13 -95 5 -34 4 -43 -8 -43 -15 0 -28 73 -28 156 0 53 17 40 23 -18z m48 1
l6 -44 1 49 c3 72 8 54 16 -49 4 -62 3 -85 -4 -75 -8 13 -10 13 -10 -2 0 -10
-7 -18 -15 -18 -12 0 -15 13 -15 58 0 31 -3 74 -7 96 -5 31 -3 38 8 34 8 -3
17 -24 20 -49z m-252 -46 c-1 -49 -4 -79 -6 -68 -14 54 -23 67 -38 55 -8 -6
-20 -8 -27 -4 -9 6 -5 10 12 14 20 5 25 12 25 35 1 17 4 36 8 43 19 30 27 6
26 -75z m65 -65 c4 -17 2 -28 -4 -28 -5 0 -10 14 -10 32 0 36 4 35 14 -4z
m243 -5 c-3 -10 -5 -4 -5 12 0 17 2 24 5 18 2 -7 2 -21 0 -30z m-226 -55 c0
-10 2 -10 6 0 2 6 22 12 43 12 34 0 38 -3 44 -31 9 -44 7 -142 -2 -157 -14
-21 -72 -3 -85 27 -6 14 -14 28 -17 31 -3 3 -6 10 -6 15 -16 107 -16 115 0
115 9 0 16 -6 17 -12z m143 -40 c9 -77 7 -148 -3 -148 -16 0 -18 10 -25 108
-6 76 -5 92 7 92 10 0 16 -16 21 -52z m46 42 c8 -5 11 -10 5 -10 -6 0 -9 -35
-7 -92 4 -119 -14 -108 -26 15 -9 101 -7 109 28 87z m-280 -36 c0 -21 -4 -33
-10 -29 -5 3 -10 19 -10 36 0 16 5 29 10 29 6 0 10 -16 10 -36z m317 4 c-3 -7
-5 -2 -5 12 0 14 2 19 5 13 2 -7 2 -19 0 -25z m-347 -82 c0 -3 -4 -8 -10 -11
-5 -3 -10 -1 -10 4 0 6 5 11 10 11 6 0 10 -2 10 -4z m220 -132 c0 -8 -5 -12
-10 -9 -6 4 -8 11 -5 16 9 14 15 11 15 -7z m53 -6 c6 -26 21 -135 21 -158 1
-17 -35 -15 -46 3 -8 13 -11 77 -3 77 2 0 9 -15 14 -32 9 -33 9 -32 10 13 1
30 -4 51 -14 59 -22 18 -18 60 6 60 4 0 9 -10 12 -22z m47 -157 c-9 -17 -19
33 -20 109 -2 85 1 82 15 -10 7 -47 9 -91 5 -99z m-135 159 c3 -5 1 -10 -4
-10 -6 0 -11 5 -11 10 0 6 2 10 4 10 3 0 8 -4 11 -10z m-195 -29 c0 -23 -22
-40 -28 -23 -2 7 -10 12 -18 12 -8 0 -14 7 -14 15 0 10 10 15 30 15 23 0 30
-5 30 -19z m227 -93 c-3 -8 -6 -5 -6 6 -1 11 2 17 5 13 3 -3 4 -12 1 -19z
m-193 -81 c8 -12 7 -20 -3 -29 -12 -11 -13 -10 -7 6 4 12 0 24 -11 33 -12 9
-13 13 -4 11 8 -3 19 -12 25 -21z m244 -9 c9 -9 12 -9 12 0 0 7 5 12 10 12 6
0 10 -9 10 -20 0 -11 -6 -20 -13 -20 -8 0 -22 9 -32 20 -19 21 -7 28 13 8z
m-263 -146 c-8 -9 -45 11 -45 24 0 12 4 12 24 -3 13 -10 23 -20 21 -21z m335
-51 c0 -15 -41 -21 -130 -19 l-85 1 92 6 c50 4 95 10 99 14 10 10 24 9 24 -2z
m-223 -27 c-3 -3 -12 -4 -19 -1 -8 3 -5 6 6 6 11 1 17 -2 13 -5z"/>
<path d="M4191 2840 c1 -14 5 -36 9 -50 7 -23 8 -22 9 10 0 19 -4 42 -9 50 -8
12 -10 10 -9 -10z"/>
<path d="M4140 2820 c0 -8 5 -22 10 -30 9 -13 10 -13 10 0 0 8 -5 22 -10 30
-9 13 -10 13 -10 0z"/>
<path d="M4180 2616 c0 -9 5 -16 10 -16 6 0 10 4 10 9 0 6 -4 13 -10 16 -5 3
-10 -1 -10 -9z"/>
<path d="M4171 2445 c0 -11 4 -29 9 -40 l9 -20 0 20 c0 11 -4 29 -9 40 l-9 20
0 -20z"/>
<path d="M3452 2850 c0 -19 2 -27 5 -17 2 9 2 25 0 35 -3 9 -5 1 -5 -18z"/>
<path d="M3543 2795 c0 -22 2 -30 4 -17 2 12 2 30 0 40 -3 9 -5 -1 -4 -23z"/>
<path d="M3662 2560 c-18 -11 -32 -17 -32 -14 0 4 -7 1 -15 -6 -27 -23 -18
-72 19 -108 39 -36 48 -40 39 -14 -6 15 -5 15 10 4 24 -20 77 19 77 56 0 22
-2 24 -11 12 -8 -12 -10 -10 -5 9 6 28 -7 57 -33 70 -13 7 -26 5 -49 -9z m14
-36 c-3 -9 -6 -24 -6 -35 0 -22 -15 -25 -23 -5 -9 22 4 56 20 56 10 0 13 -6 9
-16z m49 -4 c10 -16 -5 -50 -21 -50 -15 0 -18 18 -8 44 7 18 20 21 29 6z m-98
-32 c-3 -8 -6 -5 -6 6 -1 11 2 17 5 13 3 -3 4 -12 1 -19z"/>
<path d="M522 2465 c0 -16 2 -22 5 -12 2 9 2 23 0 30 -3 6 -5 -1 -5 -18z"/>
<path d="M3882 2477 c-12 -15 -18 -151 -8 -187 7 -23 4 -26 -36 -37 -25 -7
-58 -8 -78 -4 -19 4 -50 3 -68 -1 -18 -5 -37 -6 -42 -3 -5 3 -66 14 -134 24
-69 11 -129 22 -135 26 -8 4 -11 -65 -11 -229 0 -203 -2 -236 -15 -236 -8 0
-15 4 -15 9 0 5 -14 17 -31 28 -22 13 -36 33 -49 73 -18 52 -18 56 -2 80 30
43 45 77 39 92 -3 8 -9 2 -16 -16 -9 -21 -15 -26 -29 -21 -9 4 -28 10 -42 13
-14 3 -28 10 -32 15 -3 6 -11 -7 -17 -29 -7 -25 -19 -43 -33 -49 -16 -7 -23
-19 -24 -40 -1 -16 -2 -32 -3 -35 -8 -18 -8 -61 -1 -65 5 -3 4 -18 -1 -34 -7
-18 -6 -37 1 -55 11 -31 6 -46 -16 -46 -20 0 -18 -38 2 -42 14 -2 17 -17 18
-75 1 -72 1 -73 -24 -70 -17 1 -25 -3 -25 -13 0 -11 9 -14 31 -12 34 3 44 -13
44 -71 0 -21 6 -30 20 -34 19 -5 19 -7 -7 -20 -15 -8 -35 -12 -45 -10 -10 3
-21 1 -24 -4 -3 -5 -27 -7 -54 -3 -46 6 -50 5 -61 -20 -7 -14 -20 -26 -31 -26
-30 0 -20 -27 12 -34 17 -3 44 -9 60 -12 52 -11 44 -24 -14 -24 -31 0 -59 1
-62 3 -8 3 -27 -33 -20 -40 3 -3 12 0 20 6 9 8 24 10 38 5 22 -8 22 -8 -7 -15
-21 -5 -11 -7 35 -7 36 0 57 2 48 5 -34 9 -17 18 37 20 44 2 53 0 48 -12 -3
-8 0 -15 6 -15 6 0 11 -5 11 -11 0 -7 -45 -10 -137 -9 -152 1 -374 -8 -382
-15 -2 -3 27 -5 65 -6 63 -1 66 -2 34 -11 -33 -9 -34 -11 -15 -24 19 -14 19
-14 -1 -14 -16 0 -17 -2 -4 -10 10 -7 -31 -10 -126 -10 l-141 0 -1 31 c0 17
-3 34 -6 37 -3 3 -6 -97 -6 -222 l0 -227 48 -51 c77 -84 81 -88 99 -88 23 0
63 -39 56 -56 -4 -10 4 -12 34 -7 21 3 40 7 42 9 10 9 31 -21 31 -42 0 -18 -6
-24 -22 -24 -13 0 -31 -7 -42 -15 -17 -13 -18 -25 -5 -74 2 -8 -3 -16 -11 -18
-20 -5 -37 38 -45 115 -6 54 -10 63 -30 68 -50 12 -95 -30 -95 -89 0 -14 -6
-30 -14 -36 -12 -10 -18 -7 -30 16 -14 26 -15 19 -16 -118 0 -135 2 -147 21
-165 18 -16 20 -28 17 -91 l-3 -73 315 0 c226 0 319 3 328 12 8 8 15 8 25 -1
11 -8 137 -11 482 -9 446 3 468 4 479 22 8 14 8 20 -2 23 -10 4 -10 8 -1 19 7
9 9 31 6 58 -6 42 -5 45 24 55 l31 11 -7 -49 c-11 -80 13 -183 28 -124 4 17 5
17 6 1 1 -17 24 -18 341 -18 l340 0 -3 268 c-2 147 -8 284 -14 304 -8 28 -8
43 2 61 9 17 13 82 14 207 1 161 0 184 -15 195 -18 13 -12 51 6 40 5 -3 10 0
10 8 0 8 -6 14 -12 13 -14 -1 -18 5 -18 29 0 8 7 15 15 15 10 0 15 10 15 29 0
24 -5 30 -25 33 -14 2 -26 8 -26 13 0 6 12 11 26 13 33 4 33 22 -1 22 -14 0
-23 3 -20 8 2 4 -2 15 -9 26 -12 15 -23 17 -82 13 -38 -3 -75 -2 -83 3 -8 5
-19 6 -25 2 -5 -4 -59 -8 -120 -9 -60 -1 -139 -4 -175 -6 -36 -3 -71 0 -77 5
-8 6 -18 7 -25 2 -18 -13 -480 -12 -484 1 -10 28 16 33 211 38 110 2 208 8
218 12 10 4 24 2 32 -5 9 -8 25 -10 42 -5 45 12 135 14 153 5 11 -6 21 -5 27
1 8 8 13 7 17 0 4 -6 18 -11 32 -11 13 0 24 -4 24 -10 0 -5 10 -10 23 -9 18 0
19 2 5 7 -32 13 37 35 80 26 20 -4 55 -8 77 -9 22 -1 45 -3 50 -5 6 -2 38 0
72 4 l61 8 0 50 c1 43 -1 49 -16 42 -9 -4 -35 -8 -57 -10 -22 -1 -30 0 -17 2
26 6 20 24 -8 24 -25 0 -30 19 -36 130 -4 76 -9 99 -25 115 -19 19 -19 19 -20
-20 l-2 -40 -8 45 c-4 25 -8 68 -8 95 -1 46 -3 50 -27 51 -19 2 -24 -2 -20
-13 3 -8 9 -46 12 -84 4 -37 11 -66 15 -63 5 3 9 -2 9 -11 0 -9 -5 -13 -11 -9
-7 4 -9 0 -5 -14 4 -11 2 -23 -4 -27 -5 -3 -10 -14 -10 -24 0 -10 -7 -24 -15
-31 -21 -17 -19 -48 5 -62 45 -28 2 -38 -70 -16 -34 11 -40 17 -45 50 -4 20
-4 41 -1 47 9 14 -48 16 -297 13 l-228 -4 3 -96 3 -97 75 1 c109 1 188 7 168
11 -34 8 -18 23 25 23 39 -1 41 -2 23 -15 -18 -13 2 -15 181 -15 152 0 203 3
206 13 4 10 6 10 6 0 1 -8 17 -13 44 -14 31 0 37 -2 22 -8 -11 -5 -220 -11
-465 -15 -245 -3 -587 -8 -760 -11 -196 -4 -309 -3 -300 3 8 5 172 12 365 16
192 4 351 9 354 12 4 4 5 126 2 181 -1 8 -29 13 -88 16 l-88 3 86 2 c100 2 98
1 92 101 -4 50 -1 67 13 82 17 19 14 19 -177 21 -107 0 -179 3 -161 5 l32 4 0
68 c0 37 -4 81 -9 97 -5 16 -12 42 -16 58 -5 26 -4 28 9 17 12 -10 19 -11 29
-2 30 24 49 -136 26 -219 -3 -13 16 -15 124 -18 l127 -3 0 346 c0 191 -4 345
-9 345 -5 0 -13 -6 -19 -13z m-386 -274 c-11 -11 -19 6 -11 24 8 17 8 17 12 0
3 -10 2 -21 -1 -24z m-56 18 c0 -6 -4 -13 -10 -16 -5 -3 -10 1 -10 9 0 9 5 16
10 16 6 0 10 -4 10 -9z m17 -13 c-3 -8 -6 -5 -6 6 -1 11 2 17 5 13 3 -3 4 -12
1 -19z m103 18 c0 -11 -19 -15 -25 -6 -3 5 1 10 9 10 9 0 16 -2 16 -4z m88
-88 c19 -19 14 -28 -18 -28 -18 0 -30 5 -30 13 0 28 27 36 48 15z m-128 -298
c0 -5 -7 -7 -15 -4 -8 4 -15 8 -15 10 0 2 7 4 15 4 8 0 15 -4 15 -10z m-150
-89 c0 -40 -3 -49 -17 -47 -13 1 -17 -5 -16 -19 4 -27 4 -66 2 -88 -2 -12 -8
-15 -20 -12 -15 5 -18 -1 -22 -37 -3 -39 -4 -37 -5 14 -2 51 0 56 17 51 15 -4
19 0 16 14 -2 10 -4 26 -4 36 -1 9 -8 17 -16 17 -17 0 -35 58 -28 94 5 23 10
26 49 26 l44 0 0 -49z m1267 -53 c-3 -8 -6 -5 -6 6 -1 11 2 17 5 13 3 -3 4
-12 1 -19z m30 -165 c-2 -16 -4 -5 -4 22 0 28 2 40 4 28 2 -13 2 -35 0 -50z
m-1327 7 c0 -5 0 -13 -1 -16 0 -4 5 -10 13 -15 8 -5 15 -2 20 9 4 9 7 -7 7
-37 1 -37 -4 -60 -16 -73 -23 -26 -43 -23 -43 7 0 14 -4 25 -10 25 -5 0 -10 8
-10 18 0 14 2 15 10 2 8 -12 10 -11 10 7 0 12 4 24 10 28 6 4 6 15 0 30 -6 16
-6 25 0 25 6 0 10 -4 10 -10z m1085 -85 c0 -27 -46 -42 -80 -27 -38 17 -32 40
13 45 57 6 67 3 67 -18z m148 -35 c5 -18 0 -20 -39 -20 -42 0 -43 1 -32 20 8
12 24 20 39 20 18 0 28 -6 32 -20z m-875 -17 c-10 -2 -28 -2 -40 0 -13 2 -5 4
17 4 22 1 32 -1 23 -4z m719 1 c-3 -3 -12 -4 -19 -1 -8 3 -5 6 6 6 11 1 17 -2
13 -5z m-936 -96 c4 -5 9 -4 11 4 4 10 30 13 101 13 53 0 98 -3 102 -6 3 -4 3
-13 0 -21 -5 -12 -39 -15 -185 -17 -174 -2 -180 -2 -180 18 0 13 8 21 23 23
36 6 121 -4 128 -14z m-201 -9 c0 -5 -12 -9 -27 -9 -16 1 -35 0 -43 -2 -8 -2
-16 2 -18 7 -1 6 9 10 23 11 14 1 28 4 31 7 8 8 34 -3 34 -14z m-140 -10 c0
-5 -21 -9 -47 -8 l-48 1 35 12 c36 13 60 11 60 -5z m-10 -109 c0 -6 -43 -10
-110 -10 -67 0 -110 4 -110 10 0 6 43 10 110 10 67 0 110 -4 110 -10z m-20
-90 c0 -19 -7 -20 -91 -20 -68 0 -90 3 -87 13 3 8 35 14 89 18 46 3 85 6 87 7
1 1 2 -7 2 -18z m-490 -30 c0 -5 -9 -10 -21 -10 -11 0 -17 5 -14 10 3 6 13 10
21 10 8 0 14 -4 14 -10z m916 -33 c8 -4 14 -16 14 -25 0 -9 19 -37 41 -62 22
-25 59 -66 82 -91 80 -89 122 -150 140 -201 15 -46 15 -53 2 -61 -8 -4 -15
-22 -15 -39 0 -39 -17 -26 -22 16 -2 17 -14 37 -30 49 -25 19 -28 19 -52 4
-28 -19 -40 -22 -31 -8 3 5 1 12 -4 16 -6 3 -15 -4 -21 -16 -14 -25 -24 -18
-15 10 3 12 13 21 21 21 8 0 13 4 9 9 -3 5 -16 8 -29 5 -15 -2 -26 2 -29 10
-3 8 -27 19 -54 24 -26 6 -55 13 -64 17 -10 4 -19 -3 -27 -20 -13 -27 -17 -83
-5 -72 3 4 12 2 20 -4 7 -7 23 -12 35 -13 17 -1 25 -12 37 -48 10 -34 20 -48
33 -48 10 0 18 -4 18 -10 0 -5 -24 0 -52 11 -29 12 -60 23 -68 26 -37 12 -80
39 -80 49 0 7 11 49 24 95 13 46 36 134 50 194 47 190 50 199 54 184 3 -7 11
-18 18 -22z m-426 -12 c0 -13 -14 -16 -85 -14 -62 2 -85 6 -85 16 0 10 21 13
85 13 70 0 85 -3 85 -15z m-60 -89 c12 -22 13 -28 2 -35 -14 -8 13 -61 79
-158 16 -23 29 -44 29 -47 0 -3 16 -29 36 -56 36 -50 37 -50 51 -30 9 13 23
20 36 18 18 -2 21 -9 19 -36 -3 -31 -2 -32 24 -26 20 5 31 2 40 -11 12 -16 11
-21 -3 -37 -15 -17 -15 -18 11 -18 32 0 79 -43 74 -68 -3 -13 -14 -17 -51 -17
-52 0 -51 1 -41 -39 5 -22 3 -32 -11 -43 -23 -16 -49 -17 -39 -2 12 20 23 84
18 104 -3 12 -14 27 -25 33 -18 12 -19 11 -10 -7 15 -27 14 -31 -8 -31 -11 0
-23 -4 -26 -10 -10 -17 -19 -11 -43 28 -15 25 -35 42 -55 48 -30 8 -32 12 -33
54 -1 61 -1 63 -24 88 -28 30 -46 28 -82 -8 -16 -16 -34 -30 -39 -30 -5 0 -9
-5 -9 -10 0 -12 -48 -3 -67 13 -9 6 -15 5 -19 -6 -4 -11 -15 -14 -45 -10 -33
5 -39 3 -40 -13 0 -11 -3 -14 -6 -6 -2 6 -11 12 -19 12 -14 0 -27 35 -24 61 2
8 2 22 1 33 -1 17 -3 17 -23 4 -13 -9 -23 -26 -23 -39 0 -14 -6 -24 -15 -24
-8 0 -20 -4 -26 -8 -14 -8 -24 14 -24 54 0 16 -7 45 -15 65 -13 31 -13 36 0
41 21 7 44 -3 52 -24 14 -41 24 -43 55 -13 31 31 59 37 102 20 20 -7 26 -17
26 -39 0 -16 4 -32 8 -35 9 -5 25 25 67 124 76 180 85 190 115 136z m1468 -69
c15 -41 15 -57 2 -57 -5 0 -10 11 -10 25 0 14 -8 29 -20 35 -11 6 -18 15 -15
21 12 19 31 8 43 -24z m-507 -102 c3 -22 9 -50 13 -62 6 -19 4 -23 -14 -23
-20 0 -22 4 -18 45 2 31 -1 45 -9 45 -7 0 -13 9 -13 21 0 14 5 19 18 17 11 -2
19 -16 23 -43z m642 -11 c-3 -7 -8 -12 -12 -10 -4 3 -13 1 -20 -3 -11 -7 -11
-22 -1 -82 6 -41 19 -88 27 -105 15 -29 15 -33 0 -48 -19 -20 -27 -20 -27 -1
0 11 -13 13 -66 10 l-65 -4 -15 35 c-13 31 -13 36 2 51 13 14 21 15 47 5 17
-6 33 -10 35 -7 3 2 6 23 7 47 4 77 53 160 80 138 8 -6 11 -18 8 -26z m-362
-41 c-10 -17 -10 -16 -11 3 0 23 13 41 18 25 2 -6 -1 -18 -7 -28z m-155 -57
c-3 -46 -9 -91 -12 -100 -5 -12 1 -15 30 -14 20 1 39 5 42 10 3 4 10 6 15 3
17 -11 9 -30 -21 -47 -18 -10 -30 -25 -30 -38 0 -11 -6 -20 -14 -20 -19 0 -29
17 -16 25 5 3 10 12 10 18 0 7 -12 0 -25 -16 -19 -22 -23 -34 -18 -60 3 -17 9
-34 13 -37 10 -8 20 -40 12 -40 -22 1 -52 41 -52 68 0 17 -5 43 -11 59 -7 20
-7 29 2 32 8 2 7 6 -2 12 -12 7 -12 12 -1 29 10 17 10 25 1 36 -9 11 -8 14 3
14 8 0 19 10 25 23 45 94 47 107 17 107 -8 0 -14 5 -14 10 0 6 12 10 26 10
l27 0 -7 -84z m154 27 c0 -14 -19 -38 -25 -32 -8 8 5 39 16 39 5 0 9 -3 9 -7z
m-789 -30 c-8 -15 -10 -15 -11 -2 0 17 10 32 18 25 2 -3 -1 -13 -7 -23z m919
-5 c1 -7 3 -34 5 -60 2 -26 0 -50 -4 -52 -12 -8 -71 14 -71 25 0 5 5 9 10 9 6
0 10 9 10 20 0 38 49 94 50 58z m340 -10 c11 -12 17 -24 14 -27 -3 -3 -8 -1
-12 5 -4 6 -20 18 -37 27 -27 14 -28 16 -8 17 12 0 31 -10 43 -22z m-2 -45
c18 -36 21 -68 6 -87 -14 -19 -14 -19 -34 2 -12 12 -25 22 -29 22 -11 0 -9 50
2 68 12 18 45 15 55 -5z m-1119 -29 c8 5 41 -35 41 -49 0 -11 -57 2 -83 19
-21 14 -25 22 -16 32 8 10 16 11 30 3 11 -5 23 -8 28 -5z m215 -9 c3 -8 1 -15
-4 -15 -6 0 -10 7 -10 15 0 8 2 15 4 15 2 0 6 -7 10 -15z m-755 -95 c6 -20 11
-48 11 -61 0 -31 -38 -69 -70 -69 -15 0 -30 -3 -34 -7 -4 -5 -26 -8 -49 -8
-24 0 -41 -5 -43 -13 -1 -7 0 -8 3 -2 8 16 23 12 17 -5 -4 -9 -19 -15 -36 -15
-17 0 -27 -4 -23 -10 8 -13 -31 -13 -56 0 -31 17 -23 44 19 63 21 9 48 17 60
17 12 0 22 4 22 9 0 16 32 22 48 9 12 -10 16 -10 19 0 3 6 17 12 33 12 15 0
30 6 33 14 10 25 -5 127 -19 133 -7 2 -10 11 -7 20 8 21 57 -38 72 -87z m1161
74 c0 -14 -4 -23 -9 -20 -5 3 -7 15 -4 26 7 28 13 25 13 -6z m235 -34 c3 -5
17 -10 31 -10 14 0 22 -4 19 -10 -11 -18 -54 -11 -65 10 -11 20 3 30 15 10z
m-1536 -42 c14 -24 14 -28 -3 -47 -24 -27 -44 -26 -80 4 -29 23 -29 24 -12 50
23 36 74 32 95 -7z m1078 26 c-3 -3 -12 -4 -19 -1 -8 3 -5 6 6 6 11 1 17 -2
13 -5z m-1292 -14 c-3 -5 -14 -10 -23 -10 -15 0 -15 2 -2 10 20 13 33 13 25 0z
m945 -41 c0 -11 -4 -17 -10 -14 -5 3 -10 15 -10 26 0 11 5 17 10 14 6 -3 10
-15 10 -26z m282 -18 c-9 -5 -11 -17 -6 -36 5 -21 4 -27 -7 -23 -8 2 -15 18
-17 35 -2 24 1 32 15 35 23 5 31 -1 15 -11z m-1242 -25 c6 -8 18 -39 26 -68
17 -63 16 -58 5 -58 -12 0 -72 120 -65 131 8 13 20 11 34 -5z m975 -31 c0 -11
-6 -19 -13 -17 -8 1 -16 -7 -19 -18 -6 -24 -16 -25 -37 -4 -20 19 -20 19 2 44
22 27 67 23 67 -5z m1075 12 c0 -7 -19 -18 -42 -24 -63 -17 -95 2 -40 24 39
16 82 16 82 0z m-1235 -28 c-11 -4 -32 -8 -46 -8 -14 -1 -34 -8 -45 -16 -21
-16 -44 -20 -44 -7 0 16 57 37 105 38 33 1 43 -1 30 -7z m1280 -3 c12 -12 12
-15 -1 -20 -9 -3 -22 -6 -30 -6 -12 0 -12 4 -2 20 15 24 16 24 33 6z m-1438
-78 c-3 -8 -6 -5 -6 6 -1 11 2 17 5 13 3 -3 4 -12 1 -19z m-477 -39 c0 -5 -9
-9 -20 -9 -11 0 -20 6 -20 14 0 9 7 12 20 9 11 -3 20 -9 20 -14z m127 -31 c-3
-7 -5 -2 -5 12 0 14 2 19 5 13 2 -7 2 -19 0 -25z m159 -95 c-10 -10 -19 5 -10
18 6 11 8 11 12 0 2 -7 1 -15 -2 -18z m-266 7 c0 -5 -5 -10 -11 -10 -5 0 -7 5
-4 10 3 6 8 10 11 10 2 0 4 -4 4 -10z"/>
<path d="M3615 740 c-6 -9 11 -50 20 -50 3 0 5 14 5 30 0 29 -13 40 -25 20z"/>
<path d="M3265 539 c-4 -6 -3 -15 3 -21 6 -6 11 -4 15 6 7 18 -9 31 -18 15z"/>
<path d="M3434 2405 c-18 -43 -18 -44 4 -45 48 -2 70 -5 66 -9 -4 -4 76 -29
96 -31 3 0 6 8 7 18 1 9 4 27 8 40 5 14 3 22 -4 22 -6 0 -11 -9 -11 -19 0 -11
-4 -23 -10 -26 -6 -4 -10 7 -10 24 0 37 -12 40 -33 9 l-15 -23 5 25 c4 22 -1
27 -29 38 -50 18 -58 16 -74 -23z m49 -13 c-3 -12 -9 -19 -14 -16 -5 3 -4 14
2 25 13 26 20 21 12 -9z"/>
<path d="M3630 2350 c-7 -17 -10 -33 -6 -37 9 -9 15 0 26 36 11 40 -4 41 -20
1z"/>
<path d="M3665 2370 c-3 -5 -2 -16 1 -25 4 -10 1 -21 -7 -25 -11 -7 -10 -10 5
-16 20 -8 39 13 31 34 -2 6 0 12 5 12 6 0 10 4 10 9 0 12 -39 21 -45 11z"/>
<path d="M3725 2350 c-3 -5 -4 -10 0 -10 3 0 1 -9 -5 -19 -6 -12 -6 -22 -1
-25 5 -3 12 5 15 19 4 14 11 25 16 25 12 0 12 -3 1 -32 -8 -21 -6 -23 30 -24
62 -2 56 42 -8 67 -31 12 -40 11 -48 -1z"/>
<path d="M4622 2310 c0 -14 2 -19 5 -12 2 6 2 18 0 25 -3 6 -5 1 -5 -13z"/>
<path d="M4795 2283 c-61 -6 -63 -20 -4 -18 30 1 55 7 57 13 2 7 0 11 -5 10
-4 -1 -26 -3 -48 -5z"/>
<path d="M2940 2260 c-33 -7 -32 -7 15 -8 28 0 61 4 75 8 21 7 19 8 -15 8 -22
0 -56 -4 -75 -8z"/>
<path d="M3078 2253 c6 -2 18 -2 25 0 6 3 1 5 -13 5 -14 0 -19 -2 -12 -5z"/>
<path d="M521 2224 c0 -11 3 -14 6 -6 3 7 2 16 -1 19 -3 4 -6 -2 -5 -13z"/>
<path d="M2768 2233 c23 -2 59 -2 80 0 20 2 1 4 -43 4 -44 0 -61 -2 -37 -4z"/>
<path d="M4628 2197 c-3 -13 -1 -32 3 -43 5 -13 8 -7 8 24 1 46 -4 55 -11 19z"/>
<path d="M2950 2091 c0 -8 90 -3 99 5 2 2 -19 4 -47 4 -29 0 -52 -4 -52 -9z"/>
<path d="M4631 1984 c0 -60 4 -118 9 -129 6 -12 7 28 3 105 -3 69 -7 127 -9
129 -2 2 -4 -45 -3 -105z"/>
<path d="M2420 1607 l0 -244 25 5 25 4 -2 237 -3 236 -22 3 -23 3 0 -244z"/>
<path d="M3930 1820 c0 -5 5 -10 10 -10 6 0 10 5 10 10 0 6 -4 10 -10 10 -5 0
-10 -4 -10 -10z"/>
<path d="M1891 1804 c0 -11 3 -14 6 -6 3 7 2 16 -1 19 -3 4 -6 -2 -5 -13z"/>
<path d="M300 1801 c-37 -6 -26 -8 60 -12 58 -2 107 -3 109 -1 20 12 -110 22
-169 13z"/>
<path d="M2744 1795 c3 -9 6 -21 6 -26 0 -12 26 -11 69 2 20 7 42 14 50 16 23
6 9 10 -63 18 -62 6 -68 5 -62 -10z"/>
<path d="M210 1780 c-12 -8 -11 -10 8 -10 12 0 22 5 22 10 0 13 -11 13 -30 0z"/>
<path d="M2020 1780 c-29 -6 -24 -7 30 -8 36 0 74 3 85 8 25 11 -63 11 -115 0z"/>
<path d="M143 1773 c9 -2 23 -2 30 0 6 3 -1 5 -18 5 -16 0 -22 -2 -12 -5z"/>
<path d="M518 1715 c-1 -30 0 -55 5 -55 4 0 7 25 7 55 0 71 -7 71 -12 0z"/>
<path d="M2323 1763 c15 -2 39 -2 55 0 15 2 2 4 -28 4 -30 0 -43 -2 -27 -4z"/>
<path d="M4810 1750 c0 -5 4 -10 9 -10 6 0 13 5 16 10 3 6 -1 10 -9 10 -9 0
-16 -4 -16 -10z"/>
<path d="M2940 1724 c0 -8 5 -12 10 -9 6 3 10 10 10 16 0 5 -4 9 -10 9 -5 0
-10 -7 -10 -16z"/>
<path d="M1892 1700 c0 -19 2 -27 5 -17 2 9 2 25 0 35 -3 9 -5 1 -5 -18z"/>
<path d="M348 1703 c6 -2 18 -2 25 0 6 3 1 5 -13 5 -14 0 -19 -2 -12 -5z"/>
<path d="M1925 1699 c-11 -17 -2 -18 19 -3 17 12 17 14 4 14 -9 0 -20 -5 -23
-11z"/>
<path d="M368 1673 c12 -2 30 -2 40 0 9 3 -1 5 -23 4 -22 0 -30 -2 -17 -4z"/>
<path d="M2070 1660 c-12 -8 -10 -10 8 -10 13 0 20 4 17 10 -7 12 -6 12 -25 0z"/>
<path d="M205 1640 c28 -12 47 -12 40 0 -3 6 -18 10 -33 9 -24 0 -25 -1 -7 -9z"/>
<path d="M319 1641 c7 -5 43 -9 79 -9 43 0 61 3 51 9 -8 5 -43 9 -79 9 -41 0
-60 -4 -51 -9z"/>
<path d="M1890 1507 c0 -90 4 -137 11 -137 7 0 8 41 3 133 -3 72 -8 134 -10
136 -2 2 -4 -57 -4 -132z"/>
<path d="M2050 1630 c0 -6 19 -7 48 -3 64 8 66 13 4 13 -29 0 -52 -4 -52 -10z"/>
<path d="M521 1604 c0 -11 3 -14 6 -6 3 7 2 16 -1 19 -3 4 -6 -2 -5 -13z"/>
<path d="M4510 1610 c0 -5 5 -10 10 -10 6 0 10 5 10 10 0 6 -4 10 -10 10 -5 0
-10 -4 -10 -10z"/>
<path d="M193 1603 c9 -2 25 -2 35 0 9 3 1 5 -18 5 -19 0 -27 -2 -17 -5z"/>
<path d="M4830 1581 c0 -6 5 -13 10 -16 6 -3 10 1 10 9 0 9 -4 16 -10 16 -5 0
-10 -4 -10 -9z"/>
<path d="M13 1573 c9 -2 25 -2 35 0 9 3 1 5 -18 5 -19 0 -27 -2 -17 -5z"/>
<path d="M2318 1563 c18 -2 45 -2 60 0 15 2 0 4 -33 4 -33 0 -45 -2 -27 -4z"/>
<path d="M2940 1562 c0 -10 22 -32 32 -32 4 0 8 9 8 20 0 13 -7 20 -20 20 -11
0 -20 -4 -20 -8z"/>
<path d="M2097 1403 c-15 -14 -5 -18 38 -15 25 2 42 8 39 13 -6 10 -67 12 -77
2z"/>
<path d="M107 1374 c-10 -11 -9 -42 3 -49 14 -8 120 23 120 35 0 6 -13 10 -29
10 -16 0 -41 3 -57 6 -16 3 -32 2 -37 -2z"/>
<path d="M295 1299 c-4 -6 -3 -15 3 -21 6 -6 11 -4 15 6 7 18 -9 31 -18 15z"/>
<path d="M420 1295 c0 -16 16 -20 24 -6 3 5 -1 11 -9 15 -9 3 -15 0 -15 -9z"/>
<path d="M2190 1296 c0 -8 5 -18 10 -21 6 -3 10 1 10 9 0 8 -4 18 -10 21 -5 3
-10 -1 -10 -9z"/>
<path d="M2070 1291 c0 -6 5 -13 10 -16 6 -3 10 1 10 9 0 9 -4 16 -10 16 -5 0
-10 -4 -10 -9z"/>
<path d="M2558 1183 c7 -3 16 -2 19 1 4 3 -2 6 -13 5 -11 0 -14 -3 -6 -6z"/>
<path d="M308 1142 c-22 -4 -22 -11 -3 -36 18 -23 28 -17 23 16 -2 16 -8 22
-20 20z"/>
<path d="M2187 1144 c-4 -4 -7 -16 -7 -27 0 -13 5 -17 16 -13 9 3 20 6 25 6 5
0 9 5 9 10 0 6 -6 10 -14 10 -8 0 -16 5 -18 11 -2 5 -7 7 -11 3z"/>
<path d="M400 1122 c0 -30 14 -34 33 -11 9 10 13 19 8 19 -5 0 -16 3 -25 6
-11 4 -16 0 -16 -14z"/>
<path d="M2087 1132 c-14 -3 -16 -7 -6 -18 15 -18 39 -18 39 0 0 18 -10 24
-33 18z"/>
<path d="M2210 989 c0 -5 5 -7 10 -4 6 3 10 8 10 11 0 2 -4 4 -10 4 -5 0 -10
-5 -10 -11z"/>
<path d="M280 980 c0 -5 5 -10 10 -10 6 0 10 5 10 10 0 6 -4 10 -10 10 -5 0
-10 -4 -10 -10z"/>
<path d="M2176 969 c12 -13 20 -16 22 -9 3 7 -2 16 -9 21 -25 16 -32 9 -13
-12z"/>
<path d="M2235 920 c3 -5 10 -10 16 -10 5 0 9 5 9 10 0 6 -7 10 -16 10 -8 0
-12 -4 -9 -10z"/>
<path d="M2420 579 c0 -60 3 -80 13 -77 6 3 14 24 17 49 3 24 9 49 12 55 8 12
-18 54 -33 54 -5 0 -9 -36 -9 -81z"/>
<path d="M2392 560 c0 -19 2 -27 5 -17 2 9 2 25 0 35 -3 9 -5 1 -5 -18z"/>
<path d="M2242 535 c-7 -14 -12 -30 -12 -35 0 -12 119 -90 137 -90 7 0 13 -7
13 -15 0 -8 5 -15 11 -15 15 0 6 97 -10 113 -8 8 -15 6 -26 -9 -16 -19 -16
-19 -10 2 4 15 -1 24 -20 34 -14 7 -25 17 -25 22 0 5 -4 7 -9 3 -5 -3 -12 -1
-16 5 -10 17 -21 12 -33 -15z m52 -39 c-3 -9 -10 -16 -15 -16 -6 0 -5 9 1 21
13 24 24 20 14 -5z"/>
<path d="M1917 523 c-4 -3 -7 -16 -6 -27 0 -19 1 -19 10 3 10 24 8 36 -4 24z"/>
<path d="M1225 307 c-3 -9 -7 -24 -10 -32 -4 -13 3 -16 33 -15 9 1 3 42 -9 54
-5 6 -10 3 -14 -7z"/>
<path d="M1280 293 c0 -15 29 -49 30 -35 0 7 -7 20 -15 28 -8 9 -15 11 -15 7z"/>
<path d="M1317 246 c-6 -14 3 -25 33 -41 12 -6 13 -5 3 6 -7 7 -13 21 -13 31
0 21 -16 24 -23 4z"/>
<path d="M2420 71 c0 -45 4 -71 11 -71 7 0 9 10 5 26 -4 14 -2 32 4 39 6 7 8
25 4 39 -13 52 -24 36 -24 -33z"/>
<path d="M1538 3 c6 -2 18 -2 25 0 6 3 1 5 -13 5 -14 0 -19 -2 -12 -5z"/>
</g>
</svg>
