<?xml version="1.0" standalone="no"?>
<!DOCTYPE svg PUBLIC "-//W3C//DTD SVG 20010904//EN"
 "http://www.w3.org/TR/2001/REC-SVG-20010904/DTD/svg10.dtd">
<svg version="1.0" xmlns="http://www.w3.org/2000/svg"
 width="500.000000pt" height="300.000000pt" viewBox="0 0 500.000000 300.000000"
 preserveAspectRatio="xMidYMid meet">

<g transform="translate(0.000000,300.000000) scale(0.100000,-0.100000)"
fill="#000000" stroke="none">
<path d="M2 1498 c0 -827 3 -1489 5 -1472 4 29 6 31 41 28 38 -3 360 -14 421
-14 25 0 32 -4 27 -15 -3 -8 -4 -15 -3 -15 1 0 18 6 37 13 54 18 370 11 370
-8 0 -12 22 -15 119 -15 l119 0 6 28 c3 15 10 72 16 127 24 212 83 454 136
557 18 35 260 264 373 351 102 81 239 179 268 192 22 11 36 28 49 60 27 73 35
61 58 -86 18 -109 85 -321 101 -315 6 2 22 -5 36 -15 13 -10 31 -19 40 -19 9
0 22 -6 28 -14 7 -8 44 -16 94 -20 91 -8 165 -24 185 -39 17 -14 44 13 100 96
24 38 55 75 67 83 12 8 31 31 41 51 10 21 31 55 47 77 15 21 27 47 27 57 0 9
5 19 12 21 8 3 6 11 -5 29 -18 28 -47 138 -47 177 0 15 -9 42 -20 60 -22 36
-17 66 6 34 10 -15 34 -23 86 -31 40 -6 105 -16 143 -22 68 -10 154 -29 225
-50 19 -5 58 -14 85 -19 142 -25 234 -73 287 -151 33 -48 108 -188 108 -202 0
-5 208 -431 383 -787 l82 -165 6 55 c3 30 2 72 -3 93 -7 32 -5 43 14 67 13 16
28 29 34 29 7 1 14 8 18 16 8 23 21 18 36 -12 8 -18 14 -75 15 -158 2 -90 1
-109 -4 -60 l-6 70 -8 -64 c-11 -96 -10 -98 21 -99 l27 -1 -3 86 c-3 83 -3 86
17 80 14 -3 21 0 21 8 0 29 21 25 35 -7 13 -31 14 -31 15 -8 0 14 -9 58 -20
98 -11 39 -20 74 -20 76 0 12 86 27 119 21 48 -8 111 -35 112 -49 1 -6 4 5 8
24 l6 35 203 -2 202 -3 0 219 0 218 -247 7 c-136 4 -294 7 -351 7 l-104 -1 6
42 c14 107 17 333 7 558 -18 383 -36 496 -108 647 -29 62 -161 114 -333 132
-47 5 -242 7 -434 4 -410 -6 -512 -1 -519 28 -3 11 -14 19 -25 19 -11 0 -27 7
-36 15 -8 8 -22 15 -30 15 -13 0 -16 14 -17 78 0 42 -4 100 -10 127 -21 110
-22 125 -10 125 6 0 11 -4 11 -10 0 -16 35 -47 48 -42 7 2 15 -4 18 -13 4 -9
17 -21 30 -26 13 -4 24 -15 24 -23 0 -10 6 -13 15 -10 9 4 15 0 15 -10 0 -14
63 -16 650 -16 l650 0 10 26 c6 14 10 137 10 275 l0 249 -235 0 c-176 0 -235
-3 -235 -12 0 -9 -3 -9 -12 0 -8 8 -55 12 -144 12 -124 0 -133 -1 -139 -20 -4
-11 -10 -18 -15 -15 -5 3 -7 12 -3 20 4 12 -7 15 -65 15 -39 0 -74 -5 -77 -10
-5 -8 -11 -8 -20 0 -21 17 -275 11 -275 -6 0 -8 -4 -14 -10 -14 -5 0 -10 7
-10 15 0 23 -217 20 -223 -4 -4 -14 -5 -14 -6 2 -2 27 -75 24 -95 -4 -11 -17
-21 -20 -44 -14 -25 5 -33 2 -50 -23 -37 -51 -37 -73 2 -132 20 -30 33 -56 30
-59 -3 -3 -10 2 -15 12 -6 9 -23 24 -40 32 -24 13 -28 20 -23 41 9 36 -20 66
-53 53 -36 -13 -63 -11 -57 5 7 19 -83 106 -110 106 -3 0 -6 -7 -6 -15 0 -22
30 -66 41 -59 5 3 9 1 9 -4 0 -21 -72 -30 -99 -13 -8 5 -11 16 -8 25 7 18 27
22 27 6 0 -5 5 -10 10 -10 14 0 12 32 -4 53 -14 18 -41 23 -50 8 -7 -11 -9
-47 -4 -75 2 -14 -4 -19 -29 -21 l-33 -3 24 28 c16 20 22 37 19 54 -5 22 -11
26 -39 26 -25 0 -34 -4 -34 -16 0 -9 -10 -26 -23 -38 -21 -20 -27 -21 -67 -9
-48 14 -72 5 -52 -20 9 -10 9 -16 0 -25 -22 -22 -38 -12 -44 28 -4 22 -11 43
-17 47 -9 6 -30 -15 -41 -41 -7 -17 -26 15 -26 45 l0 27 -90 1 c-79 2 -89 0
-83 -14 4 -12 13 -15 29 -11 33 9 30 -9 -6 -46 -27 -27 -31 -28 -46 -14 -8 9
-18 32 -21 51 l-6 35 -548 0 c-476 0 -549 -2 -549 -15 0 -8 -6 -12 -14 -9 -8
3 -16 -4 -19 -17 -4 -14 -11 -20 -21 -16 -11 5 -18 -3 -24 -25 -9 -38 -32 -50
-32 -17 0 13 -17 37 -42 61 l-41 38 -194 0 -193 0 2 -1502z m3268 1476 c0 -8
-4 -12 -10 -9 -5 3 -10 10 -10 16 0 5 5 9 10 9 6 0 10 -7 10 -16z m-2520 -4
c0 -5 -4 -10 -9 -10 -6 0 -13 5 -16 10 -3 6 1 10 9 10 9 0 16 -4 16 -10z m-82
-12 c7 -7 12 -22 12 -35 0 -16 6 -23 20 -23 12 0 20 -7 20 -17 1 -17 1 -17 11
0 12 21 29 13 29 -13 0 -14 -6 -18 -25 -14 -21 4 -27 -1 -35 -23 -6 -16 -15
-36 -21 -47 -6 -10 -8 -35 -4 -57 4 -25 3 -39 -4 -39 -6 0 -11 19 -11 44 0 47
-16 70 -26 39 -29 -86 -39 -103 -66 -103 -30 0 -48 23 -48 62 0 13 -7 32 -15
42 -17 23 -19 54 -5 76 9 13 11 13 20 0 8 -13 10 -13 10 1 0 9 13 26 30 39 16
12 28 26 25 30 -2 4 3 16 11 28 17 24 53 29 72 10z m327 -67 c3 -16 16 -33 30
-39 14 -7 25 -19 25 -27 0 -18 -13 -13 -47 18 l-23 20 0 -29 c0 -16 -4 -24 -8
-18 -16 24 -42 24 -54 -1 -13 -29 -28 -24 -28 10 0 13 -5 25 -12 27 -8 3 -4
15 12 36 20 24 33 31 62 31 32 1 37 -2 43 -28z m1135 -6 c0 -8 -4 -15 -10 -15
-5 0 -7 7 -4 15 4 8 8 15 10 15 2 0 4 -7 4 -15z m-1018 -47 c11 -33 21 -43 51
-53 20 -7 37 -10 37 -7 0 3 5 1 12 -6 9 -9 9 -15 0 -24 -7 -7 -12 -21 -12 -33
0 -25 -70 -124 -87 -125 -7 0 -18 -9 -25 -20 -8 -12 -24 -20 -40 -20 -29 0
-38 17 -14 26 12 5 11 9 -5 25 -16 16 -17 22 -7 39 11 18 14 18 24 5 9 -12 14
-12 29 -1 25 18 22 133 -6 193 -24 52 -24 51 6 46 18 -4 28 -16 37 -45z m1379
-21 c16 -17 28 -35 29 -39 0 -14 -21 -8 -26 7 -4 8 -16 15 -28 15 -20 0 -66
40 -66 56 0 18 67 -10 91 -39z m-1625 -29 c4 -21 10 -38 15 -38 5 0 9 -7 9
-15 0 -21 -18 -19 -32 5 -7 11 -17 20 -22 20 -14 0 2 -59 24 -90 27 -39 25
-48 -5 -20 -14 13 -25 19 -25 12 0 -15 52 -50 67 -45 7 3 9 -3 6 -18 -6 -20
-3 -21 31 -17 39 4 43 -7 9 -29 -18 -12 -23 -12 -37 3 -9 9 -37 18 -63 21 -44
4 -46 4 -41 -20 3 -17 -3 -34 -18 -52 -25 -29 -22 -61 7 -70 24 -8 23 -14 -1
-45 -16 -21 -20 -22 -20 -7 0 20 -11 18 -77 -9 -23 -9 -31 -18 -27 -28 8 -21
-6 -20 -22 2 -13 16 -15 16 -25 -1 -7 -12 -15 -15 -26 -8 -23 12 -103 -16
-103 -37 0 -20 39 -62 57 -62 11 0 13 -10 7 -45 -5 -37 -3 -46 11 -51 13 -5
16 -14 11 -38 -5 -29 -5 -30 9 -12 20 26 30 14 42 -51 8 -42 7 -57 -4 -73 -11
-16 -11 -20 -1 -20 7 0 13 -12 14 -27 0 -16 4 -36 9 -46 6 -14 3 -20 -13 -24
-12 -3 -18 -11 -15 -19 4 -10 10 -11 24 -3 24 12 24 2 -1 -38 -17 -29 -18 -33
-4 -33 13 0 15 -8 11 -37 -3 -21 -8 -48 -12 -61 -7 -22 -6 -23 27 -17 30 6 38
3 56 -20 19 -24 20 -29 6 -42 -8 -9 -13 -22 -10 -29 3 -8 9 -21 12 -29 4 -10
-8 -29 -34 -53 -22 -20 -48 -53 -57 -72 -10 -19 -27 -45 -38 -57 -11 -13 -15
-23 -9 -23 7 0 12 6 13 13 0 9 2 9 6 -1 3 -7 -2 -34 -11 -60 -69 -209 -86
-279 -83 -357 l2 -39 -235 2 c-129 2 -243 5 -252 8 -17 5 -18 53 -18 816 l0
810 98 -5 c53 -4 177 -7 275 -9 l177 -3 0 23 c0 13 14 36 32 53 18 16 29 29
24 29 -5 0 -1 9 9 20 14 15 21 17 32 9 10 -9 13 -7 13 9 0 17 6 20 33 19 17 0
39 1 47 4 9 2 16 -4 18 -18 5 -30 22 -29 22 1 0 15 7 26 19 29 16 4 18 12 13
55 -6 63 3 99 23 99 10 0 17 -14 21 -39z m93 -35 c1 -23 -4 -33 -14 -33 -11 0
-15 11 -15 43 0 75 28 65 29 -10z m811 57 c21 -7 20 -8 -12 -7 -21 1 -38 5
-38 10 0 9 17 8 50 -3z m-1013 -8 c10 -6 8 -17 -7 -45 -11 -20 -20 -44 -20
-52 0 -20 -17 -19 -28 3 -6 11 -3 31 10 60 19 43 24 47 45 34z m45 -68 c-6
-35 -12 -29 -12 14 0 23 3 32 9 24 4 -7 6 -24 3 -38z m219 1 c5 4 6 -1 3 -10
-4 -9 -15 -15 -28 -13 -16 2 -22 11 -24 38 l-2 35 21 -28 c11 -15 25 -25 30
-22z m399 -69 c-1 -21 -1 -21 -20 3 -11 12 -17 27 -14 33 9 14 34 -12 34 -36z
m-92 -1 c2 -2 -2 -13 -8 -25 -9 -16 -9 -29 -2 -45 14 -30 3 -39 -20 -18 -20
18 -24 48 -6 59 8 5 6 11 -6 20 -26 18 -11 37 17 23 12 -7 23 -13 25 -14z m20
-6 c-3 -8 -7 -3 -11 10 -4 17 -3 21 5 13 5 -5 8 -16 6 -23z m1092 -11 c0 -10
7 -21 15 -24 8 -3 17 -14 20 -25 4 -10 13 -19 21 -19 10 0 14 -13 14 -44 0
-25 5 -48 10 -51 6 -3 10 -15 10 -26 0 -10 5 -19 10 -19 6 0 10 5 10 10 0 5 6
9 13 7 7 -1 12 10 12 30 0 26 2 29 14 20 12 -10 14 -9 9 3 -3 8 -2 24 2 35 l8
20 7 -20 c3 -11 11 -28 16 -37 13 -26 11 -39 -8 -54 -11 -8 -13 -13 -5 -14 6
0 12 -6 12 -13 0 -8 9 -22 21 -33 22 -19 49 -76 49 -101 0 -12 -3 -12 -16 1
-8 9 -21 16 -27 15 -9 0 -8 -2 1 -6 6 -2 12 -9 12 -15 0 -6 -8 -4 -18 5 -10
10 -22 14 -26 10 -4 -5 -7 -1 -5 7 1 8 -3 28 -9 43 -7 16 -12 32 -12 37 0 19
-28 16 -49 -6 -13 -13 -31 -24 -40 -24 -9 0 -28 -6 -43 -14 -15 -8 -39 -17
-55 -21 -52 -11 -68 -31 -69 -88 -1 -29 7 -79 17 -112 17 -54 25 -64 72 -95
28 -19 62 -38 74 -42 26 -7 63 0 63 13 0 5 -7 6 -15 3 -8 -4 -15 -2 -15 4 0 5
18 17 40 26 24 9 44 26 49 39 9 23 39 54 50 50 25 -8 26 -136 0 -231 -24 -92
-39 -118 -73 -124 -27 -5 -58 22 -116 100 -21 29 -61 47 -45 22 4 -6 4 -18 1
-26 -5 -12 -10 -13 -28 -3 -29 16 -125 12 -160 -6 -30 -14 -42 -7 -32 19 3 9
1 16 -4 16 -6 0 -27 -27 -47 -60 -20 -33 -41 -60 -46 -60 -6 0 -7 -4 -4 -10 4
-6 -5 -10 -19 -10 -18 0 -26 -5 -26 -17 0 -10 -11 -2 -30 23 -39 51 -72 159
-68 220 3 55 24 69 38 27 10 -26 14 -28 76 -31 52 -2 72 1 98 18 19 11 41 20
51 20 10 0 16 3 12 6 -3 4 0 12 8 20 7 7 16 37 20 66 4 29 14 63 22 75 15 22
14 23 -11 23 -20 0 -27 6 -32 28 -3 15 -7 32 -9 39 -7 21 -49 42 -105 53 -64
12 -69 16 -45 34 12 8 16 19 11 31 -4 11 0 25 10 36 12 13 13 22 5 37 -6 10
-11 35 -13 55 -2 30 4 41 38 71 36 32 43 35 86 30 27 -3 49 -1 53 6 3 5 11 8
16 5 5 -4 19 1 31 9 12 9 30 16 39 16 9 0 19 10 22 22 5 18 8 19 21 8 9 -7 16
-21 16 -32z m-1510 2 c0 -5 -4 -10 -10 -10 -5 0 -10 5 -10 10 0 6 5 10 10 10
6 0 10 -4 10 -10z m1633 -18 c18 -20 19 -62 1 -62 -11 0 -34 49 -34 71 0 15
16 10 33 -9z m100 -8 c21 -19 25 -29 17 -39 -8 -9 -8 -14 1 -17 7 -2 10 -10 7
-18 -2 -8 -17 7 -36 38 -18 29 -32 54 -32 57 0 12 17 3 43 -21z m-1236 -6 c-3
-8 -6 -5 -6 6 -1 11 2 17 5 13 3 -3 4 -12 1 -19z m543 -9 c-7 -11 -14 -42 -17
-67 -3 -26 -11 -59 -19 -74 -8 -15 -14 -30 -14 -33 1 -26 -3 -33 -19 -38 -18
-4 -19 -3 -5 37 8 22 13 49 11 58 -3 9 1 25 9 35 7 10 14 27 14 38 0 11 7 31
16 43 20 28 39 29 24 1z m-156 -76 c31 -37 33 -46 6 -38 -22 7 -26 -5 -9 -22
7 -7 9 -29 4 -62 -8 -58 -25 -66 -51 -25 -15 22 -15 27 -3 35 10 6 7 9 -12 9
-33 0 -65 27 -73 61 -4 20 3 35 31 67 35 41 36 41 59 23 12 -10 34 -31 48 -48z
m-641 28 c6 -26 -25 -63 -47 -55 -22 8 -20 21 7 54 24 30 32 30 40 1z m510 -1
c-3 -11 -8 -20 -12 -20 -3 0 -12 9 -19 20 -11 18 -10 20 12 20 19 0 23 -4 19
-20z m167 -2 c0 -19 -2 -20 -10 -8 -13 19 -13 30 0 30 6 0 10 -10 10 -22z
m852 -60 c13 -26 22 -118 10 -118 -12 0 -42 39 -42 54 0 8 -5 16 -10 18 -11 3
9 68 22 68 4 0 13 -10 20 -22z m-1072 -52 c0 -29 -3 -33 -20 -29 -25 7 -25 17
-2 42 23 26 22 26 22 -13z m-340 -11 c0 -5 -5 -3 -10 5 -5 8 -10 20 -10 25 0
6 5 3 10 -5 5 -8 10 -19 10 -25z m-60 -3 c0 -10 -10 -28 -23 -42 -13 -14 -26
-33 -30 -42 -8 -22 -27 -24 -27 -2 0 10 -7 14 -22 12 -19 -2 -23 -10 -25 -43
-2 -28 0 -34 6 -21 19 47 38 -62 21 -123 -6 -25 -15 -40 -20 -35 -14 14 -33
192 -25 241 7 46 10 48 56 29 16 -7 23 -2 57 39 15 18 32 11 32 -13z m450 -3
c0 -20 -15 -26 -25 -9 -9 15 3 43 15 35 5 -3 10 -15 10 -26z m-617 -8 c-3 -11
-13 -27 -23 -36 -16 -14 -19 -14 -35 11 -19 29 -13 40 25 46 33 5 39 2 33 -21z
m-123 -8 c28 -25 25 -37 -5 -17 -14 9 -25 20 -25 25 0 13 7 11 30 -8z m326
-38 c-9 -7 -16 -17 -16 -23 0 -10 -31 -32 -45 -32 -16 0 2 45 20 49 11 2 26
13 34 24 11 15 16 17 19 7 3 -7 -3 -19 -12 -25z m692 24 c-2 -6 -8 -10 -13
-10 -5 0 -11 4 -13 10 -2 6 4 11 13 11 9 0 15 -5 13 -11z m-388 -44 c13 -22
26 -53 31 -68 7 -25 6 -27 -7 -17 -17 15 -54 95 -54 118 0 19 3 16 30 -33z
m364 -32 c-17 -12 -19 -12 -23 3 -2 10 5 24 15 31 17 12 19 12 23 -3 2 -10 -5
-24 -15 -31z m-534 22 c0 -8 -4 -15 -9 -15 -5 0 -14 7 -21 15 -10 13 -9 15 9
15 12 0 21 -6 21 -15z m-78 -20 c29 0 33 -4 36 -28 4 -33 -22 -77 -44 -77 -13
0 -14 3 -5 14 13 16 10 65 -5 69 -5 1 -10 -15 -12 -35 -4 -48 -23 -49 -48 -3
-8 15 -6 27 9 53 14 24 22 30 28 21 4 -8 23 -13 41 -14z m303 -5 c-2 -4 4 -15
15 -25 18 -16 19 -16 32 4 15 25 24 26 45 5 14 -14 18 -13 37 5 30 28 56 27
56 -1 0 -39 -15 -51 -51 -46 -47 7 -64 1 -48 -19 26 -31 -46 -1 -78 33 -35 35
-44 68 -18 58 8 -4 13 -10 10 -14z m-458 -62 c-3 -7 -5 -2 -5 12 0 14 2 19 5
13 2 -7 2 -19 0 -25z m60 -77 c-3 -10 -5 -8 -6 6 0 12 -5 25 -11 28 -5 3 -10
16 -10 28 1 17 4 15 16 -12 8 -19 13 -42 11 -50z m152 33 c-6 -16 -13 -24 -16
-17 -5 13 16 58 23 50 3 -2 -1 -17 -7 -33z m1335 20 c3 -8 2 -12 -4 -9 -6 3
-10 10 -10 16 0 14 7 11 14 -7z m-2124 -23 c0 -6 -4 -13 -10 -16 -5 -3 -10 1
-10 9 0 9 5 16 10 16 6 0 10 -4 10 -9z m1220 -35 c0 -20 -7 -25 -57 -34 -105
-21 -265 -43 -271 -38 -10 10 73 39 126 44 29 2 55 8 57 12 3 5 22 6 44 3 31
-4 43 -1 60 16 27 27 41 27 41 -3z m325 14 c3 -5 2 -10 -4 -10 -5 0 -13 5 -16
10 -3 6 -2 10 4 10 5 0 13 -4 16 -10z m715 -100 c0 -6 -3 -10 -7 -10 -5 0 -18
-3 -30 -6 -18 -5 -23 -2 -23 14 0 11 6 22 13 25 15 5 47 -10 47 -23z m-14
-126 l10 -59 8 40 c11 60 14 64 15 20 0 -22 -8 -80 -19 -129 -11 -50 -20 -100
-20 -112 0 -12 -6 -27 -14 -33 -23 -19 -34 8 -35 82 0 38 -3 79 -6 90 -6 21
-6 21 9 3 21 -26 29 -16 34 49 4 43 1 60 -13 75 -9 10 -14 24 -10 30 14 23 30
1 41 -56z m-1866 -17 c10 -10 11 -5 7 19 -5 26 -2 33 14 37 26 7 39 -19 39
-77 0 -25 5 -46 10 -46 6 0 10 10 10 23 0 12 5 29 10 37 7 11 10 5 10 -23 0
-49 18 -39 26 14 6 38 7 39 21 19 10 -15 13 -32 8 -57 -6 -33 -5 -35 15 -30
13 3 23 0 27 -8 3 -10 14 -12 34 -8 36 7 38 -4 3 -17 -19 -7 -24 -15 -19 -29
9 -30 -11 -68 -44 -79 -37 -13 -39 -27 -8 -43 12 -7 26 -18 30 -25 4 -8 14
-14 21 -14 8 0 19 -7 26 -15 10 -13 9 -15 -12 -15 -13 0 -33 7 -44 15 -10 8
-29 15 -41 15 -12 0 -26 8 -32 18 -9 16 -10 16 -16 0 -4 -9 -1 -26 5 -39 10
-17 14 -19 21 -8 7 10 9 5 7 -16 -2 -16 -9 -31 -15 -31 -7 -1 -16 -2 -19 -3
-9 -2 23 -31 34 -31 18 0 21 -29 8 -62 l-14 -31 -7 41 c-9 53 -25 45 -25 -13
0 -24 -4 -47 -10 -50 -6 -4 -10 8 -10 29 0 43 -12 45 -45 10 l-25 -26 -10 26
c-5 15 -14 24 -20 21 -12 -7 -99 53 -101 69 -1 6 0 21 1 33 1 17 -3 21 -14 17
-9 -3 -24 -3 -33 1 -16 6 -15 8 7 25 l25 20 -42 0 c-24 0 -43 4 -43 9 0 5 -3
16 -6 25 -4 11 -1 16 11 16 14 0 16 6 10 28 -3 15 -13 34 -21 43 -12 14 -11
18 9 37 13 12 27 19 31 15 5 -5 5 2 2 15 -6 19 -4 22 20 22 22 0 25 3 16 12
-15 15 -16 65 -1 74 6 3 28 6 50 6 35 -1 38 1 29 18 -5 10 -10 27 -9 37 0 16
2 15 16 -4 21 -32 43 -29 44 5 1 25 2 25 9 -6 4 -19 13 -39 20 -45z m907 58
c7 -21 2 -25 -25 -18 -18 4 -20 8 -11 19 15 18 28 18 36 -1z m-694 -53 c9 -8
17 -25 17 -36 -1 -20 -2 -20 -20 4 -11 14 -24 30 -30 37 -24 29 -4 26 33 -5z
m702 -164 c4 -10 10 -16 15 -13 12 8 22 -167 10 -179 -14 -14 -40 18 -40 49 0
12 -7 44 -15 70 -12 41 -12 62 -3 125 l12 75 7 -55 c4 -30 10 -63 14 -72z
m2301 72 c16 -6 24 -5 28 5 8 21 40 11 47 -16 14 -50 10 -140 -8 -157 -21 -22
-33 -22 -58 -1 -32 27 -165 13 -165 -18 0 -8 -4 -11 -10 -8 -14 9 -70 -26 -64
-39 3 -6 -2 -2 -10 8 -9 11 -16 15 -16 9 0 -15 -36 -23 -49 -10 -8 8 -11 8
-11 -1 0 -8 -7 -9 -25 -2 -20 7 -27 5 -39 -11 -11 -16 -18 -19 -33 -11 -17 9
-294 7 -320 -3 -7 -2 -13 -1 -13 4 0 4 -30 7 -67 7 -52 -1 -79 4 -114 21 -26
13 -52 23 -58 23 -6 0 -11 7 -11 15 0 8 -3 15 -7 15 -5 0 -22 13 -39 30 -18
16 -35 26 -38 22 -4 -3 -4 1 -1 11 5 13 11 14 25 7 13 -7 19 -6 24 5 3 9 18
14 43 13 42 -2 83 9 83 22 0 4 9 6 20 3 11 -3 18 -8 16 -12 -3 -4 4 -8 15 -8
11 -1 17 2 14 8 -4 5 3 5 19 -1 17 -6 26 -6 28 2 2 6 24 13 49 15 24 2 62 5
84 8 22 3 67 8 100 11 33 4 63 11 67 17 4 6 36 12 72 14 36 1 74 7 84 12 10 5
62 11 115 13 53 2 97 6 97 10 0 6 74 -12 126 -32z m-2797 -68 c-1 -96 -17
-108 -18 -14 -1 53 3 81 9 77 6 -3 10 -32 9 -63z m31 -22 c0 -16 -4 -32 -10
-35 -6 -4 -10 10 -10 35 0 25 4 39 10 35 6 -3 10 -19 10 -35z m1054 1 c22 -24
6 -71 -23 -71 -14 0 -19 -5 -15 -15 5 -12 -2 -15 -29 -15 -20 0 -38 -4 -41 -9
-6 -10 -128 -13 -122 -3 2 4 -4 32 -14 62 -10 30 -16 56 -15 58 5 6 45 -37 45
-48 0 -5 7 -10 15 -10 8 0 15 -6 15 -12 0 -9 3 -9 9 1 8 12 14 12 40 1 43 -18
59 -9 53 31 -4 26 -2 31 11 26 9 -3 21 1 27 9 16 18 23 18 44 -5z m-1247 3
c-3 -3 -12 -4 -19 -1 -8 3 -5 6 6 6 11 1 17 -2 13 -5z m983 -65 c0 -5 -4 -9
-10 -9 -5 0 -10 7 -10 16 0 8 5 12 10 9 6 -3 10 -10 10 -16z m310 1 c0 -5 -4
-10 -10 -10 -5 0 -10 5 -10 10 0 6 5 10 10 10 6 0 10 -4 10 -10z m50 -85 c0
-8 -4 -15 -10 -15 -5 0 -7 7 -4 15 4 8 8 15 10 15 2 0 4 -7 4 -15z m-1413 -77
c-3 -8 -6 -5 -6 6 -1 11 2 17 5 13 3 -3 4 -12 1 -19z m1283 8 c-6 -8 -18 -12
-27 -9 -12 5 -12 7 -1 14 7 5 19 9 27 9 11 0 11 -3 1 -14z m-83 -17 c-12 -7
-27 -7 -45 0 -25 9 -24 9 18 10 36 0 41 -2 27 -10z m143 1 c0 -5 -4 -10 -10
-10 -5 0 -10 5 -10 10 0 6 5 10 10 10 6 0 10 -4 10 -10z m-1662 -16 c12 -8 22
-24 22 -34 0 -12 5 -17 13 -14 21 8 39 -21 31 -50 -3 -14 -8 -26 -10 -26 -12
0 -55 52 -51 62 7 21 -12 48 -33 48 -20 0 -26 11 -13 23 9 10 16 9 41 -9z
m312 -65 c0 -17 -4 -28 -10 -24 -5 3 -10 17 -10 31 0 13 5 24 10 24 6 0 10
-14 10 -31z m1073 2 c-5 -21 20 -31 82 -31 50 1 151 24 170 40 20 17 45 5 45
-20 0 -39 -28 -78 -60 -84 -16 -3 -43 -9 -60 -12 -19 -3 -30 -1 -30 5 0 8 -8
7 -22 -3 -31 -19 -91 -9 -117 18 -26 27 -38 106 -17 106 9 0 12 -7 9 -19z
m-1243 -91 c0 -5 -2 -10 -4 -10 -3 0 -8 5 -11 10 -3 6 -1 10 4 10 6 0 11 -4
11 -10z m76 -138 c-3 -3 2 -11 12 -19 16 -13 16 -14 -3 -11 -12 2 -21 12 -23
27 -3 15 0 21 8 16 6 -4 9 -9 6 -13z m65 3 c-1 -12 -41 -16 -41 -4 0 8 21 18
33 15 5 -1 8 -6 8 -11z m122 -115 c7 -26 -24 -70 -50 -70 -18 0 -16 30 3 44
11 9 13 18 6 36 -5 14 -7 30 -5 37 6 18 38 -15 46 -47z m-183 18 c7 -18 15
-36 17 -39 6 -10 -40 -20 -49 -11 -9 9 1 82 11 82 4 0 13 -15 21 -32z m230 -3
c10 -12 10 -15 -4 -15 -9 0 -16 7 -16 15 0 8 2 15 4 15 2 0 9 -7 16 -15z
m-605 -102 c-18 -42 -17 -64 1 -78 18 -14 17 -14 -8 -15 -25 0 -28 3 -28 36 0
19 5 44 10 55 13 24 35 26 25 2z m464 -43 c1 -13 0 -13 -9 0 -5 8 -9 24 -9 35
l0 20 9 -20 c5 -11 9 -27 9 -35z m-66 -4 c3 -8 -1 -20 -9 -26 -8 -7 -14 -19
-14 -26 0 -23 -20 -16 -30 12 -13 34 -13 37 5 30 9 -3 15 0 15 9 0 19 26 19
33 1z m92 -64 c2 -9 7 -25 11 -36 5 -14 3 -17 -12 -14 -15 2 -20 13 -22 53 -2
39 0 46 9 32 5 -9 12 -25 14 -35z m35 -8 c0 -8 -4 -14 -10 -14 -5 0 -10 9 -10
21 0 11 5 17 10 14 6 -3 10 -13 10 -21z m74 -19 c3 -8 1 -15 -4 -15 -6 0 -10
7 -10 15 0 8 2 15 4 15 2 0 6 -7 10 -15z m-734 -56 c0 -5 -43 -9 -97 -9 -69 0
-93 3 -83 10 8 6 45 9 83 9 37 -1 70 1 74 4 7 8 23 -1 23 -14z m670 -6 c0 -9
-5 -33 -12 -55 -11 -37 -14 -39 -42 -34 -43 9 -48 17 -33 62 11 30 20 40 43
45 35 7 44 3 44 -18z m-925 7 c3 -5 -3 -10 -14 -10 -12 0 -21 5 -21 10 0 6 6
10 14 10 8 0 18 -4 21 -10z m35 0 c0 -5 -4 -10 -10 -10 -5 0 -10 5 -10 10 0 6
5 10 10 10 6 0 10 -4 10 -10z m454 4 c37 -14 11 -24 -64 -24 -112 0 -106 25 7
29 23 0 48 -2 57 -5z m-124 -174 c0 -5 -4 -10 -9 -10 -6 0 -13 5 -16 10 -3 6
1 10 9 10 9 0 16 -4 16 -10z m100 0 c0 -5 -4 -10 -10 -10 -5 0 -10 5 -10 10 0
6 5 10 10 10 6 0 10 -4 10 -10z m361 -85 c-1 -15 -24 -12 -29 3 -3 9 2 13 12
10 10 -1 17 -7 17 -13z m-381 -75 c0 -5 -4 -10 -10 -10 -5 0 -10 5 -10 10 0 6
5 10 10 10 6 0 10 -4 10 -10z"/>
<path d="M1112 2698 c-18 -18 -14 -28 8 -28 11 0 20 6 20 14 0 21 -15 27 -28
14z"/>
<path d="M721 2635 c0 -5 6 -19 14 -29 8 -11 15 -15 15 -10 0 6 -7 19 -15 30
-8 10 -14 15 -14 9z"/>
<path d="M470 2033 c-25 -8 -49 -20 -55 -25 -7 -8 -4 -8 10 -3 11 5 39 10 63
13 23 2 42 8 42 12 0 17 -16 18 -60 3z"/>
<path d="M596 1685 c4 -8 10 -15 15 -15 5 0 9 7 9 15 0 8 -7 15 -15 15 -9 0
-12 -6 -9 -15z"/>
<path d="M375 1485 c-92 -33 -111 -41 -180 -87 -47 -30 -110 -90 -126 -119 -6
-11 8 -2 31 20 87 84 263 161 408 177 46 5 65 12 73 25 17 32 -96 23 -206 -16z"/>
<path d="M476 1425 c-39 -19 -79 -44 -91 -55 -12 -11 -26 -20 -31 -20 -6 0
-21 -12 -35 -26 -13 -14 -62 -51 -108 -82 -46 -31 -78 -58 -71 -60 7 -3 16 2
21 9 5 9 9 10 9 2 0 -6 -28 -39 -62 -72 -35 -34 -57 -61 -50 -61 7 0 15 7 18
15 4 8 10 15 15 15 5 0 28 18 52 39 167 154 231 196 337 221 30 7 68 19 84 28
28 13 28 15 12 27 -14 11 -15 17 -6 34 16 31 -12 27 -94 -14z"/>
<path d="M2470 2490 c0 -5 5 -10 10 -10 6 0 10 5 10 10 0 6 -4 10 -10 10 -5 0
-10 -4 -10 -10z"/>
<path d="M2815 1809 c-4 -6 -5 -12 -2 -15 2 -3 7 2 10 11 7 17 1 20 -8 4z"/>
<path d="M771 1713 c7 -10 15 -20 16 -22 2 -2 3 5 3 17 0 14 -6 22 -16 22 -14
0 -15 -3 -3 -17z"/>
<path d="M975 1550 c-3 -5 -1 -10 4 -10 6 0 11 5 11 10 0 6 -2 10 -4 10 -3 0
-8 -4 -11 -10z"/>
<path d="M1870 1721 c0 -5 5 -13 10 -16 6 -3 10 -2 10 4 0 5 -4 13 -10 16 -5
3 -10 2 -10 -4z"/>
<path d="M2516 2987 c-16 -12 -16 -14 -2 -26 19 -16 36 -6 36 20 0 22 -9 24
-34 6z"/>
<path d="M2566 2944 c-4 -15 -5 -29 -2 -31 9 -9 26 8 26 27 0 30 -17 32 -24 4z"/>
<path d="M2990 2400 c0 -13 28 -25 38 -16 3 4 0 11 -8 16 -20 13 -30 12 -30 0z"/>
<path d="M3032 1174 c-45 -25 -91 -25 -119 -2 -16 13 -18 -9 -4 -31 12 -18 34
-22 71 -11 21 6 30 5 34 -6 5 -13 10 -12 38 2 37 18 78 53 78 66 0 16 -55 6
-98 -18z"/>
<path d="M2706 939 c-74 -81 -92 -109 -83 -133 9 -24 21 -19 35 12 16 36 39
70 85 126 66 77 35 73 -37 -5z"/>
<path d="M2055 864 c-25 -26 -145 -65 -218 -71 -107 -9 -101 -20 36 -62 37
-12 76 -21 87 -21 14 0 20 -7 20 -24 0 -19 4 -22 24 -19 19 4 24 0 29 -25 3
-16 3 -40 0 -53 -5 -21 -1 -19 36 16 24 22 49 52 57 66 12 23 22 28 76 34 70
8 98 19 98 39 0 10 11 11 49 5 49 -8 102 -21 134 -34 11 -5 17 -3 17 6 0 7 7
20 16 30 33 36 12 49 -80 49 -56 0 -105 7 -148 20 -69 21 -105 25 -127 11 -20
-13 -41 -2 -41 19 0 16 -18 30 -40 30 -5 0 -16 -7 -25 -16z"/>
<path d="M1948 626 c-16 -12 -28 -27 -28 -32 0 -17 -101 -114 -211 -201 -19
-15 -64 -53 -100 -85 -35 -31 -102 -88 -149 -128 -47 -39 -105 -89 -130 -110
-25 -22 -54 -47 -65 -55 -19 -14 -18 -14 15 -15 29 0 47 10 101 58 36 31 141
122 233 202 93 80 181 156 195 170 50 47 118 100 129 100 19 0 72 51 72 69 0
10 -8 25 -17 34 -17 14 -20 13 -45 -7z"/>
<path d="M3537 459 c-3 -12 -1 -45 5 -73 6 -30 8 -88 4 -141 -3 -50 -3 -125 0
-168 6 -66 10 -77 25 -77 17 0 19 8 19 68 -1 37 -5 87 -10 112 -5 25 -12 97
-16 160 -7 120 -16 161 -27 119z"/>
<path d="M4696 251 c-8 -13 5 -71 15 -72 5 0 72 -1 149 -2 l140 -2 0 43 0 42
-149 0 c-83 0 -152 -4 -155 -9z"/>
<path d="M4863 73 c9 -35 8 -48 -1 -51 -24 -8 -11 -22 21 -22 26 0 39 7 56 31
13 17 20 33 18 36 -3 3 -12 -4 -19 -16 -7 -12 -16 -21 -20 -21 -16 0 -7 22 18
45 30 28 21 34 -14 9 -21 -14 -23 -14 -34 10 -20 46 -37 32 -25 -21z"/>
<path d="M3393 44 c-7 -15 -10 -31 -7 -35 6 -11 67 -12 62 -1 -36 72 -37 74
-55 36z"/>
<path d="M1726 38 c-10 -38 -8 -40 32 -34 20 3 39 5 41 6 10 1 -44 50 -55 50
-6 0 -14 -10 -18 -22z"/>
<path d="M3735 20 c-18 -20 -17 -20 8 -20 20 0 27 5 27 20 0 25 -12 25 -35 0z"/>
<path d="M3185 10 c-3 -5 -1 -10 4 -10 6 0 11 5 11 10 0 6 -2 10 -4 10 -3 0
-8 -4 -11 -10z"/>
</g>
</svg>
