<?xml version="1.0" standalone="no"?>
<!DOCTYPE svg PUBLIC "-//W3C//DTD SVG 20010904//EN"
 "http://www.w3.org/TR/2001/REC-SVG-20010904/DTD/svg10.dtd">
<svg version="1.0" xmlns="http://www.w3.org/2000/svg"
 width="500.000000pt" height="300.000000pt" viewBox="0 0 500.000000 300.000000"
 preserveAspectRatio="xMidYMid meet">

<g transform="translate(0.000000,300.000000) scale(0.100000,-0.100000)"
fill="#000000" stroke="none">
<path d="M1960 2918 c-24 -45 -60 -110 -81 -145 -42 -68 -44 -73 -30 -73 9 0
151 242 167 283 3 9 2 17 -4 17 -6 0 -29 -37 -52 -82z"/>
<path d="M2100 2990 c0 -5 5 -10 10 -10 6 0 10 5 10 10 0 6 -4 10 -10 10 -5 0
-10 -4 -10 -10z"/>
<path d="M2160 2989 c0 -14 -41 -48 -57 -49 -16 0 -16 -2 -3 -34 9 -26 4 -41
-40 -116 -5 -8 -11 -23 -14 -34 -5 -14 -13 -17 -37 -14 -22 3 -29 1 -25 -9 3
-7 1 -13 -5 -13 -6 0 -7 -4 -4 -10 9 -14 26 -13 22 2 -1 6 6 13 15 16 15 3 15
-1 -3 -37 -21 -45 -26 -48 -43 -27 -10 13 -13 13 -24 0 -11 -12 -9 -14 8 -14
11 0 20 -4 20 -10 0 -38 30 11 164 262 49 93 51 98 36 98 -5 0 -10 -5 -10 -11z
m-35 -68 c3 -5 1 -12 -5 -16 -5 -3 -10 1 -10 9 0 18 6 21 15 7z"/>
<path d="M3540 2983 c8 -10 15 -19 16 -21 1 -2 16 4 32 12 19 10 32 12 35 6 3
-6 4 -5 3 2 -2 8 -22 14 -51 16 -45 3 -48 2 -35 -15z"/>
<path d="M2435 2952 c-8 -8 26 -42 41 -42 23 0 125 -51 130 -65 3 -7 0 -23 -6
-35 -10 -18 -9 -21 2 -18 7 3 15 20 17 39 l4 34 8 -30 c7 -29 7 -29 14 -7 5
14 13 21 21 18 8 -3 14 -2 14 2 -1 17 -17 30 -50 40 -63 19 -125 43 -130 51
-6 10 -58 20 -65 13z"/>
<path d="M1916 2935 c-3 -8 -1 -15 4 -15 6 0 10 7 10 15 0 8 -2 15 -4 15 -2 0
-6 -7 -10 -15z"/>
<path d="M3505 2930 c15 -17 16 -24 7 -45 -16 -34 -33 -31 -60 10 -12 19 -27
35 -32 35 -16 0 -12 -14 15 -50 28 -38 25 -50 -14 -50 -46 0 -65 35 -38 70 6
9 2 6 -10 -7 -12 -13 -30 -23 -40 -24 -12 0 -10 -4 9 -10 14 -6 29 -17 32 -26
6 -16 -18 -63 -32 -63 -4 0 -18 18 -32 40 -14 22 -29 40 -33 40 -5 0 -21 -13
-36 -28 -16 -15 -34 -26 -41 -24 -14 5 28 -60 42 -66 18 -8 6 -21 -32 -36 -39
-16 -57 -43 -22 -34 32 9 145 82 182 118 21 22 46 36 64 38 31 2 94 44 103 68
6 17 -22 64 -39 64 -6 0 -3 -9 7 -20z m-218 -130 c9 -16 21 -30 25 -30 19 0 6
-20 -16 -26 -50 -12 -88 40 -54 74 18 18 25 15 45 -18z"/>
<path d="M3120 2920 c-9 -6 -10 -10 -3 -10 6 0 15 5 18 10 8 12 4 12 -15 0z"/>
<path d="M2815 2777 c-302 -190 -507 -329 -498 -336 4 -3 12 -10 16 -16 5 -6
7 -3 4 7 -7 20 37 52 59 44 9 -3 12 -2 9 5 -11 16 27 39 55 34 17 -4 21 -3 11
4 -11 7 -9 12 11 25 14 9 33 14 42 10 11 -4 15 -2 11 8 -8 21 42 53 59 39 16
-14 29 -2 16 14 -7 9 1 17 28 31 20 10 40 24 45 29 4 6 11 4 18 -5 9 -13 10
-12 5 2 -7 23 11 33 32 16 15 -12 16 -11 3 4 -11 15 -11 19 5 25 10 4 19 2 22
-5 2 -8 7 -8 16 1 8 6 12 17 9 23 -7 18 18 28 29 13 7 -11 11 -11 15 -1 2 6 9
10 14 6 5 -3 9 3 9 14 0 27 10 33 33 20 17 -9 19 -8 13 7 -7 20 18 44 47 45 9
0 17 5 17 10 0 18 51 32 66 19 9 -7 14 -8 14 -1 0 16 -11 42 -19 42 -3 0 -100
-60 -216 -133z"/>
<path d="M1255 2882 c7 -24 -17 -41 -55 -38 -14 1 -30 -1 -36 -6 -6 -4 -24 -9
-40 -10 -48 -3 -55 -12 -120 -166 -16 -37 -20 -76 -5 -53 6 9 11 10 15 2 10
-15 -2 -31 -18 -25 -18 7 -68 -106 -136 -307 -37 -109 -66 -176 -82 -194 -14
-15 -29 -41 -32 -58 -7 -36 8 -57 26 -39 18 18 30 14 23 -7 -5 -16 1 -20 32
-25 34 -5 184 -20 207 -21 5 0 10 8 12 17 2 14 -3 17 -22 12 -22 -6 -24 -3
-24 28 0 35 14 58 36 58 6 0 17 -27 25 -59 12 -57 14 -59 48 -64 32 -4 41 1
81 39 25 24 53 44 63 44 21 0 21 -2 -3 -50 -11 -22 -20 -41 -20 -42 0 -2 30
-5 67 -6 37 -2 71 -6 76 -9 5 -3 20 5 33 18 19 18 23 19 18 6 -11 -29 49 -21
126 18 38 19 76 32 85 29 17 -7 21 -24 5 -24 -5 0 -10 5 -10 10 0 6 -5 10 -11
10 -5 0 -8 -4 -4 -10 3 -5 -14 -15 -37 -21 -27 -8 -36 -14 -25 -16 19 -5 116
24 131 38 6 5 20 9 33 9 15 0 23 6 23 16 0 21 63 84 84 84 8 0 18 -4 21 -10 3
-5 18 -10 33 -10 24 0 21 -4 -26 -31 -29 -17 -51 -33 -49 -35 2 -3 36 2 76 11
91 19 122 19 169 -1 20 -9 48 -18 62 -20 13 -3 26 -7 28 -9 2 -1 -34 -11 -80
-22 l-83 -18 131 -6 c124 -6 134 -8 188 -38 31 -18 56 -36 56 -41 0 -12 -1248
-4 -1350 9 -47 6 -94 11 -104 11 -18 0 -18 -1 -1 -20 10 -11 31 -20 47 -20 21
0 28 -5 28 -19 0 -29 14 -33 33 -10 9 10 25 19 35 19 15 0 17 -6 14 -35 -3
-25 1 -42 13 -55 19 -21 69 -27 80 -10 4 6 15 4 29 -5 12 -8 40 -17 63 -20 32
-4 48 0 77 20 22 15 51 25 71 25 40 0 47 -17 10 -22 -42 -5 -29 -23 20 -26 44
-3 53 5 43 36 -3 8 136 18 362 26 l155 6 -29 -19 c-36 -24 -96 -91 -96 -107 0
-6 -7 -14 -15 -17 -17 -7 -55 -79 -55 -106 0 -32 -31 -92 -72 -140 -21 -24
-38 -47 -38 -52 0 -4 15 -30 33 -58 26 -38 36 -48 45 -39 9 9 12 8 12 -5 0 -9
-4 -17 -8 -17 -5 0 -9 -7 -9 -15 0 -8 4 -12 9 -9 4 3 8 0 8 -6 0 -6 5 -8 12
-4 7 4 8 3 4 -5 -4 -6 -11 -9 -15 -6 -5 2 -11 -17 -15 -43 -8 -63 -27 -97 -52
-97 -11 0 -28 -7 -37 -15 -32 -30 -46 -40 -54 -40 -4 0 -2 5 5 12 15 15 16 32
2 23 -14 -8 -81 66 -75 83 2 6 0 12 -6 12 -6 0 -8 4 -5 8 6 10 3 10 -71 18
l-52 6 20 40 c18 36 19 42 6 56 -14 13 -19 12 -49 -6 -42 -26 -62 -17 -53 24
7 28 7 28 -21 -8 -15 -21 -30 -38 -35 -38 -12 0 -19 29 -8 36 6 3 8 17 5 29
-3 13 -3 25 2 28 8 5 -17 -3 -37 -10 -16 -7 -7 29 17 67 9 14 15 29 14 33 -1
5 7 21 18 37 11 15 20 35 20 43 0 8 7 27 15 43 10 20 22 28 44 29 16 1 28 -2
25 -6 -2 -4 1 -11 7 -15 15 -9 29 14 29 47 0 34 -29 47 -47 23 -7 -10 -13 -23
-14 -28 0 -6 -4 -1 -9 12 -8 20 -44 30 -83 23 -5 -1 -6 3 -2 9 3 5 -5 15 -19
21 -22 10 -30 8 -63 -17 -20 -16 -41 -32 -47 -36 -20 -13 3 -19 26 -7 12 7 27
12 31 11 5 -1 6 2 2 8 -9 14 18 13 35 -2 12 -11 12 -10 2 3 -12 16 -7 29 10
29 5 0 6 -5 3 -10 -4 -6 7 -15 23 -21 17 -6 33 -17 36 -25 7 -18 -24 -87 -58
-129 -24 -30 -24 -30 -72 -16 -27 7 -56 14 -64 16 -10 2 -14 13 -13 36 l2 34
-54 2 c-46 1 -54 -2 -60 -20 l-8 -22 -4 23 c-4 21 -9 24 -43 26 -8 1 -16 11
-18 24 -2 12 -10 22 -19 22 -11 0 -14 -7 -10 -26 l4 -25 -23 22 c-13 12 -26
31 -30 41 -4 15 -12 18 -29 14 -19 -5 -30 2 -53 30 -21 25 -40 38 -62 40 -39
5 -50 11 -50 29 0 22 -50 92 -76 106 -13 7 -24 16 -24 21 0 4 -7 8 -15 8 -9 0
-18 12 -21 28 -5 23 -18 35 -60 55 -30 15 -54 22 -54 17 0 -6 -13 -1 -29 11
-16 12 -50 24 -75 26 -25 3 -46 10 -46 14 0 5 -25 9 -56 9 -30 0 -53 4 -50 9
5 7 -48 -7 -111 -30 l-23 -9 0 -350 0 -350 27 6 c16 4 43 13 62 20 18 8 51 14
73 14 56 0 181 20 193 31 21 20 37 6 65 -57 17 -36 30 -71 30 -76 0 -6 -15
-29 -33 -52 -19 -23 -57 -76 -86 -118 -45 -68 -48 -76 -27 -66 14 6 23 15 20
19 -3 5 6 9 21 9 14 0 28 7 31 15 7 16 34 21 34 6 0 -5 -38 -62 -84 -127 -79
-110 -84 -120 -69 -136 9 -10 20 -15 25 -12 4 3 7 0 6 -8 -2 -7 3 -12 10 -10
6 1 11 -4 10 -10 -2 -7 5 -12 14 -12 10 1 15 -2 12 -7 -6 -10 19 -39 33 -39
11 1 121 191 121 210 0 8 3 24 6 35 5 13 2 11 -7 -5 -9 -14 -13 -28 -11 -32 3
-4 0 -16 -5 -25 -9 -16 -10 -16 -11 5 0 25 -27 30 -50 9 -7 -6 -4 2 7 18 38
54 67 74 98 66 2 0 0 -13 -6 -27 -5 -15 -8 -29 -5 -31 5 -6 42 47 50 73 6 19
2 23 -29 28 -30 6 -36 11 -33 29 2 13 10 22 19 21 14 -1 15 4 7 33 -5 19 -7
37 -5 40 10 10 30 -42 30 -79 0 -51 12 -48 26 7 l11 45 55 -2 c43 -2 55 -7 55
-19 0 -15 -35 -288 -44 -349 -34 -214 -45 -294 -39 -300 10 -11 574 -10 568 0
-4 7 2 9 17 7 12 -2 17 -2 11 0 -10 3 -10 10 -2 25 6 11 16 18 22 15 7 -2 26
2 42 9 26 11 27 13 8 14 -12 0 -25 -5 -29 -11 -8 -13 -24 7 -24 31 0 12 2 12
9 2 7 -11 9 -11 14 2 5 11 1 16 -13 16 -11 0 -20 4 -20 10 0 5 6 7 13 4 8 -3
14 2 14 11 0 11 -6 14 -16 9 -9 -3 -20 -6 -26 -5 -60 10 -127 11 -144 2 -16
-9 -33 -8 -72 5 -43 14 -59 15 -96 6 -33 -9 -48 -9 -63 0 -15 10 -29 10 -66 0
-54 -15 -74 -5 -74 37 0 14 -7 38 -14 54 -9 16 -11 27 -4 27 5 0 8 6 5 14 -3
8 -1 17 6 20 9 3 8 8 -3 15 -12 8 -12 11 -1 11 7 0 11 6 8 14 -3 8 -1 17 6 20
9 3 8 7 -2 14 -11 8 -11 10 0 15 12 4 11 7 -1 16 -13 9 -13 11 3 11 19 0 24
20 5 20 -9 0 -8 4 2 10 13 9 13 11 0 20 -12 7 -12 10 -1 10 7 0 11 6 7 15 -3
8 0 15 6 15 7 0 6 5 -2 15 -10 12 -9 15 5 15 14 0 15 3 5 15 -8 10 -9 15 -2
15 6 0 9 7 6 15 -4 8 -1 15 6 15 6 0 9 4 6 9 -12 19 6 41 28 36 74 -17 157
-39 196 -50 25 -8 78 -16 119 -20 40 -3 77 -8 82 -11 5 -3 28 -5 52 -6 23 0
50 -5 60 -10 10 -5 33 -10 50 -10 18 0 67 -9 110 -20 43 -11 84 -17 92 -14 15
5 28 -22 22 -45 -2 -8 -2 -10 1 -6 2 5 9 -2 16 -15 14 -28 69 -39 106 -21 20
10 27 10 42 -4 14 -12 21 -14 30 -5 15 15 88 -25 88 -49 0 -10 9 -20 20 -24
12 -4 24 -21 30 -45 6 -21 21 -45 34 -54 l25 -16 -25 43 c-33 59 -67 164 -61
193 2 13 0 24 -4 24 -5 0 -6 7 -2 16 4 12 7 13 14 3 6 -11 9 -10 13 1 14 44
14 45 17 25 1 -11 5 3 8 30 5 38 10 50 23 49 14 -1 16 6 13 45 l-4 46 19 -42
c11 -24 21 -43 23 -43 2 0 1 17 -2 38 -4 20 -6 54 -5 75 2 39 -4 45 -24 25 -8
-8 -15 -8 -27 2 -23 19 -18 40 9 40 14 0 27 4 30 8 3 5 -8 6 -25 4 -18 -3 -29
0 -29 7 0 7 5 9 10 6 16 -10 41 16 35 36 -3 9 -1 20 5 24 5 3 10 -1 10 -9 0
-19 16 -21 26 -4 4 6 9 65 10 129 1 65 5 123 10 130 4 7 3 10 -4 5 -6 -3 -13
-2 -17 4 -3 5 -1 10 4 10 6 0 11 9 11 21 0 16 -4 19 -17 15 -16 -6 -16 -6 0
12 19 21 22 42 7 42 -5 0 -10 -4 -10 -8 0 -5 -7 -17 -15 -28 -15 -17 -15 -16
-1 12 8 17 22 36 30 43 23 19 20 34 -3 19 -11 -7 -25 -23 -31 -36 -6 -14 -13
-22 -16 -19 -3 3 2 19 10 36 9 16 16 39 16 51 0 11 5 20 11 20 5 0 8 4 5 9 -3
4 5 17 17 29 26 24 77 46 77 32 0 -5 -9 -12 -20 -15 -11 -3 -20 -11 -20 -16 0
-5 27 4 60 21 56 28 65 30 142 25 107 -7 121 -9 126 -23 2 -7 12 -12 22 -12
26 0 78 -66 85 -110 4 -22 10 -39 13 -39 19 3 22 -3 11 -22 -7 -14 -8 -24 -1
-28 5 -3 11 -15 14 -26 5 -26 -36 -48 -73 -40 -26 6 -28 3 -35 -29 -7 -39 1
-108 18 -169 15 -51 -4 -71 -66 -69 -29 2 -46 -2 -46 -9 0 -8 -6 -7 -17 2 -14
12 -16 12 -11 -1 2 -8 19 -16 39 -18 19 -2 38 -8 44 -13 5 -5 17 -9 27 -9 10
0 19 -6 19 -12 2 -25 -3 -53 -12 -62 -16 -17 -10 -26 15 -26 14 0 28 -5 32
-11 4 -7 0 -9 -13 -5 -13 4 -33 -4 -61 -26 -47 -36 -48 -35 41 -52 36 -7 38
-5 49 24 8 23 13 28 19 18 5 -7 6 -22 2 -33 -10 -32 -73 -101 -113 -124 -36
-20 -38 -20 -33 -3 4 17 0 18 -41 12 -33 -5 -52 -3 -66 7 -28 20 -25 7 7 -24
26 -27 17 -47 -11 -24 -7 6 -27 8 -43 5 -17 -3 -41 -1 -54 7 -23 12 -23 11 4
-24 24 -32 25 -37 11 -45 -14 -8 -8 -17 39 -54 31 -24 73 -50 93 -57 33 -12
39 -11 63 6 14 11 31 30 37 42 14 28 27 11 18 -24 -14 -57 -94 -92 -146 -64
-26 14 -33 6 -13 -14 8 -9 36 -19 62 -23 43 -6 45 -8 27 -21 -10 -8 -32 -13
-49 -12 -45 2 -49 0 -36 -15 9 -11 43 -15 61 -6 13 6 36 4 42 -4 3 -5 21 0 40
11 41 24 95 36 103 23 3 -6 13 -10 21 -10 30 0 84 -53 84 -82 0 -20 -5 -28
-17 -28 -17 -1 -17 -1 0 -11 9 -5 22 -7 27 -4 12 8 13 -5 1 -24 -5 -7 -14 -10
-20 -7 -6 4 -11 2 -11 -3 0 -20 -26 -11 -49 15 -17 19 -29 25 -49 21 -15 -3
-31 1 -39 9 -25 25 -37 15 -14 -10 13 -14 20 -29 17 -34 -3 -5 2 -9 12 -8 11
0 18 -7 20 -22 4 -29 42 -51 42 -25 0 34 14 45 44 33 20 -7 26 -15 21 -29 -5
-15 1 -19 37 -24 23 -3 44 -10 46 -16 2 -5 11 -7 19 -4 13 5 15 2 10 -11 -4
-10 -7 -24 -7 -32 0 -9 -4 -12 -10 -9 -5 3 -10 -3 -10 -14 0 -18 6 -21 46 -21
37 0 45 3 40 15 -6 18 35 65 57 65 9 0 19 5 22 10 4 6 21 9 38 6 97 -15 148
-17 832 -31 215 -5 356 -8 838 -21 l237 -7 0 29 c-1 31 -21 146 -70 399 -17
88 -42 228 -56 310 -42 252 -86 518 -90 550 -3 17 -14 82 -25 145 -10 63 -21
126 -23 140 -3 14 -5 31 -5 38 -1 8 -19 12 -56 12 -55 0 -55 0 -41 -22 15 -23
16 -26 16 -51 0 -8 11 -12 29 -11 15 1 35 -2 42 -7 12 -7 11 -9 -1 -9 -12 -1
-11 -3 3 -14 14 -11 15 -15 5 -19 -10 -4 -10 -6 1 -6 11 -1 11 -4 1 -16 -10
-12 -9 -15 6 -15 16 0 17 -2 4 -10 -13 -9 -13 -11 0 -20 12 -8 12 -10 1 -10
-10 0 -11 -3 -2 -13 6 -8 8 -17 4 -20 -3 -4 0 -7 8 -7 12 0 11 -2 -1 -11 -11
-8 -12 -12 -2 -16 6 -2 9 -9 6 -15 -4 -6 0 -14 7 -19 12 -7 11 -9 -1 -9 -11
-1 -10 -4 4 -15 20 -15 20 -15 0 -15 -18 -1 -18 -1 0 -11 15 -9 16 -13 5 -20
-12 -7 -12 -9 0 -9 11 0 11 -3 1 -15 -10 -12 -9 -15 6 -15 16 0 17 -2 4 -10
-13 -9 -13 -11 0 -20 10 -6 11 -10 3 -10 -20 0 -15 -20 5 -20 14 0 15 -2 2
-10 -13 -9 -13 -11 0 -20 12 -8 12 -10 1 -10 -11 0 -11 -3 -1 -15 10 -12 10
-15 -1 -15 -9 -1 -8 -5 5 -15 12 -9 15 -15 7 -15 -11 0 -11 -3 -1 -15 10 -12
10 -15 0 -15 -9 0 -10 -3 -1 -13 6 -8 8 -17 4 -20 -3 -4 -1 -7 7 -7 10 0 10
-3 0 -15 -8 -10 -9 -15 -1 -15 6 0 9 -13 7 -30 -2 -17 1 -33 5 -36 5 -3 7 -10
4 -15 -4 -5 -1 -9 6 -9 9 0 9 -3 0 -14 -9 -11 -9 -16 0 -21 8 -6 7 -10 -2 -16
-12 -7 -12 -9 0 -9 7 0 11 -6 8 -15 -4 -8 -1 -17 5 -21 7 -4 6 -9 -3 -15 -11
-6 -9 -9 5 -15 14 -5 15 -9 4 -15 -11 -7 -10 -11 2 -19 13 -9 13 -10 0 -10
-12 -1 -11 -3 3 -14 14 -11 15 -15 5 -20 -10 -4 -10 -7 -1 -12 7 -3 9 -12 6
-20 -3 -8 1 -14 8 -14 11 0 11 -3 -1 -10 -10 -6 -11 -13 -5 -18 6 -4 10 -20
10 -35 -1 -16 2 -30 7 -33 4 -3 5 -11 1 -19 -3 -8 -1 -15 4 -15 5 0 8 -20 8
-45 -1 -25 3 -45 8 -45 5 0 7 -7 4 -15 -4 -8 -2 -17 4 -20 5 -4 7 -11 3 -16
-3 -5 -1 -15 5 -22 6 -8 6 -18 1 -27 -6 -8 -10 -29 -10 -47 0 -38 -30 -63 -75
-63 -26 -1 -27 -2 -12 -11 10 -6 25 -8 33 -5 17 7 44 -3 44 -15 0 -5 -11 -14
-25 -19 -19 -7 -25 -17 -25 -40 0 -20 -4 -29 -11 -25 -5 4 -19 -1 -29 -10 -17
-16 -42 -17 -267 -11 -136 4 -333 7 -437 7 -126 -1 -193 3 -202 10 -8 6 -14
26 -14 45 0 22 -6 37 -18 43 -11 6 -141 10 -318 10 -164 0 -333 2 -375 5 -79
5 -84 7 -194 82 -27 18 -63 40 -80 48 -35 17 -230 214 -221 223 4 4 12 1 18
-5 16 -16 50 -15 67 1 12 10 13 9 7 -7 -6 -17 -5 -17 10 -5 10 8 25 13 36 11
13 -2 18 3 18 22 0 42 10 56 41 56 16 0 29 -5 29 -12 0 -6 3 -8 8 -4 4 4 7 21
7 37 0 37 20 38 21 2 3 -50 -7 -83 -25 -81 -20 4 -28 -52 -20 -142 3 -36 6
-58 7 -49 1 9 18 37 37 62 19 25 35 51 35 56 0 6 7 11 15 11 16 0 20 -16 6
-24 -4 -3 -11 -19 -14 -35 -5 -22 -11 -28 -29 -27 -18 1 -23 -4 -23 -24 0 -23
4 -25 49 -28 27 -2 53 1 58 6 12 12 18 361 7 368 -5 3 -9 -2 -9 -10 0 -10 -9
-16 -21 -16 -13 0 -23 -8 -27 -22 -5 -22 -6 -22 -13 5 -5 17 -2 38 7 56 16 33
54 49 54 23 0 -8 2 -13 6 -10 3 3 5 37 6 74 0 97 -1 111 -10 98 -4 -7 -16 -13
-27 -16 -13 -2 -20 -12 -21 -28 -2 -48 -4 -51 -26 -48 -18 2 -24 11 -26 34 -3
26 1 33 21 38 14 3 25 11 24 18 -1 45 4 60 19 54 8 -3 12 -2 9 4 -3 5 3 18 14
29 26 26 17 30 -42 24 -45 -5 -48 -8 -45 -32 5 -47 -10 -53 -43 -17 -42 48
-58 95 -65 183 -11 152 -60 277 -129 331 -14 11 -25 23 -25 26 0 3 29 6 65 6
55 0 75 -5 118 -30 l52 -30 -42 0 c-24 0 -43 -4 -43 -10 0 -5 4 -10 9 -10 5 0
11 -6 14 -12 2 -7 3 -5 2 5 -2 11 3 17 15 17 13 0 19 -10 22 -35 4 -37 -7 -45
-31 -22 -11 10 -13 9 -9 -3 3 -8 17 -16 31 -18 26 -3 27 -6 27 -64 0 -51 2
-59 16 -54 9 3 19 6 24 6 5 0 10 7 12 15 2 11 8 11 28 -5 l25 -20 -31 0 c-34
0 -52 -23 -34 -45 5 -6 7 -15 3 -18 -3 -4 12 -7 35 -7 38 0 42 2 42 25 0 42
29 61 83 57 43 -4 47 -2 47 18 0 13 7 28 17 35 9 7 13 17 8 25 -6 10 -9 10
-15 -1 -7 -10 -12 -10 -23 0 -10 8 -17 9 -22 1 -6 -9 1 -14 18 -11 4 0 7 -6 7
-15 0 -9 -5 -12 -12 -8 -8 5 -9 2 -5 -9 5 -13 0 -17 -22 -17 -25 0 -27 3 -23
30 3 21 0 32 -12 36 -43 17 -2 23 150 23 176 1 194 5 194 46 0 27 -15 41 -50
48 -14 2 35 5 108 6 l132 1 0 24 c0 14 -4 28 -10 31 -5 3 -10 1 -10 -4 0 -6
-8 -11 -17 -12 -16 0 -15 -2 2 -10 l20 -9 -20 3 c-12 2 -19 9 -17 18 1 9 -4
16 -12 16 -8 0 -11 -7 -8 -19 3 -13 -1 -18 -16 -18 -25 0 -38 29 -14 32 9 1
-17 5 -58 8 -54 5 -25 7 101 7 97 0 182 4 189 8 9 6 11 4 5 -5 -6 -10 -4 -11
6 -4 8 5 72 11 144 14 l129 5 1 30 c0 21 7 33 25 43 22 11 3 13 -135 8 -88 -4
-265 -7 -393 -8 -149 0 -235 -5 -239 -11 -4 -6 -1 -13 5 -15 17 -5 15 -32 -3
-32 -9 0 -20 -11 -27 -25 -6 -13 -15 -22 -19 -19 -13 7 -11 -3 5 -34 14 -26
13 -27 -18 -29 -17 0 -25 1 -18 4 6 2 10 9 7 14 -4 5 2 6 11 2 15 -6 15 -4 0
19 -9 13 -13 28 -9 33 5 4 3 5 -3 2 -6 -4 -22 6 -36 22 -13 16 -37 32 -53 35
-28 6 -28 6 -7 -5 12 -7 22 -18 22 -26 0 -17 -15 -17 -30 2 -8 10 -22 13 -39
9 -20 -4 -23 -3 -11 5 12 9 10 11 -12 11 -29 0 -43 25 -32 55 5 11 -2 24 -21
41 -16 13 -31 24 -35 24 -4 0 -10 9 -13 21 -3 12 -10 18 -16 15 -17 -11 -121
-15 -121 -5 0 6 -4 7 -10 4 -6 -3 -7 1 -4 9 4 10 1 16 -9 16 -8 0 -18 6 -21
13 -3 6 -3 2 -1 -9 8 -30 -16 -36 -46 -13 -13 10 -30 19 -36 19 -21 0 -15 20
6 20 11 0 27 3 36 7 14 5 16 2 10 -18 -7 -23 -6 -23 19 4 21 25 23 32 13 50
-7 12 -20 29 -29 38 -10 9 -18 24 -18 33 0 11 -4 14 -12 9 -7 -4 -15 -8 -18
-9 -3 0 -14 -5 -24 -9 -13 -6 -21 -5 -24 3 -2 7 -8 9 -14 6 -6 -4 -14 0 -19 7
-6 11 -11 11 -21 1 -18 -18 -48 -15 -67 6 -9 11 -28 22 -43 26 -20 4 -26 11
-21 23 5 12 2 15 -9 11 -10 -4 -15 -1 -14 10 0 9 -10 21 -23 28 -14 7 -33 29
-43 49 -11 20 -23 33 -29 29 -6 -3 -21 -3 -35 0 -19 5 -24 11 -19 26 5 17 3
18 -25 10 -25 -7 -37 -5 -58 10 -22 16 -41 19 -107 16 -82 -2 -128 10 -151 42
-6 8 -16 12 -22 8 -7 -4 -12 -1 -12 9 0 9 -6 15 -12 14 -28 -3 -38 2 -38 21 0
11 -7 20 -15 20 -23 0 -42 48 -49 125 -3 39 -17 100 -29 136 l-23 67 1 -168
c0 -164 -6 -203 -26 -167 -15 25 -27 21 -34 -13 -4 -16 -10 -30 -15 -30 -15 0
-40 31 -40 50 0 10 -6 20 -14 23 -8 3 -12 16 -10 34 2 17 -2 11 -11 -16 -21
-63 -28 -66 -52 -21 -18 33 -20 45 -12 72 6 18 12 62 14 98 l4 65 -19 -58
c-24 -75 -49 -115 -61 -96 -5 8 -9 24 -9 37 0 22 -1 22 -25 6 -30 -20 -43 -12
-39 23 2 16 1 22 -2 16 -9 -20 -24 -15 -24 7 0 11 -7 23 -15 26 -22 9 -19 23
11 51 36 33 82 24 91 -18 9 -47 24 -30 46 51 25 97 25 104 4 108 -15 3 -18 0
-12 -16z m-228 -254 c-3 -8 -6 -5 -6 6 -1 11 2 17 5 13 3 -3 4 -12 1 -19z
m1188 -488 c3 -6 -1 -7 -9 -4 -18 7 -21 14 -7 14 6 0 13 -4 16 -10z m-1088
-170 c8 -22 8 -29 0 -27 -16 3 -27 19 -27 40 0 27 14 20 27 -13z m-187 -1 c0
-5 -4 -9 -10 -9 -5 0 -10 7 -10 16 0 8 5 12 10 9 6 -3 10 -10 10 -16z m1770
-90 c0 -5 -4 -9 -8 -9 -5 0 -9 7 -9 15 0 8 4 12 9 9 4 -3 8 -9 8 -15z m960
-74 c0 -27 -9 -32 -28 -13 -9 9 -12 9 -12 0 0 -7 -7 -12 -15 -12 -8 0 -15 4
-15 9 0 5 -3 16 -6 25 -5 13 2 16 35 16 37 0 41 -2 41 -25z m85 8 c6 -16 -12
-25 -43 -20 -27 4 -36 13 -27 26 9 15 63 10 70 -6z m-615 -13 c0 -11 -4 -20
-9 -20 -11 0 -22 26 -14 34 12 12 23 5 23 -14z m45 0 c0 -8 -8 -16 -17 -18
-13 -2 -18 3 -18 18 0 15 5 20 18 18 9 -2 17 -10 17 -18z m105 0 c0 -25 -30
-27 -31 -2 -1 16 -2 16 -6 0 -6 -25 -39 -23 -39 2 0 16 7 20 38 20 31 0 38 -4
38 -20z m40 0 c0 -11 -7 -20 -15 -20 -8 0 -15 9 -15 20 0 11 7 20 15 20 8 0
15 -9 15 -20z m40 0 c0 -11 -7 -20 -15 -20 -8 0 -15 9 -15 20 0 11 7 20 15 20
8 0 15 -9 15 -20z m44 5 c-4 -8 -2 -15 4 -15 6 0 13 6 15 13 3 7 6 5 6 -5 1
-13 -7 -18 -29 -18 -23 0 -30 4 -30 20 0 13 7 20 20 20 13 0 18 -5 14 -15z
m70 0 c-4 -8 -2 -15 4 -15 6 0 12 5 14 10 2 7 11 5 23 -4 19 -14 17 -15 -27
-16 -41 0 -48 3 -48 20 0 13 7 20 20 20 13 0 18 -5 14 -15z m96 -5 c9 -16 8
-20 -5 -20 -16 0 -45 22 -45 34 0 15 41 4 50 -14z m-2434 -23 c5 -15 0 -26
-16 -39 -29 -23 -53 -24 -46 0 3 9 8 29 11 43 5 20 11 25 25 22 11 -3 22 -15
26 -26z m1944 23 c-12 -8 -12 -10 -1 -10 8 0 12 -3 8 -6 -9 -9 -28 6 -22 17 4
5 12 9 18 9 7 0 6 -4 -3 -10z m-1864 -31 c-3 -17 -6 -38 -6 -46 0 -11 -4 -11
-21 -3 -29 16 -34 38 -14 60 29 32 49 26 41 -11z m89 -1 c8 -22 -7 -44 -36
-51 -15 -4 -19 -2 -15 10 3 8 6 27 6 43 0 23 4 27 20 23 10 -3 22 -14 25 -25z
m1105 17 c0 -8 -4 -15 -9 -15 -13 0 -22 16 -14 24 11 11 23 6 23 -9z m35 6 c3
-5 1 -12 -5 -16 -5 -3 -10 1 -10 9 0 18 6 21 15 7z m715 -81 c0 -13 -7 -20
-19 -20 -14 0 -18 5 -14 20 3 11 12 20 19 20 8 0 14 -9 14 -20z m60 7 c0 -19
-10 -27 -26 -20 -21 8 -17 33 6 33 11 0 20 -6 20 -13z m-150 -7 c0 -5 -7 -10
-15 -10 -8 0 -15 5 -15 10 0 6 7 10 15 10 8 0 15 -4 15 -10z m28 -83 c2 -25
-2 -33 -16 -34 -15 -1 -18 5 -18 33 1 47 31 48 34 1z m52 14 c7 -15 6 -23 -6
-35 -21 -21 -21 -21 -26 19 -4 39 14 48 32 16z m-160 -16 c0 -16 -6 -25 -15
-25 -15 0 -21 31 -8 43 13 14 23 6 23 -18z m-80 -10 c0 -8 -7 -15 -15 -15 -16
0 -20 12 -8 23 11 12 23 8 23 -8z m-80 -15 c0 -5 -4 -10 -10 -10 -5 0 -10 5
-10 10 0 6 5 10 10 10 6 0 10 -4 10 -10z m210 0 c0 -5 -4 -10 -10 -10 -5 0
-10 5 -10 10 0 6 5 10 10 10 6 0 10 -4 10 -10z m-1650 -50 c0 -5 -5 -10 -11
-10 -5 0 -7 5 -4 10 3 6 8 10 11 10 2 0 4 -4 4 -10z m1370 -25 c0 -26 -3 -33
-15 -29 -27 11 -19 53 13 63 1 1 2 -15 2 -34z m57 -12 c-3 -10 -5 -4 -5 12 0
17 2 24 5 18 2 -7 2 -21 0 -30z m-994 -88 c-3 -9 -8 -14 -10 -11 -3 3 -2 9 2
15 9 16 15 13 8 -4z m47 -35 c0 -11 -31 -42 -36 -37 -9 9 16 58 26 52 5 -3 10
-10 10 -15z m620 -1 c0 -5 -17 -9 -37 -8 l-38 1 30 13 c30 13 45 11 45 -6z
m35 11 c3 -5 1 -10 -4 -10 -6 0 -11 5 -11 10 0 6 2 10 4 10 3 0 8 -4 11 -10z
m-1482 -16 c9 -9 -4 -35 -14 -28 -5 3 -9 12 -9 20 0 14 12 19 23 8z m841 -39
c-3 -7 -12 -11 -20 -8 -11 4 -12 9 -3 19 14 17 30 9 23 -11z m568 -15 c6 0 17
8 24 18 7 9 13 13 13 7 0 -18 -27 -47 -38 -40 -6 3 -11 2 -11 -3 0 -5 13 -12
30 -15 21 -5 28 -11 24 -22 -7 -17 11 -21 21 -5 11 18 34 -8 28 -31 -4 -13
-12 -19 -22 -16 -14 3 -17 -6 -17 -64 -1 -48 -6 -72 -18 -84 -9 -9 -16 -21
-16 -27 0 -7 -5 -6 -14 1 -14 12 -16 28 -4 46 4 6 1 41 -6 78 -7 37 -11 67 -9
67 2 0 -1 9 -7 20 -6 12 -7 20 -1 20 5 0 3 13 -5 30 -16 32 -9 66 8 36 5 -9
14 -16 20 -16z m-692 -64 c0 -2 -11 -11 -25 -20 -25 -17 -25 -16 -13 4 11 17
38 29 38 16z m741 -245 c-6 -11 -11 -30 -12 -43 -1 -21 -2 -20 -11 6 -6 17 -7
31 -1 35 5 3 13 15 17 26 5 12 10 15 13 8 2 -7 0 -21 -6 -32z m-107 -17 c3 -9
6 -16 6 -17 0 -1 -11 -3 -25 -3 -27 -2 -31 6 -13 24 16 16 25 15 32 -4z m301
7 c3 -5 1 -12 -5 -16 -5 -3 -10 1 -10 9 0 18 6 21 15 7z m-45 -93 c0 -36 -3
-49 -10 -42 -10 10 -4 94 6 94 2 0 4 -23 4 -52z m-2210 3 c0 -10 -22 -49 -50
-86 -27 -37 -50 -75 -50 -83 0 -13 -3 -12 -20 3 -20 18 -19 18 10 58 16 22 27
45 23 50 -3 6 -1 7 4 4 6 -4 23 11 38 33 30 43 45 51 45 21z m-10 -156 c0 -7
-7 -16 -16 -19 -8 -3 -13 -10 -10 -15 8 -12 -31 -44 -43 -36 -13 7 1 38 32 72
20 23 37 22 37 -2z m1850 -104 c19 -5 21 -8 9 -13 -8 -3 -26 0 -40 8 -25 14
-11 17 31 5z m60 -91 c0 -5 -2 -10 -4 -10 -3 0 -8 5 -11 10 -3 6 -1 10 4 10 6
0 11 -4 11 -10z m-1545 -123 l0 -57 -38 0 c-36 0 -37 1 -30 28 4 15 7 39 6 54
-2 18 4 28 15 31 41 11 47 4 47 -56z m94 16 c-4 -21 -6 -46 -3 -55 4 -12 0
-18 -11 -18 -33 0 -55 20 -55 50 0 35 23 60 55 60 21 0 22 -2 14 -37z m89 25
c7 -7 12 -26 12 -43 0 -24 -6 -35 -25 -43 -46 -21 -55 -16 -43 24 5 20 7 45 5
55 -4 14 0 19 17 19 12 0 27 -5 34 -12z m108 -10 c-3 -13 -6 -40 -6 -60 0 -37
0 -37 -30 -26 -44 15 -51 54 -16 85 36 30 60 31 52 1z m84 2 c11 -11 20 -26
20 -34 0 -20 -32 -53 -59 -61 -23 -7 -24 -5 -17 25 3 18 6 45 6 61 0 35 21 38
50 9z m-531 -16 c-14 -18 -24 -11 -15 11 3 9 11 13 16 10 8 -5 7 -11 -1 -21z
m69 5 c12 -19 11 -19 -8 -9 -11 6 -20 15 -20 20 0 17 15 11 28 -11z m1940 -7
c13 -9 35 -72 27 -80 -6 -7 -31 21 -49 56 -17 33 -8 42 22 24z m86 -58 c9 -24
2 -26 -12 -4 -7 11 -8 20 -3 20 5 0 12 -7 15 -16z"/>
<path d="M1887 2885 c-4 -8 -2 -17 3 -20 6 -4 10 -4 10 -1 0 2 3 11 6 20 3 9
2 16 -4 16 -5 0 -12 -7 -15 -15z"/>
<path d="M3680 2889 c0 -5 5 -7 10 -4 6 3 10 8 10 11 0 2 -4 4 -10 4 -5 0 -10
-5 -10 -11z"/>
<path d="M2403 2877 c-35 -12 -44 -27 -17 -27 11 0 15 -6 11 -20 -7 -28 12
-25 23 4 5 13 14 27 19 31 12 7 15 26 4 24 -5 -1 -23 -7 -40 -12z"/>
<path d="M2194 2852 c-9 -24 -16 -29 -37 -25 -28 6 -45 -13 -28 -30 9 -9 14
-8 21 3 5 8 13 11 17 6 4 -5 2 -11 -4 -13 -7 -3 -13 -13 -13 -23 0 -29 -28
-46 -52 -31 -11 7 -22 10 -25 8 -3 -3 6 -11 19 -18 12 -6 26 -17 30 -22 7 -11
91 149 86 164 -2 6 -8 -3 -14 -19z"/>
<path d="M2053 2855 c0 -8 4 -12 9 -9 4 3 8 9 8 15 0 5 -4 9 -8 9 -5 0 -9 -7
-9 -15z"/>
<path d="M2345 2859 c-4 -6 -5 -12 -2 -15 2 -3 7 2 10 11 7 17 1 20 -8 4z"/>
<path d="M2445 2849 c-11 -17 1 -21 15 -4 8 9 8 15 2 15 -6 0 -14 -5 -17 -11z"/>
<path d="M3722 2846 c7 -8 15 -12 17 -11 5 6 -10 25 -20 25 -5 0 -4 -6 3 -14z"/>
<path d="M2480 2834 c0 -10 7 -14 22 -12 32 5 35 28 4 28 -17 0 -26 -5 -26
-16z"/>
<path d="M859 2836 c-1 -3 -2 -9 -3 -13 -1 -5 -4 -13 -8 -19 -4 -6 -10 -31
-14 -55 -4 -24 -9 -38 -12 -31 -2 6 -8 12 -14 12 -6 0 -8 -15 -4 -37 4 -27 3
-32 -4 -18 -5 11 -9 14 -9 7 -1 -9 -8 -11 -21 -7 -12 4 -20 2 -20 -5 0 -6 4
-9 9 -6 5 3 11 -14 13 -38 2 -35 0 -42 -9 -34 -10 8 -13 6 -14 -8 -1 -11 -5
-6 -9 11 -5 19 -8 23 -9 11 -1 -19 -2 -19 -14 -2 -13 18 -14 18 -21 1 -3 -10
-1 -24 5 -31 8 -9 8 -14 1 -14 -6 0 -13 4 -17 10 -3 5 -12 7 -20 3 -8 -3 -15
-1 -15 5 0 5 -11 12 -25 14 -30 6 -31 1 -5 -20 23 -20 27 -38 45 -222 7 -74
18 -152 24 -173 9 -27 9 -47 2 -67 -7 -21 -6 -32 4 -40 19 -15 26 18 27 123 0
48 5 87 10 87 5 0 7 3 5 8 -3 4 4 23 14 42 11 19 19 29 19 22 0 -19 30 -14 31
6 1 37 8 55 30 78 24 26 33 98 16 122 -6 8 -5 18 4 29 8 9 15 41 16 72 1 31 4
82 6 114 3 31 1 60 -4 63 -5 3 -10 3 -10 0z m-8 -116 c-8 -43 -9 -44 -10 -10
-1 39 11 94 16 70 2 -8 -1 -35 -6 -60z m-160 -263 c-13 -13 -14 5 -3 54 l7 34
3 -39 c2 -21 -1 -43 -7 -49z m40 60 c-10 -9 -11 -8 -5 6 3 10 9 15 12 12 3 -3
0 -11 -7 -18z m36 -139 c-3 -8 -6 -5 -6 6 -1 11 2 17 5 13 3 -3 4 -12 1 -19z"/>
<path d="M1856 2831 c-3 -5 1 -11 9 -14 9 -4 12 -1 8 9 -6 16 -10 17 -17 5z"/>
<path d="M2556 2815 c-3 -8 -1 -15 4 -15 6 0 10 7 10 15 0 8 -2 15 -4 15 -2 0
-6 -7 -10 -15z"/>
<path d="M3740 2809 c0 -5 5 -7 10 -4 6 3 10 8 10 11 0 2 -4 4 -10 4 -5 0 -10
-5 -10 -11z"/>
<path d="M1830 2790 c-6 -11 -8 -20 -6 -20 3 0 10 9 16 20 6 11 8 20 6 20 -3
0 -10 -9 -16 -20z"/>
<path d="M2017 2797 c-3 -8 1 -14 9 -14 8 0 14 6 14 14 0 7 -4 13 -9 13 -5 0
-11 -6 -14 -13z"/>
<path d="M2334 2786 c7 -28 42 -86 52 -86 3 0 -1 10 -7 23 -9 17 -9 20 1 10 7
-6 19 -9 26 -6 8 3 14 1 14 -5 0 -20 49 -23 77 -5 l26 18 -29 7 c-87 22 -125
36 -145 53 l-22 20 7 -29z"/>
<path d="M2100 2790 c0 -6 7 -13 15 -17 24 -9 27 1 5 15 -13 8 -20 8 -20 2z"/>
<path d="M3770 2769 c0 -5 5 -7 10 -4 6 3 10 8 10 11 0 2 -4 4 -10 4 -5 0 -10
-5 -10 -11z"/>
<path d="M806 2755 c4 -8 8 -15 10 -15 2 0 4 7 4 15 0 8 -4 15 -10 15 -5 0 -7
-7 -4 -15z"/>
<path d="M3135 2750 c-18 -19 -17 -20 3 -20 12 0 26 -8 31 -17 6 -10 11 -13
11 -7 0 6 -7 17 -15 24 -9 7 -14 19 -11 27 7 18 2 16 -19 -7z"/>
<path d="M1800 2740 c-6 -11 -7 -20 -2 -20 6 0 12 9 15 20 3 11 3 20 1 20 -2
0 -8 -9 -14 -20z"/>
<path d="M2879 2642 c-331 -205 -458 -287 -459 -295 0 -5 5 -5 12 -1 6 4 20
-4 32 -19 l21 -25 127 80 c70 44 132 77 138 73 8 -5 7 -11 -2 -23 -11 -14 -10
-15 7 -8 16 6 18 5 8 -5 -10 -10 -16 -10 -25 -1 -18 18 -33 15 -18 -3 20 -24
-3 -44 -31 -27 -25 16 -37 8 -20 -12 10 -12 8 -17 -9 -26 -16 -9 -21 -8 -26 5
-3 8 -11 15 -16 15 -6 0 -5 -7 2 -16 11 -12 10 -18 -3 -32 -16 -15 -18 -15
-32 3 -15 19 -15 19 -8 1 5 -15 3 -18 -10 -13 -9 3 -17 2 -17 -3 0 -6 6 -10
13 -10 7 0 4 -7 -7 -15 -11 -8 -18 -17 -15 -19 5 -6 248 147 248 156 1 4 -8
16 -20 26 -20 19 -20 20 58 69 43 28 117 74 166 102 48 29 87 54 87 57 0 2 -7
16 -16 29 -9 13 -13 29 -9 35 3 5 4 10 2 10 -2 0 -82 -49 -178 -108z m161 48
c0 -18 -10 -25 -32 -21 -5 0 -8 -4 -8 -10 0 -8 -5 -8 -15 1 -17 14 -11 28 19
40 32 13 36 12 36 -10z m-62 -41 c1 -8 -9 -21 -25 -29 -15 -8 -52 -30 -80 -49
-44 -28 -55 -32 -68 -21 -12 10 -13 16 -4 27 10 11 14 11 21 1 8 -10 11 -10
15 0 2 6 9 10 14 6 5 -3 9 5 9 17 0 19 4 21 32 15 26 -5 30 -4 20 6 -10 10 -8
16 10 30 27 21 51 19 56 -3z m-208 -111 c0 -9 3 -8 10 2 7 11 12 12 21 3 8 -8
4 -15 -19 -27 -23 -12 -32 -13 -35 -3 -3 7 -6 5 -6 -5 -1 -19 -40 -50 -53 -42
-4 3 -8 1 -8 -4 0 -5 -11 -17 -25 -26 -23 -15 -27 -15 -40 -2 -13 13 -13 17 7
30 12 9 28 16 34 16 6 0 19 9 29 20 10 11 24 20 30 20 7 0 18 7 25 15 15 18
30 19 30 3z m-174 -119 c3 -6 1 -16 -5 -22 -9 -9 -14 -8 -22 3 -9 13 -10 12
-5 -2 7 -23 -11 -33 -30 -17 -14 11 -13 15 8 31 26 20 44 23 54 7z m-67 -54
c2 -13 -1 -16 -14 -12 -9 4 -14 3 -10 -3 11 -17 -24 -23 -40 -6 -14 14 -13 17
12 30 33 18 47 16 52 -9z"/>
<path d="M1905 2730 c-4 -6 -1 -10 4 -10 6 0 11 -5 11 -11 0 -7 -9 -9 -21 -6
-17 5 -18 3 -7 -11 7 -9 13 -19 14 -20 2 -2 9 10 18 26 13 26 14 31 1 36 -8 3
-17 1 -20 -4z"/>
<path d="M3800 2729 c0 -5 5 -7 10 -4 6 3 10 8 10 11 0 2 -4 4 -10 4 -5 0 -10
-5 -10 -11z"/>
<path d="M2270 2698 c0 -7 27 -21 59 -31 72 -23 105 -12 40 13 -70 27 -99 32
-99 18z"/>
<path d="M2055 2690 c3 -5 11 -10 16 -10 6 0 7 5 4 10 -3 6 -11 10 -16 10 -6
0 -7 -4 -4 -10z"/>
<path d="M2400 2692 c0 -5 7 -13 16 -16 10 -4 14 -1 12 6 -5 15 -28 23 -28 10z"/>
<path d="M3837 2692 c-3 -4 1 -13 9 -19 7 -7 15 -9 17 -5 3 4 -1 13 -9 19 -7
7 -15 9 -17 5z"/>
<path d="M2107 2683 c-4 -3 -7 -11 -7 -17 0 -6 5 -5 12 2 6 6 9 14 7 17 -3 3
-9 2 -12 -2z"/>
<path d="M3866 2652 c-3 -5 4 -14 14 -22 10 -8 17 -17 14 -22 -3 -4 2 -8 11
-8 9 0 13 -4 10 -10 -3 -5 -1 -10 5 -10 6 0 8 -4 5 -10 -3 -5 1 -10 10 -10 9
0 13 -4 10 -10 -3 -5 -1 -10 4 -10 17 0 14 7 -30 65 -44 59 -45 59 -53 47z"/>
<path d="M2079 2628 c-7 -13 -16 -26 -22 -29 -6 -4 -6 -9 0 -12 5 -4 17 9 26
28 18 38 15 48 -4 13z"/>
<path d="M751 2624 c0 -11 3 -14 6 -6 3 7 2 16 -1 19 -3 4 -6 -2 -5 -13z"/>
<path d="M446 2580 c7 -41 22 -62 36 -54 6 4 6 9 1 13 -5 3 -17 22 -26 41
l-18 35 7 -35z"/>
<path d="M540 2603 c0 -4 5 -15 10 -23 8 -13 10 -13 10 2 0 9 -4 20 -10 23 -5
3 -10 3 -10 -2z"/>
<path d="M3096 2591 c-17 -18 -16 -19 15 -18 25 2 34 -3 37 -17 3 -14 0 -17
-13 -12 -9 3 -26 1 -37 -5 -18 -9 -24 -8 -35 7 -11 15 -13 16 -13 1 0 -10 -7
-15 -20 -12 -13 3 -20 -2 -20 -12 0 -9 6 -13 14 -10 9 4 14 -2 14 -18 0 -17
-9 -27 -29 -34 -25 -8 -30 -7 -40 10 -6 12 -13 18 -16 15 -4 -3 1 -14 11 -25
15 -16 15 -19 1 -31 -9 -7 -18 -10 -21 -7 -3 2 -17 -7 -31 -21 -14 -14 -28
-21 -32 -15 -6 10 -45 33 -55 33 -3 0 -3 -7 0 -15 5 -12 2 -14 -12 -8 -17 6
-18 5 -4 -13 8 -10 19 -22 24 -25 5 -4 -5 -14 -23 -23 -31 -16 -31 -16 -31 9
0 14 -5 25 -11 25 -5 0 -7 -4 -4 -10 3 -5 2 -10 -4 -10 -5 0 -12 6 -14 13 -4
10 -6 10 -6 0 -1 -7 -10 -13 -21 -13 -11 0 -20 -5 -20 -11 0 -7 11 -8 30 -4
26 6 30 4 30 -14 0 -21 -16 -37 -22 -22 -1 5 -14 3 -28 -4 -22 -13 -23 -14 -5
-15 17 0 17 -2 5 -10 -13 -8 -13 -10 2 -10 9 0 30 11 46 25 17 14 32 25 35 25
3 0 68 39 144 86 76 48 156 97 178 109 51 29 63 48 45 70 -25 31 -46 36 -64
16z m-26 -86 c0 -8 -4 -15 -10 -15 -5 0 -7 7 -4 15 4 8 8 15 10 15 2 0 4 -7 4
-15z m-205 -135 c-3 -5 -13 -6 -21 -3 -12 4 -13 8 -3 14 15 9 32 2 24 -11z"/>
<path d="M500 2591 c0 -10 39 -59 40 -49 0 17 -20 58 -30 58 -5 0 -10 -4 -10
-9z"/>
<path d="M345 2570 c-4 -6 -4 -26 -1 -45 5 -26 12 -34 34 -37 37 -5 81 5 64
16 -7 4 -21 5 -31 1 -23 -7 -43 17 -39 46 3 24 -16 37 -27 19z"/>
<path d="M3960 2519 c0 -5 5 -7 10 -4 6 3 10 8 10 11 0 2 -4 4 -10 4 -5 0 -10
-5 -10 -11z"/>
<path d="M564 2509 c-3 -6 1 -18 10 -27 15 -15 16 -14 16 11 0 27 -13 36 -26
16z"/>
<path d="M2234 2489 c15 -12 29 -19 32 -16 8 8 -26 37 -43 37 -11 0 -7 -7 11
-21z"/>
<path d="M2972 2490 c7 -11 16 -20 21 -20 4 0 3 9 -3 20 -6 11 -15 20 -20 20
-6 0 -5 -9 2 -20z"/>
<path d="M216 2492 c-9 -14 10 -33 27 -26 21 8 22 20 1 28 -20 8 -22 8 -28 -2z"/>
<path d="M476 2473 c-3 -10 -9 -24 -12 -30 -3 -7 0 -13 7 -13 6 0 23 -12 37
-27 19 -22 23 -23 17 -8 -4 11 -8 25 -9 30 -1 6 -5 15 -9 22 -4 6 -4 18 -1 27
4 10 1 16 -9 16 -8 0 -17 -8 -21 -17z"/>
<path d="M2910 2459 c0 -12 -7 -15 -27 -12 l-28 4 25 -15 c14 -8 28 -15 31
-16 12 0 17 27 8 41 -7 12 -9 11 -9 -2z"/>
<path d="M268 2443 c6 -2 10 -9 6 -14 -3 -5 -1 -9 5 -9 17 0 21 18 5 24 -9 3
-19 6 -22 5 -4 0 -1 -3 6 -6z"/>
<path d="M3040 2445 c0 -2 17 -13 37 -23 35 -19 36 -20 16 -31 -12 -6 -29 -8
-39 -4 -13 5 -16 3 -11 -9 3 -9 0 -19 -8 -22 -9 -3 -13 2 -12 15 1 10 5 19 9
19 4 0 8 5 8 10 0 6 -11 10 -25 10 -22 0 -24 -2 -15 -26 13 -34 13 -39 -5 -24
-8 7 -13 16 -10 20 3 5 1 11 -5 15 -16 10 -12 -31 5 -45 8 -7 13 -16 10 -20
-9 -15 -40 -4 -50 18 -5 12 -13 22 -17 22 -14 0 -8 -37 8 -51 14 -12 14 -14
-2 -26 -19 -14 -44 -1 -44 23 0 8 -10 14 -22 13 -13 0 -17 -3 -10 -6 6 -2 12
-11 12 -18 0 -7 7 -16 16 -19 18 -7 9 -26 -13 -26 -8 0 -17 9 -20 20 -3 11
-12 20 -19 20 -12 0 -12 -4 -2 -20 7 -11 17 -20 22 -20 4 0 3 -7 -4 -15 -7 -9
-21 -13 -31 -10 -14 5 -17 2 -13 -9 3 -9 9 -16 14 -16 4 0 47 25 96 56 49 31
119 75 155 97 l67 41 -44 23 c-44 23 -54 27 -54 18z"/>
<path d="M4163 2418 c-42 -9 -42 -9 -23 -28 11 -11 20 -27 20 -36 0 -13 7 -15
38 -9 20 4 38 8 40 10 4 3 -26 76 -30 74 -2 -1 -22 -5 -45 -11z"/>
<path d="M3360 2365 c0 -8 7 -15 15 -15 9 0 12 6 9 15 -4 8 -10 15 -15 15 -5
0 -9 -7 -9 -15z"/>
<path d="M3400 2370 c0 -6 7 -10 15 -10 8 0 15 2 15 4 0 2 -7 6 -15 10 -8 3
-15 1 -15 -4z"/>
<path d="M3262 2344 c-24 -14 -41 -28 -38 -32 3 -3 14 2 24 11 10 9 33 23 52
31 19 8 28 15 20 16 -8 0 -34 -12 -58 -26z"/>
<path d="M4084 2345 c14 -13 26 -31 26 -39 0 -14 -47 -54 -53 -45 -7 11 -29
76 -30 87 0 6 -8 12 -17 12 -16 0 -16 -4 -6 -35 7 -19 15 -38 19 -41 27 -27
-14 -45 -54 -24 -25 14 -26 65 -1 79 9 6 12 11 7 11 -6 0 -16 -5 -22 -11 -7
-7 -41 -12 -76 -13 -39 -1 -71 -7 -82 -16 -9 -8 -30 -13 -46 -12 -16 1 -45 -6
-65 -17 -33 -18 -34 -20 -16 -30 25 -14 34 -47 16 -62 -30 -25 5 -29 81 -9 43
11 88 20 99 20 12 0 37 10 56 22 27 17 47 21 86 19 58 -3 110 18 116 46 6 26
-18 70 -42 76 -19 5 -19 3 4 -18z m-162 -42 c25 -22 23 -38 -9 -63 l-28 -22
-10 35 c-5 20 -13 39 -17 43 -28 27 34 34 64 7z m-80 -39 c19 -53 8 -65 -39
-42 -34 16 -41 43 -17 69 26 29 38 23 56 -27z m-92 9 c0 -10 7 -31 15 -46 14
-27 13 -28 -15 -34 -33 -6 -47 -3 -42 11 1 4 -5 20 -14 34 -16 24 -16 26 2 39
25 19 54 16 54 -4z"/>
<path d="M516 2352 c-2 -4 11 -28 30 -53 29 -40 37 -45 64 -41 21 3 30 10 30
23 0 11 -6 19 -13 19 -7 0 -34 13 -60 30 -25 16 -48 26 -51 22z"/>
<path d="M3335 2350 c-3 -5 -1 -10 4 -10 6 0 11 5 11 10 0 6 -2 10 -4 10 -3 0
-8 -4 -11 -10z"/>
<path d="M4230 2330 c0 -5 5 -10 10 -10 6 0 10 5 10 10 0 6 -4 10 -10 10 -5 0
-10 -4 -10 -10z"/>
<path d="M2636 2290 c26 -10 36 -34 22 -48 -8 -8 -17 -4 -31 14 -21 28 -34 26
-18 -3 27 -48 28 -48 50 -29 35 32 21 77 -23 75 -21 0 -21 0 0 -9z"/>
<path d="M3379 2250 c-256 -60 -572 -140 -578 -146 -2 -2 12 -4 32 -4 33 0 37
-3 37 -26 0 -25 2 -26 38 -21 20 3 180 40 355 81 175 42 322 74 327 71 5 -3 4
11 -1 31 -8 25 -7 39 2 50 15 18 25 20 -212 -36z m178 3 c5 -13 -15 -27 -40
-28 -23 -2 -35 24 -16 36 17 10 52 6 56 -8z m-77 -24 c0 -16 -5 -20 -20 -16
-11 3 -18 2 -15 -2 2 -4 -32 -16 -77 -25 -67 -15 -82 -15 -89 -4 -13 20 -11
25 10 31 14 3 18 1 14 -9 -3 -8 0 -14 6 -14 6 0 11 5 11 10 0 7 6 7 19 1 16
-9 18 -8 14 9 -7 25 13 26 40 3 19 -17 20 -17 15 4 -6 23 4 30 50 32 16 1 22
-5 22 -20z m-240 -45 c0 -14 3 -14 15 -4 12 10 15 10 15 -4 0 -9 -6 -16 -14
-16 -8 0 -21 -3 -29 -6 -17 -6 -31 33 -13 40 20 8 26 6 26 -10z m-43 -10 c8
-21 -7 -34 -42 -36 -17 -1 -34 -5 -40 -8 -15 -10 -71 -23 -63 -14 4 4 3 13 -3
20 -13 16 -1 23 42 26 19 1 45 8 59 15 32 17 39 16 47 -3z m-171 -45 c3 -6 1
-16 -6 -22 -9 -9 -15 -7 -27 8 -15 20 -15 20 -8 -2 5 -17 2 -23 -9 -23 -9 0
-16 2 -16 4 0 2 -3 11 -6 19 -8 22 59 37 72 16z m-83 -24 c7 -16 -8 -29 -23
-20 -5 3 -10 1 -10 -4 0 -6 -6 -11 -14 -11 -17 0 -28 37 -12 44 24 10 54 5 59
-9z"/>
<path d="M3015 2280 c-3 -5 -1 -10 4 -10 6 0 11 5 11 10 0 6 -2 10 -4 10 -3 0
-8 -4 -11 -10z"/>
<path d="M4253 2270 c1 -11 8 -20 15 -20 11 0 12 3 3 13 -6 8 -8 17 -4 20 3 4
1 7 -5 7 -6 0 -10 -9 -9 -20z"/>
<path d="M2780 2266 c0 -10 -9 -16 -22 -16 -20 0 -18 -13 3 -16 22 -3 23 -5
10 -13 -9 -6 -10 -11 -2 -15 6 -4 15 4 21 19 13 33 13 42 0 50 -5 3 -10 -1
-10 -9z"/>
<path d="M4273 2221 c1 -11 8 -21 15 -21 12 0 12 3 1 18 -7 9 -14 19 -16 21
-1 2 -1 -6 0 -18z"/>
<path d="M2690 2211 c0 -5 7 -14 15 -21 13 -10 15 -9 15 9 0 12 -6 21 -15 21
-8 0 -15 -4 -15 -9z"/>
<path d="M640 2197 c0 -9 -7 -17 -15 -17 -22 0 -19 -13 9 -39 l24 -23 -5 44
c-6 44 -13 64 -13 35z"/>
<path d="M4289 2177 c6 -8 8 -17 4 -20 -3 -4 -1 -7 5 -7 14 0 14 2 6 24 -3 9
-11 16 -16 16 -7 0 -6 -5 1 -13z"/>
<path d="M4300 2129 c0 -5 5 -7 10 -4 6 3 10 8 10 11 0 2 -4 4 -10 4 -5 0 -10
-5 -10 -11z"/>
<path d="M3573 2123 c-24 -9 -13 -23 17 -23 36 0 41 -24 9 -41 -15 -8 -19 -8
-15 0 5 7 -3 11 -19 11 -18 0 -29 6 -32 20 -3 11 -10 20 -15 20 -5 0 -6 -4 -3
-10 3 -6 -4 -10 -17 -10 -19 0 -20 2 -8 11 13 9 13 10 0 6 -8 -2 -17 -12 -19
-22 -2 -13 1 -16 13 -12 9 4 16 2 16 -3 0 -6 -4 -10 -10 -10 -5 0 -10 -7 -10
-15 0 -8 -3 -16 -7 -16 -36 -6 -53 -4 -57 7 -3 8 0 11 10 7 16 -6 19 14 4 37
-8 13 -10 13 -10 -2 0 -11 -5 -15 -15 -12 -13 5 -14 2 -5 -21 12 -32 13 -30
-19 -40 -18 -6 -22 -4 -16 6 5 8 -1 6 -12 -3 -28 -26 -58 -22 -72 8 -6 14 -8
31 -5 37 5 9 4 9 -6 0 -7 -6 -19 -9 -26 -6 -19 7 -29 -24 -16 -52 9 -20 8 -24
-11 -29 -36 -10 -39 -7 -31 26 6 29 5 31 -9 20 -13 -11 -16 -10 -20 5 -4 17
-5 17 -6 0 -1 -14 -5 -16 -20 -8 -18 10 -31 6 -31 -11 0 -5 8 -8 18 -7 44 4
58 -16 27 -41 -9 -7 -15 -8 -15 -2 0 5 -13 12 -30 14 -16 3 -30 1 -30 -4 0 -4
12 -9 28 -9 23 -2 24 -2 5 -6 -13 -2 -23 -9 -23 -14 0 -12 7 -11 50 2 19 6 49
13 65 15 17 3 73 16 125 29 52 13 140 33 195 45 120 27 133 36 115 81 -8 18
-16 27 -18 20 -2 -7 -8 -8 -15 -3 -7 5 -18 7 -24 5z m-43 -73 c0 -5 -4 -10
-10 -10 -5 0 -10 5 -10 10 0 6 5 10 10 10 6 0 10 -4 10 -10z m-280 -31 c0 -11
4 -18 9 -15 5 3 12 -1 15 -10 4 -11 1 -14 -11 -12 -17 3 -38 58 -22 58 5 0 9
-9 9 -21z"/>
<path d="M4316 2112 c-4 -6 -3 -12 3 -12 6 0 7 -7 4 -17 -5 -12 -3 -14 7 -8
10 6 12 4 7 -8 -3 -10 -2 -17 3 -17 5 0 7 -8 3 -17 -5 -14 -3 -15 6 -7 10 9 9
21 -6 55 -12 28 -22 39 -27 31z"/>
<path d="M3195 2087 c5 -24 3 -28 -12 -25 -10 2 -17 12 -16 22 1 13 -4 16 -21
12 -12 -3 -44 -10 -72 -16 -46 -10 -51 -13 -47 -34 4 -17 -1 -25 -16 -29 -16
-4 -21 0 -21 13 0 10 6 21 13 23 6 3 1 6 -12 6 -17 1 -22 -3 -17 -14 3 -8 1
-15 -4 -15 -6 0 -10 5 -10 10 0 6 -7 10 -15 10 -14 0 -14 -2 0 -23 8 -13 12
-27 8 -32 -5 -4 -1 -6 7 -3 8 3 70 18 138 33 67 16 122 34 122 40 0 6 -7 20
-16 31 -15 18 -15 18 -9 -9z m-45 -21 c0 -22 -37 -27 -43 -5 -4 15 0 19 19 19
14 0 24 -6 24 -14z m-66 -11 c7 -20 -23 -33 -34 -14 -5 7 -6 17 -4 21 9 13 32
9 38 -7z"/>
<path d="M3315 2036 c20 -30 30 -33 39 -10 10 27 8 40 -6 26 -8 -8 -17 -8 -30
-1 -19 10 -19 10 -3 -15z"/>
<path d="M4350 2010 c-12 -8 -12 -10 4 -10 15 0 16 -3 6 -15 -10 -12 -10 -15
0 -15 8 0 10 -3 7 -7 -8 -8 11 -33 25 -33 7 0 6 5 -1 13 -6 8 -8 17 -4 20 3 4
1 7 -6 7 -7 0 -11 6 -8 13 8 21 -6 37 -23 27z"/>
<path d="M3491 1971 c17 -17 28 -35 24 -40 -3 -7 3 -11 14 -11 12 0 21 2 21 4
0 11 -65 76 -77 76 -7 0 1 -13 18 -29z"/>
<path d="M3030 1975 c7 -8 10 -24 7 -36 -3 -13 -1 -19 6 -16 27 9 13 67 -15
67 -6 0 -5 -7 2 -15z"/>
<path d="M2980 1966 c0 -7 8 -20 17 -27 15 -12 16 -12 10 4 -4 10 -7 23 -7 28
0 5 -4 9 -10 9 -5 0 -10 -6 -10 -14z"/>
<path d="M3412 1956 c-1 -18 4 -25 23 -29 35 -6 43 12 15 35 -29 24 -35 23
-38 -6z"/>
<path d="M3338 1959 c-10 -5 -18 -17 -18 -24 0 -23 14 -17 27 10 6 14 10 25
10 25 -1 0 -10 -5 -19 -11z"/>
<path d="M3380 1945 c0 -14 4 -25 9 -25 5 0 9 11 9 25 0 14 -4 25 -9 25 -5 0
-9 -11 -9 -25z"/>
<path d="M3250 1946 c0 -2 7 -9 15 -16 12 -10 15 -10 15 4 0 9 -7 16 -15 16
-8 0 -15 -2 -15 -4z"/>
<path d="M3210 1929 c0 -5 5 -7 10 -4 6 3 10 8 10 11 0 2 -4 4 -10 4 -5 0 -10
-5 -10 -11z"/>
<path d="M3858 1843 c7 -3 16 -2 19 1 4 3 -2 6 -13 5 -11 0 -14 -3 -6 -6z"/>
<path d="M3911 1846 c8 -8 88 -10 95 -3 4 4 -17 7 -46 7 -29 0 -51 -2 -49 -4z"/>
<path d="M3888 1808 c-31 -11 -36 -25 -13 -34 20 -8 20 -54 -1 -54 -9 0 -14
-6 -12 -12 7 -21 254 -23 284 -4 20 14 26 14 51 1 55 -29 154 -12 161 29 12
61 -33 91 -125 82 -77 -7 -79 -7 -149 0 -41 4 -69 2 -85 -6 -17 -10 -24 -10
-27 -1 -4 13 -47 13 -84 -1z m66 -10 c3 -7 7 -30 10 -50 5 -37 4 -38 -29 -38
-31 0 -33 2 -37 43 -3 23 0 45 6 49 17 12 46 9 50 -4z m98 -38 c3 -55 -8 -63
-50 -34 -40 28 -21 83 30 84 12 0 17 -11 20 -50z m80 38 c26 -22 29 -56 5 -73
-39 -28 -52 -20 -54 35 -2 42 1 50 15 50 10 0 25 -6 34 -12z m111 -35 c3 -27
3 -50 1 -52 -12 -13 -60 17 -69 43 -8 23 -6 30 10 42 36 27 52 18 58 -33z m81
31 c22 -21 20 -61 -3 -74 -32 -17 -38 -12 -48 40 -10 48 -9 50 13 50 12 0 30
-7 38 -16z"/>
<path d="M1476 1701 c-3 -5 3 -11 14 -14 13 -3 20 0 20 9 0 15 -26 19 -34 5z"/>
<path d="M2005 1690 c-3 -5 -1 -10 4 -10 6 0 11 5 11 10 0 6 -2 10 -4 10 -3 0
-8 -4 -11 -10z"/>
<path d="M4382 1680 c0 -14 2 -19 5 -12 2 6 2 18 0 25 -3 6 -5 1 -5 -13z"/>
<path d="M3497 1664 c2 -6 0 -15 -6 -19 -6 -3 -11 0 -11 8 0 7 -7 14 -15 14
-19 0 -19 -3 6 -38 l20 -29 -33 0 c-26 0 -34 4 -36 20 -4 42 -6 47 -19 47 -8
0 -13 -12 -13 -31 0 -24 3 -27 10 -16 8 13 10 12 10 -2 0 -10 -5 -18 -10 -18
-6 0 -13 8 -16 18 -3 9 -10 26 -15 37 -7 16 -8 12 -6 -17 3 -36 1 -38 -25 -38
-20 0 -28 5 -28 18 0 14 2 15 10 2 8 -12 10 -9 10 13 0 28 -14 37 -23 15 -3
-8 -6 -6 -6 5 -1 9 -6 17 -12 17 -5 0 -7 -4 -4 -10 3 -5 1 -10 -4 -10 -6 0
-11 5 -11 11 0 12 -30 8 -33 -5 -1 -5 6 -10 17 -12 28 -4 42 -22 28 -36 -8 -8
-15 -8 -24 -1 -18 14 -58 23 -58 13 0 -5 6 -11 13 -13 10 -4 10 -6 0 -6 -7 -1
-13 -5 -13 -11 0 -11 346 -12 500 -1 102 7 110 12 96 67 -6 22 -12 24 -46 22
-31 -1 -37 -5 -28 -15 6 -7 21 -13 33 -13 28 0 39 -24 19 -41 -12 -10 -17 -9
-27 4 -7 8 -21 17 -32 19 -11 2 -19 11 -19 21 2 16 -32 34 -43 23 -4 -3 1 -6
10 -6 10 0 17 -5 17 -11 0 -7 -10 -5 -25 5 -24 16 -25 16 -25 -4 0 -12 5 -18
10 -15 6 3 10 1 10 -4 0 -6 -4 -11 -10 -11 -5 0 -10 -7 -10 -15 0 -20 -31 -19
-56 1 -19 15 -19 15 2 9 18 -5 21 -2 17 19 -4 18 0 25 14 29 10 3 2 5 -17 5
-19 0 -29 -2 -22 -5 6 -2 12 -12 12 -20 0 -13 -2 -13 -16 -2 -15 13 -17 11
-12 -19 4 -30 2 -32 -24 -32 -31 0 -32 2 -19 46 6 23 5 31 -4 31 -7 0 -11 -6
-8 -13z m183 -49 c0 -8 -7 -15 -15 -15 -13 0 -14 3 -3 15 16 18 18 18 18 0z
m35 -5 c3 -5 1 -10 -4 -10 -6 0 -11 5 -11 10 0 6 2 10 4 10 3 0 8 -4 11 -10z"/>
<path d="M1152 1653 c6 -7 13 -11 17 -8 4 2 13 -4 20 -14 10 -13 21 -16 42
-12 16 3 71 4 122 1 123 -7 180 -2 170 13 -4 7 1 6 11 -2 15 -13 19 -13 27 0
6 10 9 10 9 2 0 -7 12 -13 26 -13 20 0 25 4 22 21 -3 21 -8 22 -175 23 -125 2
-173 -1 -173 -9 0 -7 -7 -12 -15 -12 -8 0 -15 6 -15 13 0 8 -17 11 -49 11 -39
-1 -48 -4 -39 -14z"/>
<path d="M1635 1662 c-3 -3 -5 -13 -5 -22 0 -23 77 -24 104 -1 18 15 19 15 13
-1 -4 -12 -1 -18 7 -18 12 0 26 20 26 36 0 2 -15 4 -34 4 -24 0 -36 -5 -39
-17 -4 -17 -5 -17 -6 0 0 9 -4 17 -8 18 -5 0 -18 2 -31 3 -12 2 -24 0 -27 -2z"/>
<path d="M1790 1640 c0 -13 7 -20 19 -20 14 0 19 6 18 20 -1 12 -8 20 -19 20
-11 0 -18 -7 -18 -20z"/>
<path d="M1434 1545 c-8 -34 1 -55 25 -55 22 0 38 38 27 65 -9 25 -45 18 -52
-10z m36 -14 c0 -11 -4 -23 -10 -26 -6 -4 -10 5 -10 19 0 14 5 26 10 26 6 0
10 -9 10 -19z"/>
<path d="M1511 1548 c0 -13 -1 -32 -3 -43 -2 -15 3 -21 21 -23 16 -3 22 0 18
10 -2 7 -11 12 -18 10 -8 -2 -4 6 9 18 27 25 24 44 -6 48 -17 3 -22 -2 -21
-20z m29 2 c0 -5 -5 -10 -11 -10 -5 0 -7 5 -4 10 3 6 8 10 11 10 2 0 4 -4 4
-10z"/>
<path d="M1577 1557 c-6 -17 3 -32 23 -39 11 -4 9 -8 -9 -15 -15 -6 -20 -12
-13 -17 17 -10 54 32 50 57 -3 25 -42 36 -51 14z m33 -7 c0 -5 -5 -10 -11 -10
-5 0 -7 5 -4 10 3 6 8 10 11 10 2 0 4 -4 4 -10z"/>
<path d="M1662 1529 c2 -23 8 -44 14 -46 19 -6 40 22 39 53 0 24 -5 30 -28 32
-27 3 -28 2 -25 -39z m38 21 c0 -5 -4 -10 -10 -10 -5 0 -10 5 -10 10 0 6 5 10
10 10 6 0 10 -4 10 -10z m0 -40 c0 -5 -4 -10 -10 -10 -5 0 -10 5 -10 10 0 6 5
10 10 10 6 0 10 -4 10 -10z"/>
<path d="M3266 1545 c-14 -14 -30 -25 -36 -25 -5 0 -10 -7 -10 -15 0 -8 -9
-15 -20 -15 -16 0 -20 6 -18 32 2 19 -2 33 -11 36 -10 3 -12 -4 -9 -32 4 -32
2 -36 -20 -36 -13 0 -21 4 -18 8 2 4 1 14 -5 22 -7 13 -9 12 -9 -2 0 -31 -18
-28 -37 5 -12 20 -28 33 -42 34 l-22 2 20 -35 20 -34 -31 0 c-17 0 -28 3 -25
6 9 9 -12 46 -23 39 -4 -3 -6 -15 -2 -27 4 -18 2 -20 -17 -15 -14 3 -21 1 -18
-6 3 -9 69 -12 248 -10 134 1 304 2 378 2 l134 1 -20 23 c-11 12 -26 32 -32
45 -10 18 -19 22 -51 20 -22 -2 -40 -6 -40 -10 0 -3 -9 -4 -20 -1 -25 7 -36
-18 -20 -46 14 -28 -10 -29 -34 -2 -14 15 -15 24 -6 40 12 23 1 28 -17 10 -7
-7 -9 -25 -6 -40 5 -26 3 -29 -20 -29 -22 0 -25 4 -22 27 4 36 -4 53 -22 53
-12 0 -13 -3 -4 -13 7 -10 7 -17 0 -24 -8 -8 -8 -13 0 -17 18 -11 13 -26 -9
-26 -20 0 -24 12 -20 58 1 18 -4 22 -29 22 -19 0 -39 -9 -55 -25z m66 -20 c3
-31 1 -35 -18 -35 -12 0 -25 7 -28 16 -10 25 3 54 24 54 13 0 19 -9 22 -35z
m301 6 c12 -20 14 -32 7 -36 -18 -11 -37 2 -48 34 -10 27 -9 31 6 31 10 0 25
-13 35 -29z m-569 -21 l7 -25 -15 25 c-17 28 -21 50 -7 35 5 -6 12 -21 15 -35z
m476 9 c0 -11 -4 -17 -10 -14 -5 3 -10 15 -10 26 0 11 5 17 10 14 6 -3 10 -15
10 -26z m-270 -14 c0 -8 -7 -15 -16 -15 -14 0 -14 3 -4 15 7 8 14 15 16 15 2
0 4 -7 4 -15z m304 0 c3 -9 0 -15 -9 -15 -9 0 -12 6 -9 15 4 8 7 15 9 15 2 0
5 -7 9 -15z"/>
<path d="M3100 1550 c0 -5 5 -10 10 -10 6 0 10 5 10 10 0 6 -4 10 -10 10 -5 0
-10 -4 -10 -10z"/>
<path d="M3220 1545 c0 -9 5 -15 11 -13 6 2 11 8 11 13 0 5 -5 11 -11 13 -6 2
-11 -4 -11 -13z"/>
<path d="M1420 1481 c0 -5 7 -12 16 -15 14 -5 15 -4 4 9 -14 17 -20 19 -20 6z"/>
<path d="M2176 1465 c-8 -8 -19 -15 -25 -15 -6 0 -11 -11 -11 -25 0 -15 -11
-36 -26 -50 -18 -16 -22 -25 -12 -25 7 0 19 5 26 12 7 7 12 8 12 3 0 -17 68
-16 78 1 8 14 10 14 21 0 17 -20 51 -4 51 25 0 11 4 29 10 39 19 36 -91 67
-124 35z m111 -31 c-3 -3 -12 -4 -19 -1 -8 3 -5 6 6 6 11 1 17 -2 13 -5z m-39
-32 c3 -9 -3 -11 -22 -6 -17 4 -35 0 -52 -11 -33 -22 -42 -13 -14 15 23 23 80
25 88 2z"/>
<path d="M1180 1457 c-14 -7 -26 -23 -28 -36 -3 -20 -1 -21 17 -12 20 11 46
49 39 56 -2 2 -15 -2 -28 -8z"/>
<path d="M1470 1443 c0 -11 11 -25 38 -47 16 -14 22 -16 21 -5 0 15 -59 67
-59 52z"/>
<path d="M3305 1430 c-3 -5 -1 -10 4 -10 6 0 11 5 11 10 0 6 -2 10 -4 10 -3 0
-8 -4 -11 -10z"/>
<path d="M3410 1430 c0 -5 5 -10 11 -10 5 0 7 5 4 10 -3 6 -8 10 -11 10 -2 0
-4 -4 -4 -10z"/>
<path d="M3490 1430 c0 -5 5 -10 10 -10 6 0 10 5 10 10 0 6 -4 10 -10 10 -5 0
-10 -4 -10 -10z"/>
<path d="M3068 1423 c7 -3 16 -2 19 1 4 3 -2 6 -13 5 -11 0 -14 -3 -6 -6z"/>
<path d="M2960 1390 c0 -5 5 -10 11 -10 5 0 7 5 4 10 -3 6 -8 10 -11 10 -2 0
-4 -4 -4 -10z"/>
<path d="M3100 1390 c0 -5 5 -10 10 -10 6 0 10 5 10 10 0 6 -4 10 -10 10 -5 0
-10 -4 -10 -10z"/>
<path d="M3250 1390 c0 -5 5 -10 10 -10 6 0 10 5 10 10 0 6 -4 10 -10 10 -5 0
-10 -4 -10 -10z"/>
<path d="M3300 1390 c0 -5 5 -10 10 -10 6 0 10 5 10 10 0 6 -4 10 -10 10 -5 0
-10 -4 -10 -10z"/>
<path d="M3390 1390 c17 -11 47 -14 36 -3 -3 4 -17 8 -29 10 -17 2 -19 1 -7
-7z"/>
<path d="M3520 1391 c0 -10 26 -9 36 2 4 4 -2 7 -14 7 -12 0 -22 -4 -22 -9z"/>
<path d="M2215 1330 c-19 -8 -19 -9 2 -9 12 -1 25 4 28 9 7 12 -2 12 -30 0z"/>
<path d="M3499 1328 c-12 -8 -14 -18 -8 -37 13 -43 30 -191 30 -271 0 -69 2
-76 20 -77 18 -2 20 2 15 30 -3 18 -8 86 -12 152 -3 66 -6 140 -8 164 -2 47
-11 56 -37 39z"/>
<path d="M3631 1306 c-7 -21 -21 -47 -30 -57 -9 -11 -17 -24 -17 -29 -1 -6 -2
-11 -4 -12 -6 -8 -4 -111 3 -115 4 -2 5 -9 2 -14 -4 -5 -1 -9 4 -9 6 0 11 -6
11 -13 0 -7 8 -22 18 -33 9 -11 22 -28 27 -38 11 -19 112 -56 154 -56 29 0
131 31 131 40 0 3 8 15 19 26 29 32 55 124 42 149 -3 6 -7 18 -8 29 -4 26 -62
106 -77 106 -3 0 10 -20 28 -45 39 -50 54 -117 38 -162 -9 -23 -11 -24 -12 -8
-1 11 -2 23 -2 26 1 3 -5 6 -12 6 -7 0 -13 -6 -13 -14 0 -7 5 -13 10 -13 5 0
6 -7 3 -16 -3 -8 -2 -12 4 -9 6 3 10 2 10 -3 0 -14 -39 -59 -40 -46 0 5 5 15
12 22 9 9 9 12 0 12 -6 0 -9 7 -6 15 4 8 2 15 -2 15 -5 0 -9 26 -9 57 0 32 -4
67 -9 78 -8 18 -8 19 5 3 11 -13 18 -15 29 -7 13 9 12 10 -3 5 -15 -5 -17 -2
-12 14 4 14 1 22 -12 28 -12 4 -18 17 -18 36 0 26 -5 31 -50 46 -59 19 -122
18 -164 -3 -28 -14 -30 -14 -33 6 -2 16 -6 12 -17 -17z m107 -6 c3 -8 0 -10
-9 -6 -8 4 -6 1 4 -7 17 -14 16 -16 -18 -32 -19 -10 -42 -26 -49 -37 -12 -17
-13 -15 -12 24 2 35 7 45 32 60 32 19 45 19 52 -2z m103 10 c19 -11 26 -44 10
-54 -16 -10 -70 15 -64 30 3 8 -4 18 -18 23 -22 9 -20 10 14 10 21 1 47 -4 58
-9z m-85 -95 c-14 -11 -15 -13 -1 -18 8 -4 13 -12 11 -19 -3 -7 -7 -26 -10
-41 -4 -15 -10 -25 -15 -22 -5 2 -12 -2 -15 -11 -3 -8 -10 -12 -16 -9 -5 3
-10 -1 -10 -10 0 -14 4 -13 26 4 33 26 44 26 44 1 0 -11 -4 -20 -10 -20 -5 0
-10 -7 -10 -16 0 -8 5 -12 10 -9 6 3 10 1 10 -4 0 -31 -79 11 -81 42 0 7 -3
39 -5 72 -7 68 5 85 57 77 29 -4 30 -6 15 -17z m98 9 c9 -8 16 -26 16 -40 0
-18 -5 -24 -22 -24 -18 0 -20 -2 -8 -9 8 -6 17 -8 21 -5 4 2 9 -2 12 -10 4 -9
0 -13 -11 -11 -9 2 -25 4 -35 4 -10 1 -16 5 -12 10 3 5 1 12 -5 16 -17 11 -11
45 8 46 13 0 14 2 2 6 -43 14 -44 16 -15 23 17 4 31 8 32 9 1 0 9 -6 17 -15z
m-247 -26 c-3 -8 -6 -5 -6 6 -1 11 2 17 5 13 3 -3 4 -12 1 -19z m-2 -57 c-2
-35 -15 -36 -15 -2 0 18 4 30 8 27 5 -3 8 -14 7 -25z m245 -48 c0 -7 5 -13 11
-13 6 0 9 -10 7 -22 -2 -14 -13 -24 -32 -29 -35 -10 -39 -8 -30 15 4 9 13 15
20 12 8 -3 14 1 14 10 0 8 -4 12 -10 9 -14 -9 -30 3 -24 18 6 17 44 16 44 0z
m-232 -28 c-3 -3 -9 2 -12 12 -6 14 -5 15 5 6 7 -7 10 -15 7 -18z m124 -55 c6
0 9 -3 5 -6 -8 -8 -65 27 -72 44 -3 8 9 2 26 -12 17 -14 35 -26 41 -26z m123
-2 c-11 -6 -21 -12 -23 -13 -1 -1 0 -9 4 -18 5 -14 10 -15 27 -6 17 9 19 9 11
-1 -6 -6 -27 -15 -46 -19 -33 -8 -35 -7 -36 19 0 22 5 29 31 38 43 14 56 14
32 0z m-131 -38 c16 -6 26 -13 23 -16 -7 -7 -73 21 -82 36 -5 9 -2 9 11 1 11
-6 32 -16 48 -21z"/>
<path d="M3820 1287 c0 -8 7 -18 16 -21 11 -4 14 -1 12 11 -4 21 -28 30 -28
10z"/>
<path d="M3816 975 c4 -8 11 -15 16 -15 6 0 5 6 -2 15 -7 8 -14 15 -16 15 -2
0 -1 -7 2 -15z"/>
<path d="M1476 1302 c-9 -18 -15 -62 -8 -62 4 0 18 13 30 29 21 28 21 29 2 34
-11 3 -22 2 -24 -1z"/>
<path d="M3990 1301 c0 -6 4 -13 10 -16 6 -3 7 1 4 9 -7 18 -14 21 -14 7z"/>
<path d="M1545 1273 c15 -15 73 -24 80 -13 3 6 0 10 -8 10 -8 0 -30 3 -48 6
-23 5 -31 3 -24 -3z"/>
<path d="M2000 1268 c0 -9 5 -20 10 -23 13 -8 13 5 0 25 -8 13 -10 13 -10 -2z"/>
<path d="M4003 1255 c-8 -22 5 -31 20 -15 10 10 9 11 -2 5 -11 -6 -13 -4 -8 8
3 10 4 17 1 17 -2 0 -7 -7 -11 -15z"/>
<path d="M2670 1230 c0 -5 5 -10 10 -10 6 0 10 5 10 10 0 6 -4 10 -10 10 -5 0
-10 -4 -10 -10z"/>
<path d="M2246 1203 c-6 -14 -5 -15 5 -6 7 7 10 15 7 18 -3 3 -9 -2 -12 -12z"/>
<path d="M4011 1184 c0 -11 3 -14 6 -6 3 7 2 16 -1 19 -3 4 -6 -2 -5 -13z"/>
<path d="M3930 1150 c0 -5 7 -10 15 -10 18 0 20 -16 3 -23 -8 -3 -6 -6 5 -6
23 -1 22 26 -3 39 -14 7 -20 7 -20 0z"/>
<path d="M4027 1140 c-23 -27 -22 -39 3 -33 13 3 20 14 20 29 0 29 -1 29 -23
4z"/>
<path d="M2350 1100 c0 -5 5 -10 10 -10 6 0 10 5 10 10 0 6 -4 10 -10 10 -5 0
-10 -4 -10 -10z"/>
<path d="M2147 1093 c-4 -3 -7 -11 -7 -17 0 -6 5 -5 12 2 6 6 9 14 7 17 -3 3
-9 2 -12 -2z"/>
<path d="M2193 1073 c0 -7 9 -13 19 -13 10 0 18 6 18 14 0 8 -8 14 -18 13 -10
0 -19 -7 -19 -14z"/>
<path d="M2315 1070 c3 -5 13 -10 21 -10 8 0 12 5 9 10 -3 6 -13 10 -21 10 -8
0 -12 -4 -9 -10z"/>
<path d="M4721 1055 c1 -19 18 -51 18 -35 0 8 -4 22 -9 30 -5 8 -9 11 -9 5z"/>
<path d="M4033 1043 c-8 -3 -13 -23 -13 -51 0 -45 0 -46 16 -24 18 26 15 81
-3 75z"/>
<path d="M2050 1012 c0 -13 40 -62 51 -62 17 0 9 19 -11 25 -11 3 -20 13 -20
20 0 8 -4 17 -10 20 -5 3 -10 2 -10 -3z"/>
<path d="M2115 930 c3 -5 10 -10 16 -10 5 0 9 5 9 10 0 6 -7 10 -16 10 -8 0
-12 -4 -9 -10z"/>
<path d="M4764 904 c3 -9 6 -27 6 -40 0 -14 3 -23 8 -21 4 3 8 -7 9 -21 3 -62
13 -135 22 -170 23 -85 84 -520 75 -534 -4 -6 -126 -8 -297 -6 -226 2 -291 0
-294 -9 -3 -7 -9 -13 -15 -13 -6 0 -8 7 -4 15 6 16 -9 21 -19 5 -3 -5 -12 -7
-19 -4 -17 7 -30 -12 -15 -22 8 -5 8 -9 -1 -14 -10 -6 -9 -13 4 -31 9 -13 16
-21 16 -18 0 3 33 0 73 -7 48 -9 174 -13 380 -13 l307 -1 0 383 -1 383 -22 14
c-12 8 -27 14 -34 15 -13 0 -53 48 -53 64 0 6 -5 11 -11 11 -7 0 -9 10 -7 25
4 17 1 25 -9 25 -10 0 -12 -6 -8 -20 5 -14 2 -20 -9 -20 -9 0 -16 6 -16 14 0
17 -37 28 -44 12 -3 -7 -5 -7 -5 2 -1 6 -6 12 -12 12 -6 0 -8 -7 -5 -16z"/>
<path d="M915 880 c3 -5 8 -10 11 -10 2 0 4 5 4 10 0 6 -5 10 -11 10 -5 0 -7
-4 -4 -10z"/>
<path d="M1080 875 c7 -8 20 -15 28 -15 13 0 12 3 -4 15 -25 19 -40 19 -24 0z"/>
<path d="M1144 878 c3 -10 1 -18 -4 -18 -20 0 -9 -18 14 -22 18 -4 23 -1 18
10 -4 11 -1 13 8 7 9 -6 11 -4 6 4 -5 7 -10 10 -14 7 -3 -3 -11 2 -19 12 -14
16 -14 16 -9 0z"/>
<path d="M870 873 c8 -3 18 -11 22 -16 3 -6 26 -12 50 -14 47 -5 50 3 4 11
-16 3 -34 10 -40 16 -5 5 -19 10 -30 9 -15 0 -17 -2 -6 -6z"/>
<path d="M1006 853 c-6 -14 -5 -15 5 -6 7 7 10 15 7 18 -3 3 -9 -2 -12 -12z"/>
<path d="M1054 858 c-4 -7 -4 -10 1 -6 4 4 15 2 24 -5 14 -11 14 -10 2 6 -16
20 -18 21 -27 5z"/>
<path d="M1298 853 c7 -3 16 -2 19 1 4 3 -2 6 -13 5 -11 0 -14 -3 -6 -6z"/>
<path d="M2152 846 c7 -8 15 -12 17 -11 5 6 -10 25 -20 25 -5 0 -4 -6 3 -14z"/>
<path d="M3015 822 c-30 -4 -61 -22 -37 -22 12 0 11 -17 -5 -74 -3 -12 -1 -16
6 -12 16 10 14 -17 -3 -39 -12 -17 -12 -21 3 -32 14 -10 9 -12 -29 -13 -36 0
-42 -3 -27 -11 15 -9 17 -19 12 -64 -4 -29 -4 -71 0 -93 l6 -39 147 -2 c81 -1
174 -4 206 -6 41 -4 62 -1 68 8 4 6 5 59 1 117 -6 98 -8 107 -34 131 -37 34
-49 95 -23 114 13 9 16 17 9 24 -10 10 -238 20 -300 13z"/>
<path d="M858 793 c7 -3 16 -2 19 1 4 3 -2 6 -13 5 -11 0 -14 -3 -6 -6z"/>
<path d="M1057 788 c2 -5 10 -8 18 -8 8 0 16 3 18 8 3 4 -5 7 -18 7 -13 0 -21
-3 -18 -7z"/>
<path d="M3728 782 c-10 -2 -18 -7 -18 -12 0 -4 9 -6 19 -3 17 4 19 0 15 -39
-6 -49 9 -35 19 19 6 33 -3 43 -35 35z"/>
<path d="M880 765 c0 -8 9 -15 20 -15 24 0 27 15 4 24 -22 9 -24 8 -24 -9z"/>
<path d="M3440 742 c0 -31 4 -38 20 -38 11 0 20 5 21 11 0 5 4 1 9 -10 6 -15
9 -8 9 28 1 26 -3 47 -9 47 -5 0 -10 -7 -10 -15 0 -8 -4 -15 -10 -15 -5 0 -10
7 -10 15 0 8 -4 15 -10 15 -5 0 -10 -17 -10 -38z"/>
<path d="M3530 736 c0 -42 2 -46 24 -46 28 0 34 14 27 55 -4 21 -13 31 -29 33
-20 3 -22 -1 -22 -42z m38 22 c-6 -18 -28 -21 -28 -4 0 9 7 16 16 16 9 0 14
-5 12 -12z m0 -46 c2 -7 -3 -12 -12 -12 -9 0 -16 7 -16 16 0 17 22 14 28 -4z"/>
<path d="M3641 766 c-7 -8 -11 -27 -9 -43 2 -22 8 -28 28 -28 33 0 36 38 3 43
-13 2 -23 8 -23 13 0 5 10 14 23 19 15 6 17 9 6 9 -9 1 -22 -5 -28 -13z m29
-52 c0 -8 -4 -12 -10 -9 -5 3 -10 10 -10 16 0 5 5 9 10 9 6 0 10 -7 10 -16z"/>
<path d="M3804 768 c-5 -7 -2 -9 8 -5 22 8 30 -3 15 -21 -9 -12 -9 -16 1 -19
20 -7 13 -26 -8 -20 -24 6 -27 -8 -4 -17 24 -9 55 22 44 43 -5 9 -11 24 -14
34 -6 19 -31 23 -42 5z"/>
<path d="M3890 771 c0 -6 6 -8 14 -5 23 9 27 -12 6 -31 -31 -28 -26 -55 11
-55 17 0 28 4 24 10 -3 6 -16 10 -28 10 l-22 0 24 19 c28 22 25 55 -7 59 -12
2 -22 -1 -22 -7z"/>
<path d="M3973 763 c-4 -10 2 -23 15 -34 26 -20 28 -29 7 -29 -8 0 -15 -4 -15
-10 0 -13 6 -13 31 0 21 12 25 41 9 71 -13 23 -38 25 -47 2z m37 -8 c0 -8 -7
-15 -15 -15 -16 0 -20 12 -8 23 11 12 23 8 23 -8z"/>
<path d="M4067 773 c-13 -13 -7 -71 9 -84 14 -11 18 -10 30 6 24 33 -12 105
-39 78z m31 -41 c2 -18 -1 -32 -6 -32 -12 0 -22 24 -22 52 0 32 25 15 28 -20z"/>
<path d="M4147 773 c-14 -13 -7 -25 8 -13 12 10 16 9 21 -5 5 -11 1 -21 -9
-27 -10 -5 -17 -18 -17 -28 0 -15 7 -20 28 -19 l27 0 -25 10 c-23 10 -24 11
-7 23 21 16 22 52 1 60 -19 7 -19 7 -27 -1z"/>
<path d="M4237 773 c-14 -14 -6 -45 13 -50 25 -7 26 -19 3 -32 -10 -6 -13 -11
-6 -11 22 0 44 31 37 54 -12 38 -32 55 -47 39z m31 -21 c2 -7 -3 -12 -12 -12
-9 0 -16 7 -16 16 0 17 22 14 28 -4z"/>
<path d="M4330 761 c0 -10 3 -33 6 -50 5 -25 11 -31 28 -29 29 4 33 73 6 88
-28 15 -40 12 -40 -9z m40 -11 c0 -5 -7 -10 -15 -10 -8 0 -15 5 -15 10 0 6 7
10 15 10 8 0 15 -4 15 -10z m10 -46 c0 -17 -22 -14 -28 4 -2 7 3 12 12 12 9 0
16 -7 16 -16z"/>
<path d="M930 760 c0 -6 21 -10 47 -10 56 0 54 6 -4 14 -25 3 -43 1 -43 -4z"/>
<path d="M1040 760 c-9 -6 -10 -10 -3 -10 6 0 15 5 18 10 8 12 4 12 -15 0z"/>
<path d="M1075 761 c-3 -5 2 -11 10 -15 8 -3 17 -1 20 3 3 5 -2 11 -10 15 -8
3 -17 1 -20 -3z"/>
<path d="M1131 754 c0 -11 3 -14 6 -6 3 7 2 16 -1 19 -3 4 -6 -2 -5 -13z"/>
<path d="M1653 763 c-15 -5 -17 -23 -4 -23 5 0 11 7 15 15 3 8 4 15 3 14 -1 0
-8 -3 -14 -6z"/>
<path d="M1156 748 c6 -9 94 -8 94 1 0 3 -22 6 -49 7 -28 0 -48 -3 -45 -8z"/>
<path d="M1596 745 c-4 -10 1 -15 14 -15 13 0 18 5 14 15 -4 8 -10 15 -14 15
-4 0 -10 -7 -14 -15z"/>
<path d="M1670 739 c0 -5 5 -7 10 -4 6 3 10 8 10 11 0 2 -4 4 -10 4 -5 0 -10
-5 -10 -11z"/>
<path d="M800 710 c0 -5 -6 -10 -12 -10 -7 0 -26 -9 -42 -19 l-29 -19 26 1
c14 1 23 5 20 10 -2 4 7 11 20 16 27 10 45 31 28 31 -6 0 -11 -4 -11 -10z"/>
<path d="M925 700 c-3 -5 -3 -15 1 -22 5 -8 2 -9 -9 -5 -9 3 -19 2 -22 -3 -4
-6 20 -11 57 -11 35 -1 102 -3 151 -4 48 -2 87 1 87 6 0 5 -3 8 -7 8 -5 -1
-17 -1 -28 1 l-20 1 20 9 c16 7 17 9 3 9 -9 1 -20 -3 -23 -9 -3 -5 -18 -10
-33 -10 -21 0 -24 2 -12 10 13 8 13 10 -1 10 -9 0 -22 -7 -29 -14 -8 -10 -19
-12 -33 -7 -12 4 -37 7 -55 5 -29 -2 -33 1 -29 17 5 20 -7 26 -18 9z"/>
<path d="M1630 688 c19 -12 38 -21 43 -20 4 1 7 -2 7 -7 0 -5 7 -11 15 -15 8
-3 15 -1 15 4 0 9 -91 60 -107 60 -4 0 8 -10 27 -22z"/>
<path d="M517 694 c-4 -4 -7 -14 -7 -23 0 -11 3 -12 11 -4 6 6 10 16 7 23 -2
6 -7 8 -11 4z"/>
<path d="M1262 678 c-23 -11 -41 -22 -39 -24 8 -9 109 -6 118 3 8 8 -4 9 -38
6 l-48 -4 33 15 c17 8 32 18 32 21 0 9 -13 5 -58 -17z"/>
<path d="M803 679 c-33 -12 -28 -17 12 -16 19 1 35 4 35 8 0 12 -25 17 -47 8z"/>
<path d="M2934 668 l-19 -23 23 19 c21 18 27 26 19 26 -2 0 -12 -10 -23 -22z"/>
<path d="M1570 665 c0 -3 14 -11 30 -20 17 -9 30 -11 30 -6 0 5 -13 14 -30 20
-16 5 -30 8 -30 6z"/>
<path d="M4565 650 c-19 -8 -19 -9 3 -9 12 -1 22 4 22 9 0 6 -1 10 -2 9 -2 0
-12 -4 -23 -9z"/>
<path d="M1375 628 c-91 -65 -134 -101 -130 -109 3 -4 15 1 25 11 11 11 27 20
36 20 8 0 12 5 9 10 -3 6 1 10 10 10 9 0 14 4 11 9 -8 13 42 43 57 35 7 -4 9
-4 5 1 -4 4 -3 14 3 22 16 18 9 16 -26 -9z"/>
<path d="M1458 643 c6 -2 18 -2 25 0 6 3 1 5 -13 5 -14 0 -19 -2 -12 -5z"/>
<path d="M770 613 c0 -14 2 -15 9 -4 6 9 11 10 15 2 4 -6 17 -11 29 -11 27 0
11 15 -25 24 -23 5 -28 3 -28 -11z"/>
<path d="M1691 614 c0 -11 3 -14 6 -6 3 7 2 16 -1 19 -3 4 -6 -2 -5 -13z"/>
<path d="M931 611 c-8 -6 -9 -11 -3 -15 6 -3 14 -1 17 5 9 14 2 20 -14 10z"/>
<path d="M965 610 c-3 -5 3 -10 15 -10 12 0 18 5 15 10 -3 6 -10 10 -15 10 -5
0 -12 -4 -15 -10z"/>
<path d="M1140 605 c0 -11 11 -15 43 -15 29 0 38 3 27 9 -8 6 -18 8 -22 5 -4
-3 -17 0 -28 6 -16 9 -20 8 -20 -5z"/>
<path d="M1500 610 c-9 -6 -10 -10 -3 -10 6 0 15 5 18 10 8 12 4 12 -15 0z"/>
<path d="M858 603 c6 -2 18 -2 25 0 6 3 1 5 -13 5 -14 0 -19 -2 -12 -5z"/>
<path d="M1085 600 c26 -11 35 -12 35 -2 0 4 -12 8 -27 9 -24 1 -25 1 -8 -7z"/>
<path d="M1575 600 c-3 -6 1 -7 10 -4 11 5 14 2 8 -12 -5 -12 -3 -15 6 -9 8 4
17 2 22 -6 4 -7 11 -10 15 -6 4 3 -4 15 -17 26 -27 23 -35 25 -44 11z"/>
<path d="M1847 463 c1 -130 5 -154 20 -139 8 8 6 172 -3 228 -12 77 -19 42
-17 -89z"/>
<path d="M415 560 c10 -12 25 -18 32 -15 8 2 12 1 9 -4 -3 -4 5 -18 18 -30 18
-17 25 -19 29 -8 7 19 -1 28 -49 55 -52 27 -63 28 -39 2z"/>
<path d="M1394 564 c-18 -14 -18 -14 6 -3 31 14 36 19 24 19 -6 0 -19 -7 -30
-16z"/>
<path d="M1970 561 c0 -5 7 -15 17 -22 15 -13 15 -12 4 9 -12 23 -21 28 -21
13z"/>
<path d="M4513 563 c9 -2 25 -2 35 0 9 3 1 5 -18 5 -19 0 -27 -2 -17 -5z"/>
<path d="M3839 548 c-44 -15 -48 -71 -6 -82 20 -5 20 -6 4 -24 -9 -10 -17 -24
-17 -30 0 -7 -3 -12 -8 -12 -4 0 -13 -9 -19 -19 -12 -19 -8 -19 79 -20 74 -1
89 2 76 12 -20 16 -38 70 -38 116 0 57 -23 76 -71 59z m-9 -50 c0 -18 -2 -20
-9 -8 -6 8 -7 18 -5 22 9 14 14 9 14 -14z"/>
<path d="M4087 553 c-3 -3 0 -12 8 -19 7 -8 11 -23 8 -35 -4 -15 0 -27 12 -35
11 -8 14 -14 7 -14 -6 0 -9 -7 -6 -15 4 -8 1 -21 -5 -29 -6 -7 -9 -21 -5 -30
3 -9 1 -16 -4 -16 -15 0 -42 58 -42 91 0 15 -4 39 -10 53 -7 20 -6 27 8 35 14
9 11 10 -14 11 -17 0 -46 -10 -65 -23 -27 -18 -34 -30 -37 -63 -3 -33 2 -45
23 -66 36 -36 105 -51 179 -38 73 12 101 33 84 64 -7 11 -11 31 -9 44 2 16 -3
25 -17 29 -11 3 -23 14 -25 25 -3 11 -10 17 -16 14 -6 -4 -23 0 -39 8 -16 8
-32 13 -35 9z m58 -33 c3 -5 2 -10 -4 -10 -5 0 -13 5 -16 10 -3 6 -2 10 4 10
5 0 13 -4 16 -10z m25 -30 c0 -5 -4 -10 -10 -10 -5 0 -10 5 -10 10 0 6 5 10
10 10 6 0 10 -4 10 -10z m-18 -52 c-7 -7 -12 -8 -12 -2 0 14 12 26 19 19 2 -3
-1 -11 -7 -17z"/>
<path d="M1395 540 c-3 -6 1 -7 9 -4 18 7 21 14 7 14 -6 0 -13 -4 -16 -10z"/>
<path d="M1475 543 c11 -3 22 -9 25 -13 3 -5 24 -15 47 -23 24 -8 40 -10 37
-5 -9 13 -92 48 -112 47 -13 -1 -12 -3 3 -6z"/>
<path d="M4400 530 c0 -5 5 -10 10 -10 6 0 10 5 10 10 0 6 -4 10 -10 10 -5 0
-10 -4 -10 -10z"/>
<path d="M3518 522 c-22 -4 -24 -22 -3 -22 8 0 15 -8 15 -18 0 -15 6 -18 30
-14 36 5 40 22 5 22 -14 0 -25 4 -25 9 0 5 16 7 36 5 26 -3 35 -1 32 8 -4 13
-54 18 -90 10z"/>
<path d="M4437 516 c-19 -15 -21 -25 -15 -98 4 -41 2 -48 -13 -48 -22 0 -50
52 -58 108 l-6 44 -24 -21 c-13 -12 -31 -21 -39 -21 -11 0 -12 -3 -3 -14 7 -8
23 -13 36 -10 23 4 23 3 9 -25 -10 -19 -20 -28 -29 -24 -8 3 -15 0 -15 -6 0
-7 8 -15 18 -18 9 -4 20 -11 23 -16 4 -5 47 -12 97 -16 l89 -6 17 29 c15 26
15 29 0 41 -11 7 -14 17 -9 25 7 11 10 9 16 -6 6 -16 8 -15 8 8 1 16 8 28 19
31 15 4 15 5 -2 6 -10 0 -29 12 -42 26 -26 28 -50 31 -77 11z"/>
<path d="M1390 510 c-8 -5 -10 -10 -5 -10 6 0 17 5 25 10 8 5 11 10 5 10 -5 0
-17 -5 -25 -10z"/>
<path d="M3620 510 c0 -5 5 -10 10 -10 6 0 10 5 10 10 0 6 -4 10 -10 10 -5 0
-10 -4 -10 -10z"/>
<path d="M4250 494 c0 -8 5 -12 10 -9 6 3 10 10 10 16 0 5 -4 9 -10 9 -5 0
-10 -7 -10 -16z"/>
<path d="M2401 484 c-1 -21 44 -72 55 -62 3 4 -6 14 -20 23 -13 9 -27 26 -29
38 -4 21 -4 21 -6 1z"/>
<path d="M2290 484 c0 -1 18 -11 40 -23 34 -18 38 -18 33 -3 -6 15 -5 15 10 3
15 -12 17 -12 11 3 -4 11 -13 14 -32 9 -14 -3 -23 -2 -19 3 3 5 -6 9 -19 9
-13 0 -24 -1 -24 -1z"/>
<path d="M3600 480 c0 -5 5 -10 11 -10 5 0 7 5 4 10 -3 6 -8 10 -11 10 -2 0
-4 -4 -4 -10z"/>
<path d="M1694 453 c9 -18 18 -33 20 -33 9 0 -8 41 -22 52 -13 11 -12 8 2 -19z"/>
<path d="M2197 445 c-7 -46 0 -65 24 -65 28 0 35 -27 14 -50 -17 -19 -17 -20
3 -20 17 0 22 6 24 30 0 17 1 36 2 43 1 6 -10 12 -24 12 -22 0 -25 4 -25 37 0
49 -11 57 -18 13z"/>
<path d="M2548 463 c7 -3 16 -2 19 1 4 3 -2 6 -13 5 -11 0 -14 -3 -6 -6z"/>
<path d="M1374 444 c-18 -14 -18 -15 4 -4 12 6 22 13 22 15 0 8 -5 6 -26 -11z"/>
<path d="M1636 452 c-3 -5 8 -23 24 -40 16 -18 24 -32 18 -32 -7 0 -7 -4 1
-13 6 -8 8 -17 4 -20 -3 -4 -1 -7 5 -7 18 0 10 63 -10 78 -10 7 -18 20 -18 28
0 15 -16 19 -24 6z"/>
<path d="M4270 430 c0 -5 5 -10 11 -10 5 0 7 5 4 10 -3 6 -8 10 -11 10 -2 0
-4 -4 -4 -10z"/>
<path d="M1253 396 c-13 -6 -23 -14 -23 -19 0 -9 36 9 45 23 3 6 5 9 3 9 -2
-1 -13 -6 -25 -13z"/>
<path d="M1349 408 c-5 -18 -6 -38 -1 -34 7 8 12 36 6 36 -2 0 -4 -1 -5 -2z"/>
<path d="M1710 400 c0 -5 5 -10 10 -10 6 0 10 5 10 10 0 6 -4 10 -10 10 -5 0
-10 -4 -10 -10z"/>
<path d="M1906 395 c4 -8 10 -12 15 -9 14 8 10 24 -6 24 -9 0 -12 -6 -9 -15z"/>
<path d="M1279 373 c-12 -16 -12 -17 1 -7 8 6 22 14 30 17 13 5 12 6 -1 6 -9
1 -23 -7 -30 -16z"/>
<path d="M1399 388 c-4 -14 -6 -50 -3 -41 4 9 13 9 31 2 14 -5 28 -7 31 -5 4
5 -5 10 -46 22 -7 2 -10 8 -7 14 3 5 4 10 1 10 -3 0 -6 -1 -7 -2z"/>
<path d="M2285 380 c3 -5 8 -10 11 -10 2 0 4 5 4 10 0 6 -5 10 -11 10 -5 0 -7
-4 -4 -10z"/>
<path d="M1985 360 c3 -5 8 -10 11 -10 2 0 4 5 4 10 0 6 -5 10 -11 10 -5 0 -7
-4 -4 -10z"/>
<path d="M2025 360 c-3 -5 -1 -10 4 -10 6 0 11 5 11 10 0 6 -2 10 -4 10 -3 0
-8 -4 -11 -10z"/>
<path d="M1238 353 c7 -3 16 -2 19 1 4 3 -2 6 -13 5 -11 0 -14 -3 -6 -6z"/>
<path d="M1290 356 c0 -2 7 -6 15 -10 8 -3 15 -1 15 4 0 6 -7 10 -15 10 -8 0
-15 -2 -15 -4z"/>
<path d="M1350 350 c0 -5 5 -10 11 -10 5 0 7 5 4 10 -3 6 -8 10 -11 10 -2 0
-4 -4 -4 -10z"/>
<path d="M2068 353 c7 -3 16 -2 19 1 4 3 -2 6 -13 5 -11 0 -14 -3 -6 -6z"/>
<path d="M1890 335 c5 -6 35 -11 67 -11 40 0 45 1 16 3 -24 2 -43 8 -43 12 0
5 -11 8 -24 7 -15 0 -21 -5 -16 -11z"/>
<path d="M4087 323 c-3 -5 9 -9 26 -10 26 -1 28 0 12 7 -26 11 -33 12 -38 3z"/>
<path d="M4338 313 c7 -3 16 -2 19 1 4 3 -2 6 -13 5 -11 0 -14 -3 -6 -6z"/>
<path d="M674 245 c25 -19 46 -19 46 0 0 10 -10 15 -32 15 -31 -1 -32 -1 -14
-15z"/>
<path d="M846 223 c4 -21 7 -39 8 -39 0 -1 67 12 149 29 81 17 145 32 143 34
-2 3 -72 7 -156 9 l-151 5 7 -38z"/>
<path d="M1547 208 c-6 -21 -56 -25 -75 -6 -9 9 -12 7 -12 -9 0 -12 -11 -35
-24 -50 l-25 -28 -15 38 c-9 20 -23 37 -31 37 -19 0 -19 -13 1 -52 18 -34 9
-48 -31 -48 -29 0 -45 19 -45 51 0 21 -4 26 -17 24 -10 -2 -23 -4 -30 -4 -7
-1 -28 -14 -46 -31 -39 -34 -71 -38 -86 -13 -8 14 -10 15 -11 3 0 -13 -1 -13
-10 0 -7 11 -12 12 -20 4 -8 -8 -4 -27 16 -68 l28 -56 82 0 82 0 153 91 c84
49 159 99 166 109 7 10 23 21 36 23 12 2 -1 4 -30 4 -41 -1 -53 -5 -56 -19z
m-287 -67 c0 -4 11 -24 24 -44 l25 -36 -33 -21 c-42 -26 -46 -25 -46 5 0 14
-9 34 -19 44 -19 19 -19 20 0 40 20 21 49 28 49 12z m-65 -72 c-29 -11 -35
-10 -35 5 0 9 8 12 27 8 25 -5 25 -6 8 -13z m-60 -16 c-2 -10 -4 -25 -5 -33 0
-12 -2 -12 -10 2 -10 17 -4 48 10 48 5 0 7 -8 5 -17z"/>
<path d="M1805 210 c-3 -5 -1 -10 4 -10 6 0 11 -7 11 -16 0 -8 -4 -13 -10 -9
-12 7 -36 -40 -45 -88 -7 -37 -7 -38 19 -31 31 7 34 -1 5 -16 -15 -8 -24 -8
-33 -1 -14 12 -46 5 -59 -13 -4 -7 -10 -2 -13 13 -6 20 -12 22 -40 18 -26 -4
-32 -2 -27 9 6 15 -5 18 -25 6 -9 -6 3 -18 37 -40 50 -33 105 -42 114 -19 4 9
7 9 15 -1 6 -9 28 -12 68 -10 l59 3 52 100 51 100 -26 6 c-42 10 -62 10 -62
-1 0 -5 6 -10 14 -10 8 0 17 -4 20 -8 8 -13 -32 -52 -54 -52 -28 0 -52 29 -47
57 4 23 -16 33 -28 13z m78 -90 c21 0 21 -2 -3 -50 l-20 -39 -25 24 c-13 14
-31 25 -40 25 -17 0 -20 32 -5 60 10 19 11 19 43 0 17 -11 40 -20 50 -20z"/>
<path d="M886 87 l-29 -13 47 -11 c38 -8 49 -8 53 3 12 33 -20 42 -71 21z"/>
</g>
</svg>
