<?xml version="1.0" standalone="no"?>
<!DOCTYPE svg PUBLIC "-//W3C//DTD SVG 20010904//EN"
 "http://www.w3.org/TR/2001/REC-SVG-20010904/DTD/svg10.dtd">
<svg version="1.0" xmlns="http://www.w3.org/2000/svg"
 width="500.000000pt" height="300.000000pt" viewBox="0 0 500.000000 300.000000"
 preserveAspectRatio="xMidYMid meet">

<g transform="translate(0.000000,300.000000) scale(0.100000,-0.100000)"
fill="#000000" stroke="none">
<path d="M15 2978 c-3 -7 -4 -677 -3 -1488 l3 -1475 668 -3 667 -2 0 37 c0 55
-28 290 -41 348 -7 28 -27 80 -45 117 -40 79 -44 144 -15 210 10 24 26 59 34
79 13 30 22 37 53 42 38 6 80 -15 69 -34 -3 -4 -1 -10 5 -14 5 -3 10 -19 10
-36 0 -33 6 -35 38 -13 29 20 28 27 -8 68 -45 51 -104 75 -211 87 -51 6 -101
15 -110 20 -12 6 -50 -1 -119 -21 -56 -16 -105 -31 -108 -34 -2 -3 7 -10 22
-16 14 -5 37 -14 51 -20 37 -14 32 -33 -7 -25 l-33 7 28 -22 c35 -28 87 -117
87 -150 0 -14 -10 -45 -21 -70 -28 -61 -56 -158 -64 -225 -4 -30 -10 -55 -14
-55 -3 0 -28 57 -56 128 -27 70 -71 181 -97 246 -26 66 -45 123 -42 128 3 4
16 5 30 2 13 -3 32 -3 41 0 15 6 15 8 3 16 -23 14 14 24 39 11 25 -14 44 -14
36 -1 -4 6 -11 8 -16 5 -5 -4 -9 -2 -9 3 0 18 -27 21 -55 6 -15 -8 -40 -14
-55 -14 -26 0 -33 11 -108 163 -83 168 -122 274 -122 333 0 45 58 163 71 143
5 -8 9 -23 9 -35 0 -11 28 -68 63 -125 34 -57 71 -123 81 -146 14 -33 22 -40
32 -32 18 14 64 21 64 9 0 -5 7 -10 15 -10 9 0 66 -35 128 -79 130 -91 148
-101 178 -101 29 0 109 52 151 98 19 20 52 49 75 64 48 32 47 33 59 -67 3 -33
15 -106 25 -163 10 -56 16 -108 13 -115 -3 -8 -19 -21 -37 -29 l-32 -16 28
-13 c15 -7 29 -22 32 -33 9 -46 35 -457 35 -553 l0 -103 480 0 480 0 0 1490 0
1490 -1235 0 c-979 0 -1237 -3 -1240 -12z m1468 -442 c38 -19 47 -20 47 -8 0
12 3 12 15 2 8 -7 15 -10 15 -7 0 3 12 0 27 -8 29 -15 43 -12 43 11 0 21 13
17 29 -7 10 -17 15 -19 21 -8 7 11 13 9 28 -9 11 -12 29 -22 41 -22 11 0 21
-4 21 -10 0 -5 -4 -10 -9 -10 -5 0 -7 -9 -4 -20 3 -11 12 -20 20 -20 8 0 11
-4 8 -10 -3 -5 0 -29 6 -52 7 -24 11 -52 9 -63 -6 -45 -6 -61 3 -72 6 -9 5
-13 -5 -13 -28 0 -49 26 -55 68 -5 39 -7 41 -23 27 -16 -14 -20 -27 -21 -69 0
-11 -9 -27 -19 -36 -11 -10 -20 -24 -20 -33 0 -9 -12 -18 -30 -22 -45 -10 -36
-21 21 -28 28 -4 58 -12 67 -19 13 -11 14 -10 8 10 -8 26 11 31 21 6 9 -25
-22 -37 -102 -38 -59 0 -76 3 -99 22 -37 28 -65 28 -94 -2 -20 -21 -21 -26 -7
-39 13 -13 12 -17 -10 -31 -54 -36 -40 -114 35 -199 35 -38 64 -60 90 -68 59
-18 83 -7 109 51 18 40 27 49 41 45 12 -4 20 1 24 17 5 15 9 18 13 10 7 -19
-6 -64 -17 -57 -6 4 -10 -8 -10 -27 -1 -72 -12 -176 -26 -235 -8 -35 -14 -69
-13 -75 3 -16 -28 -121 -45 -151 -6 -12 -18 -23 -26 -25 -8 -2 -19 -10 -23
-18 -25 -44 -45 26 -41 142 4 97 -7 140 -52 200 -28 36 -56 40 -102 15 -15 -8
-28 -9 -40 -2 -30 16 -92 98 -92 121 0 11 -7 35 -16 52 -15 29 -15 31 13 62
40 44 63 89 63 125 0 17 5 40 12 50 9 15 6 26 -18 61 -17 27 -40 47 -57 51
-31 8 -148 22 -191 22 -26 0 -27 1 -13 12 9 7 14 15 10 18 -9 9 5 9 47 -2 19
-5 57 -11 83 -14 46 -5 47 -4 31 14 -9 11 -27 19 -40 19 -13 0 -26 5 -29 10
-3 6 -1 10 4 10 6 0 11 5 11 10 0 6 -6 10 -14 10 -19 0 -28 14 -20 34 4 11 14
14 35 9 15 -3 36 -2 46 2 16 6 15 8 -7 20 -14 8 -33 14 -43 15 -9 0 -23 11
-29 25 -15 34 7 58 77 80 30 9 57 21 61 26 3 5 14 9 26 9 14 0 18 5 15 15 -5
11 0 13 22 9 16 -4 32 -1 35 5 4 6 16 11 27 11 11 0 17 5 14 10 -10 16 17 11
68 -14z m-930 -390 c4 -10 0 -12 -14 -9 -10 3 -16 9 -13 14 8 13 21 11 27 -5z
m-44 -145 c-2 -30 -3 -31 -6 -8 -2 15 -9 25 -14 22 -5 -4 -9 3 -9 14 0 14 5
19 15 15 10 -4 14 -18 14 -43z m1106 -41 c3 -5 -1 -10 -10 -10 -9 0 -13 5 -10
10 3 6 8 10 10 10 2 0 7 -4 10 -10z m-1118 -32 c-3 -7 -5 -2 -5 12 0 14 2 19
5 13 2 -7 2 -19 0 -25z m718 12 c-3 -5 -11 -10 -16 -10 -6 0 -7 5 -4 10 3 6
11 10 16 10 6 0 7 -4 4 -10z m298 -37 c-7 -2 -21 -2 -30 0 -10 3 -4 5 12 5 17
0 24 -2 18 -5z m-958 -33 c9 8 15 3 25 -20 13 -31 6 -55 -9 -32 -4 7 -15 10
-23 7 -18 -7 -31 27 -20 53 6 15 7 15 10 -1 3 -13 7 -15 17 -7z m639 1 c12
-19 -20 -79 -77 -146 -80 -95 -109 -126 -113 -123 -5 6 -15 58 -28 158 -5 37
-19 69 -32 74 -8 3 -14 13 -14 22 0 14 9 15 70 10 39 -4 76 -9 83 -12 7 -2 30
2 52 10 49 18 52 18 59 7z m409 -18 c-7 -2 -21 -2 -30 0 -10 3 -4 5 12 5 17 0
24 -2 18 -5z m-1068 -98 c8 -54 -2 -76 -22 -50 -7 11 -13 41 -13 68 0 41 2 47
14 38 8 -6 17 -32 21 -56z m1093 53 c-5 -14 -37 -20 -58 -11 -10 4 -6 8 15 13
45 11 47 11 43 -2z m-401 -63 c7 -20 -2 -29 -21 -22 -9 4 -13 13 -10 22 8 19
23 19 31 0z m-647 -39 c0 -15 -18 -31 -26 -23 -7 7 7 37 17 37 5 0 9 -6 9 -14z
m574 -21 c4 -14 11 -25 16 -25 6 0 10 -7 10 -15 0 -8 4 -15 10 -15 5 0 13 -12
16 -26 5 -18 10 -22 17 -15 16 16 35 13 46 -8 8 -14 6 -24 -8 -40 -23 -26 -36
-15 -16 15 17 26 4 42 -15 19 -7 -8 -16 -13 -20 -10 -4 3 -19 -4 -33 -15 -25
-20 -48 -26 -46 -12 4 22 -2 42 -11 37 -5 -3 -10 0 -10 9 0 19 -20 26 -42 14
-10 -5 -18 -6 -18 -3 0 9 84 114 91 114 4 1 10 -10 13 -24z m337 -119 c0 -6 2
-20 4 -31 11 -54 17 -135 10 -135 -4 0 -24 18 -44 40 -20 23 -47 43 -61 45
-14 3 -31 14 -39 25 -7 11 -18 20 -24 20 -6 0 7 -18 28 -40 21 -22 34 -40 28
-40 -23 0 -118 22 -145 33 -44 19 -33 25 28 15 55 -8 79 -4 58 10 -12 8 -16
52 -5 52 4 0 12 -5 19 -12 9 -9 15 -8 26 7 8 11 12 23 10 26 -5 9 26 20 37 13
5 -3 17 -1 26 5 14 8 21 6 31 -6 6 -9 12 -22 13 -27z m-491 -1 c0 -8 -4 -15
-10 -15 -5 0 -10 7 -10 15 0 8 5 15 10 15 6 0 10 -7 10 -15z m-36 -82 c-2 -41
-31 -102 -39 -82 -7 18 -2 51 14 92 13 34 26 29 25 -10z m446 -82 c0 -5 -8
-18 -17 -30 -22 -25 -101 -31 -148 -11 -16 7 -36 12 -42 11 -7 -1 -13 6 -13
15 0 11 5 14 18 9 22 -10 107 -6 135 5 29 12 67 12 67 1z m35 -21 c3 -6 -1 -7
-9 -4 -18 7 -21 14 -7 14 6 0 13 -4 16 -10z m40 -60 c3 -15 15 -36 26 -46 20
-18 26 -44 9 -44 -5 0 -10 -5 -10 -11 0 -14 -58 -72 -87 -88 -32 -17 -128 -14
-143 4 -14 17 -48 19 -70 5 -10 -6 -20 -5 -30 4 -8 8 -25 17 -38 21 -14 4 -21
12 -18 21 3 7 1 16 -4 19 -17 10 13 44 45 52 16 4 33 8 38 9 4 1 33 2 65 3 42
2 52 5 37 11 -15 6 -8 9 28 9 26 1 47 5 47 11 0 15 71 59 86 53 7 -2 16 -17
19 -33z m-205 -29 c0 -6 -17 -7 -37 -4 -52 8 -54 13 -5 13 23 0 42 -4 42 -9z
m-212 -54 c15 -25 15 -27 -3 -41 -18 -13 -21 -12 -29 2 -5 9 -16 23 -23 30 -7
7 -13 22 -13 32 0 27 47 12 68 -23z m1348 -792 c-21 -16 -32 -13 -21 4 3 6 14
11 23 11 15 -1 15 -2 -2 -15z m52 -65 c17 -27 10 -25 -19 6 -13 14 -17 23 -9
19 9 -3 21 -14 28 -25z m-568 -187 c0 -44 -3 -54 -14 -50 -10 4 -16 -2 -19
-16 -2 -12 -5 8 -6 45 -1 80 5 104 25 87 9 -7 14 -32 14 -66z m27 -9 c-3 -4
-2 -16 4 -26 9 -16 8 -19 -3 -16 -17 6 -23 48 -7 48 7 0 9 -3 6 -6z"/>
<path d="M1493 2193 c9 -2 23 -2 30 0 6 3 -1 5 -18 5 -16 0 -22 -2 -12 -5z"/>
<path d="M1146 1565 c-3 -8 -1 -15 4 -15 13 0 22 18 11 24 -5 3 -11 -1 -15 -9z"/>
<path d="M1385 1510 c3 -5 8 -10 11 -10 2 0 4 5 4 10 0 6 -5 10 -11 10 -5 0
-7 -4 -4 -10z"/>
<path d="M2510 2058 l0 -928 24 16 c14 8 26 25 28 37 2 13 10 22 20 22 9 0 27
16 40 35 14 21 47 47 83 65 56 28 65 30 184 31 96 1 134 5 158 17 37 20 54 22
51 6 -8 -33 27 -10 115 76 53 53 97 93 97 90 0 -4 -18 -43 -39 -88 -58 -120
-73 -167 -55 -174 8 -3 14 -10 14 -16 0 -6 8 -19 17 -29 36 -41 53 -112 42
-182 -6 -41 16 -44 40 -5 l20 32 20 -34 c12 -19 21 -37 21 -41 0 -4 12 -33 26
-63 14 -31 30 -84 36 -118 16 -96 68 -228 68 -175 0 10 3 9 10 -2 11 -17 5
-24 73 80 30 47 65 96 76 110 12 14 40 46 63 72 22 26 43 46 47 43 17 -10 92
87 141 180 29 55 59 109 66 120 25 39 71 161 78 210 4 26 15 60 24 74 11 16
17 48 18 86 2 59 28 172 44 188 4 5 5 26 3 48 -4 23 -1 45 7 53 6 9 8 21 4 27
-5 9 -10 7 -15 -7 -6 -14 -8 -8 -8 20 -1 37 0 38 17 23 20 -18 19 -20 62 93
22 59 25 138 4 161 -16 18 -18 18 -30 1 -12 -15 -15 -15 -24 -2 -5 8 -7 22 -4
30 4 8 10 38 15 65 17 104 41 185 55 185 7 0 18 8 23 18 9 15 10 13 11 -9 0
-28 34 -47 46 -27 4 5 12 -1 19 -14 6 -13 8 -27 3 -33 -4 -5 -8 -16 -8 -25 1
-12 3 -11 15 4 9 11 20 16 31 12 13 -5 15 -15 11 -46 -3 -24 0 -52 8 -68 9
-17 12 -56 11 -107 -3 -80 -3 -80 33 -118 34 -36 36 -42 36 -106 0 -38 -5 -74
-12 -83 -7 -8 -10 -23 -7 -35 4 -15 0 -23 -15 -28 -18 -5 -21 -14 -21 -60 0
-38 -4 -54 -15 -59 -9 -3 -15 -18 -15 -34 0 -26 3 -29 25 -24 21 3 24 1 19
-12 -4 -10 -13 -15 -21 -11 -12 4 -14 0 -10 -17 4 -12 2 -27 -2 -32 -5 -6 -12
-32 -16 -58 -6 -41 -5 -46 11 -45 11 1 19 -6 21 -18 1 -11 0 -14 -3 -7 -3 6
-14 12 -24 12 -11 0 -23 6 -27 13 -4 6 -18 18 -30 25 -41 22 -27 -14 15 -39
20 -12 66 -44 102 -70 36 -26 94 -60 130 -76 36 -16 71 -37 79 -46 7 -9 28
-17 45 -17 75 0 196 -50 240 -99 11 -12 23 -21 28 -21 4 0 7 417 6 928 l-3
927 -1237 1 -1238 1 0 -929z m1256 701 c4 -7 32 -9 80 -5 46 3 74 2 74 -4 0
-16 28 -11 32 6 2 13 11 10 45 -15 54 -39 101 -128 104 -197 2 -50 -19 -144
-35 -155 -4 -4 -8 -18 -8 -32 0 -17 -5 -24 -14 -20 -8 3 -14 1 -14 -5 0 -5 7
-13 16 -16 9 -4 14 -9 11 -13 -4 -3 -18 2 -33 12 -30 19 -163 35 -210 25 -17
-4 -41 -17 -53 -29 -11 -11 -31 -21 -42 -21 -18 0 -20 -4 -14 -27 3 -16 7 -61
7 -101 0 -58 3 -72 14 -68 8 3 42 -12 77 -34 35 -22 77 -42 94 -46 26 -5 33
-2 54 28 28 41 38 48 66 48 12 0 35 13 51 28 28 27 28 29 17 80 -8 32 -9 55
-3 58 5 3 7 11 5 18 -3 6 2 17 9 24 17 16 18 15 34 -90 7 -43 10 -98 7 -123
-4 -29 -3 -44 3 -40 6 4 10 -6 10 -22 l0 -28 -16 30 c-20 39 -28 46 -19 16 5
-15 4 -21 -3 -17 -6 4 -14 0 -19 -7 -4 -8 -26 -17 -48 -20 -22 -3 -53 -10 -70
-17 l-30 -11 28 -21 c25 -18 27 -25 27 -86 -1 -60 -3 -69 -25 -85 -14 -10 -29
-16 -34 -12 -5 3 -12 -1 -14 -7 -4 -9 -8 -10 -14 -2 -4 6 -32 19 -61 28 -44
15 -52 21 -47 37 3 10 7 28 10 38 10 35 -28 45 -175 44 l-135 -2 3 -40 c3 -32
0 -42 -18 -51 -25 -13 -38 -6 -23 12 6 7 14 24 18 38 l7 25 -21 -27 c-11 -14
-21 -31 -21 -37 0 -6 -8 -11 -19 -11 -13 0 -25 16 -41 54 -20 51 -21 56 -6 85
24 45 21 69 -7 64 -14 -3 -29 3 -41 16 -17 19 -17 19 1 16 10 -2 20 -4 23 -5
3 -1 9 -2 13 -1 4 1 18 -4 30 -11 27 -15 44 -13 94 12 45 22 56 15 55 -39 -1
-37 1 -40 19 -28 20 13 25 27 9 27 -19 0 -10 27 14 40 37 19 58 139 40 228 -6
29 -10 31 -73 41 -104 17 -192 19 -238 5 -32 -10 -43 -10 -43 -2 0 9 -4 8 -12
-1 -7 -6 -13 -26 -14 -44 -1 -119 -4 -136 -19 -131 -8 4 -15 12 -15 20 0 20
-17 17 -22 -4 -3 -10 -4 -31 -2 -47 7 -72 13 -105 20 -116 5 -9 2 -10 -9 -6
-10 4 -17 1 -17 -6 0 -8 -4 -6 -10 3 -8 12 -10 11 -10 -7 0 -13 -4 -23 -9 -23
-4 0 -6 11 -4 24 3 13 0 32 -7 43 -10 16 -11 16 -6 1 3 -10 1 -18 -4 -18 -15
0 -12 46 3 59 8 6 18 7 22 3 5 -4 5 -2 2 4 -4 6 0 37 8 69 8 31 12 62 8 68 -4
7 1 6 10 -2 10 -8 20 -11 24 -7 3 3 1 6 -5 6 -12 0 -27 38 -23 60 2 8 9 19 17
23 9 5 14 25 14 52 0 25 5 45 11 45 5 0 7 5 3 11 -4 7 -8 27 -9 45 -1 18 -6
39 -12 46 -6 7 -10 41 -9 75 1 54 5 66 31 93 40 42 81 50 245 51 77 0 139 3
136 7 -3 5 10 15 27 24 81 40 111 46 123 27z m98 -604 c3 -8 1 -15 -4 -15 -6
0 -10 7 -10 15 0 8 2 15 4 15 2 0 6 -7 10 -15z m-764 -165 c0 -5 -2 -10 -4
-10 -3 0 -8 5 -11 10 -3 6 -1 10 4 10 6 0 11 -4 11 -10z m1035 0 c3 -5 1 -10
-4 -10 -6 0 -11 5 -11 10 0 6 2 10 4 10 3 0 8 -4 11 -10z m-1010 -60 c3 -5 -1
-10 -10 -10 -9 0 -13 5 -10 10 3 6 8 10 10 10 2 0 7 -4 10 -10z m5 -76 c0 -19
-4 -34 -10 -34 -5 0 -10 18 -10 41 0 24 4 38 10 34 6 -3 10 -22 10 -41z m1357
-16 c-3 -8 -6 -5 -6 6 -1 11 2 17 5 13 3 -3 4 -12 1 -19z m-1299 -40 c1 -18 5
-48 11 -65 5 -18 6 -35 1 -38 -11 -7 -32 83 -24 107 4 15 3 18 -6 13 -9 -5
-11 -4 -6 3 13 22 24 12 24 -20z m72 22 c0 -5 -2 -10 -4 -10 -3 0 -8 5 -11 10
-3 6 -1 10 4 10 6 0 11 -4 11 -10z m1204 -65 c4 -14 10 -23 15 -20 12 7 22
-21 15 -40 -7 -17 -40 -20 -49 -5 -3 6 4 14 17 19 l23 8 -23 7 c-15 5 -22 15
-22 32 0 32 16 31 24 -1z m-1214 -40 c0 -8 -4 -15 -8 -15 -5 0 -9 7 -9 15 0 8
4 15 9 15 4 0 8 -7 8 -15z m490 -64 c0 -12 -66 -23 -92 -15 -16 5 -18 8 -7 15
18 11 99 12 99 0z m-6 -117 c79 -11 46 -54 -41 -52 -26 0 -41 4 -33 7 22 9 18
35 -5 43 -17 5 -16 6 6 7 14 1 47 -2 73 -5z m-214 -874 c0 -5 -2 -10 -4 -10
-3 0 -8 5 -11 10 -3 6 -1 10 4 10 6 0 11 -4 11 -10z"/>
<path d="M4101 2264 c0 -11 3 -14 6 -6 3 7 2 16 -1 19 -3 4 -6 -2 -5 -13z"/>
<path d="M4108 2185 c2 -14 6 -25 8 -25 2 0 4 11 4 25 0 14 -4 25 -9 25 -4 0
-6 -11 -3 -25z"/>
<path d="M3170 2046 c0 -2 7 -7 16 -10 8 -3 12 -2 9 4 -6 10 -25 14 -25 6z"/>
<path d="M4295 1500 c3 -5 8 -10 11 -10 2 0 4 5 4 10 0 6 -5 10 -11 10 -5 0
-7 -4 -4 -10z"/>
<path d="M3133 1312 c-13 -2 -23 -10 -23 -18 0 -8 -4 -14 -9 -14 -13 0 -41
-29 -41 -42 0 -6 8 -4 18 5 30 27 35 19 12 -18 -12 -19 -17 -35 -11 -35 6 0 3
-9 -6 -19 -10 -10 -31 -35 -46 -54 -18 -23 -34 -34 -43 -30 -10 4 -18 -4 -26
-24 -10 -27 -17 -31 -72 -39 -56 -8 -61 -11 -61 -34 0 -25 0 -25 80 -21 48 2
94 10 115 20 19 10 42 16 51 14 20 -5 39 -45 39 -84 0 -17 4 -28 10 -24 5 3
19 -6 32 -20 14 -16 32 -25 50 -25 42 0 124 -68 244 -202 54 -61 68 -68 78
-42 3 8 2 13 -3 10 -9 -6 -56 43 -196 202 -60 68 -104 109 -130 121 -62 28
-80 54 -80 117 0 37 -4 54 -13 54 -8 0 -1 21 19 58 66 118 68 123 47 139 -7 5
-23 7 -35 5z"/>
<path d="M2797 1253 c-4 -6 -1 -13 5 -16 10 -3 10 -9 0 -27 -19 -31 -8 -36 27
-10 37 26 39 40 7 40 -13 0 -26 5 -28 12 -3 9 -6 9 -11 1z"/>
<path d="M3018 1165 c-15 -25 -23 -45 -18 -45 6 0 16 12 22 28 7 15 18 35 26
45 9 9 11 17 6 17 -5 0 -21 -20 -36 -45z"/>
<path d="M4163 1165 c-33 -14 -35 -24 -46 -188 -1 -20 -5 -26 -17 -21 -69 29
-72 30 -84 10 -31 -54 -90 -106 -126 -112 -27 -5 -46 -16 -65 -40 -32 -40
-116 -108 -235 -190 -85 -58 -109 -80 -109 -99 0 -5 4 -2 10 8 14 23 41 22 57
-3 7 -12 17 -18 22 -15 6 3 10 -1 10 -10 0 -12 -4 -14 -17 -7 -11 7 -25 6 -42
-1 -19 -9 -25 -9 -29 1 -2 6 -7 12 -12 12 -12 0 -20 -39 -9 -46 5 -3 6 -11 3
-17 -4 -7 -4 -9 1 -5 4 4 17 1 29 -7 29 -21 41 -19 79 15 19 17 40 30 46 30
16 0 14 17 -3 23 -8 3 -14 12 -12 20 3 20 68 82 107 103 37 19 83 50 112 76
21 18 82 32 97 23 6 -3 10 0 10 7 0 7 12 21 28 30 15 9 43 30 62 47 34 28 37
29 95 20 87 -13 203 -22 258 -20 49 1 83 23 89 58 3 16 -8 19 -84 25 -48 3
-91 9 -95 11 -5 3 -5 51 0 106 10 116 4 131 -58 131 -32 0 -37 3 -32 20 6 23
3 24 -40 5z m94 -80 c-7 -5 -17 -25 -24 -43 -9 -26 -9 -35 3 -46 18 -19 18
-23 -5 -29 -33 -8 -51 11 -49 53 1 22 5 37 10 34 4 -3 8 13 8 35 l0 41 35 -18
c25 -12 31 -20 22 -27z"/>
<path d="M4620 1159 c0 -5 5 -7 10 -4 6 3 10 8 10 11 0 2 -4 4 -10 4 -5 0 -10
-5 -10 -11z"/>
<path d="M4575 1140 c-3 -5 3 -10 14 -10 12 0 21 5 21 10 0 6 -6 10 -14 10 -8
0 -18 -4 -21 -10z"/>
<path d="M2898 1125 c-2 -3 -40 -9 -84 -15 -209 -28 -304 -67 -304 -125 l0
-26 44 26 c44 26 203 81 303 104 50 12 93 41 61 41 -8 0 -17 -2 -20 -5z"/>
<path d="M4580 1098 c0 -19 2 -20 10 -8 13 19 13 30 0 30 -5 0 -10 -10 -10
-22z"/>
<path d="M4633 1103 c-12 -2 -24 -10 -27 -18 -4 -11 1 -12 25 -3 26 9 52 30
32 27 -4 -1 -18 -4 -30 -6z"/>
<path d="M4925 1080 c-3 -5 -2 -10 4 -10 5 0 13 5 16 10 3 6 2 10 -4 10 -5 0
-13 -4 -16 -10z"/>
<path d="M4885 1060 c-3 -5 -2 -10 4 -10 5 0 13 5 16 10 3 6 2 10 -4 10 -5 0
-13 -4 -16 -10z"/>
<path d="M4422 1019 c6 -17 109 -74 163 -90 22 -6 61 -26 88 -45 26 -19 49
-34 52 -34 2 0 27 -14 56 -30 28 -17 54 -28 57 -25 3 3 -25 37 -64 76 -79 79
-133 109 -249 134 -44 10 -86 20 -94 23 -9 3 -12 0 -9 -9z"/>
<path d="M4740 1010 c-13 -9 -13 -10 0 -9 8 0 24 4 35 9 l20 9 -20 0 c-11 0
-27 -4 -35 -9z"/>
<path d="M3260 986 c-6 -9 -10 -21 -8 -28 3 -8 9 -4 17 10 15 28 9 39 -9 18z"/>
<path d="M4962 767 c-11 -15 -101 -190 -136 -268 -29 -63 -66 -105 -66 -75 0
28 -14 11 -54 -65 -21 -40 -44 -79 -52 -87 -8 -7 -14 -18 -14 -23 0 -5 -11
-32 -25 -60 -13 -29 -23 -55 -21 -58 2 -3 -2 -14 -9 -24 -12 -16 -13 -16 -20
5 -7 21 -8 19 -12 -12 -3 -19 -8 -39 -13 -44 -5 -5 -6 10 -3 33 3 25 2 41 -5
41 -13 0 -22 -24 -22 -61 0 -24 4 -29 25 -29 14 0 25 -4 25 -9 0 -12 82 -25
107 -17 17 6 19 15 18 94 l-2 87 57 95 c60 100 222 406 239 452 11 29 0 46
-17 25z m-202 -407 c-6 -12 -14 -19 -17 -17 -2 3 1 15 7 27 6 12 14 19 17 17
2 -3 -1 -15 -7 -27z"/>
<path d="M4965 477 c-5 -19 0 -190 5 -207 1 -3 6 6 10 20 12 37 12 210 0 210
-5 0 -12 -10 -15 -23z"/>
<path d="M2780 453 c-7 -21 -19 -43 -26 -49 -12 -9 -7 -15 27 -28 23 -9 43
-16 44 -14 1 2 8 25 14 53 11 44 10 51 -5 62 -29 21 -42 15 -54 -24z m17 -25
c-3 -8 -6 -5 -6 6 -1 11 2 17 5 13 3 -3 4 -12 1 -19z"/>
<path d="M3422 418 c-7 -7 -12 -17 -12 -23 0 -5 -9 -16 -20 -23 -22 -14 -26
-38 -7 -45 7 -3 4 -6 -7 -6 -15 -1 -16 -4 -7 -15 9 -11 9 -15 -1 -19 -8 -4 -7
-6 5 -6 9 -1 17 4 17 10 0 5 5 7 10 4 12 -8 25 26 33 88 7 51 7 53 -11 35z"/>
<path d="M2547 273 c-8 -74 -2 -79 110 -86 89 -6 241 -32 252 -43 2 -2 -9 -4
-25 -4 l-29 -1 34 -14 c62 -28 66 -24 66 65 0 44 0 80 0 80 0 2 -366 50 -380
50 -19 0 -23 -7 -28 -47z m170 -25 c-3 -8 -6 -5 -6 6 -1 11 2 17 5 13 3 -3 4
-12 1 -19z m73 -8 c0 -5 -2 -10 -4 -10 -3 0 -8 5 -11 10 -3 6 -1 10 4 10 6 0
11 -4 11 -10z"/>
<path d="M3935 211 c-5 -31 -11 -41 -26 -41 -15 0 -19 -7 -19 -33 0 -18 -4
-37 -9 -43 -5 -5 -11 -25 -13 -44 l-3 -35 80 0 80 0 3 29 c4 35 -10 46 -61 46
-37 0 -38 1 -35 33 2 27 8 33 31 35 26 3 28 6 25 45 -2 34 -7 43 -25 45 -18 3
-22 -3 -28 -37z"/>
<path d="M4013 243 c-8 -3 -13 -22 -13 -44 0 -35 3 -39 25 -39 18 0 25 5 25
19 0 11 3 26 6 34 6 17 -23 37 -43 30z"/>
<path d="M4100 211 c0 -16 -3 -36 -6 -45 -5 -12 0 -16 20 -16 23 0 26 -4 26
-35 0 -34 -1 -35 -40 -35 -39 0 -40 -1 -40 -36 l0 -35 53 3 c52 3 52 3 55 38
5 69 13 101 25 97 7 -2 11 -18 9 -40 -3 -32 -1 -37 18 -37 12 0 19 4 15 10
-10 16 6 60 22 60 12 0 14 -8 10 -40 -4 -35 -2 -40 14 -40 15 0 19 7 19 38 0
21 -3 42 -7 46 -5 4 -8 24 -8 44 0 34 -2 37 -32 40 -32 3 -33 2 -33 -32 0 -35
-1 -36 -35 -36 -35 0 -36 1 -33 38 3 34 1 37 -24 40 -25 3 -28 0 -28 -27z"/>
<path d="M3725 123 c-14 -110 -14 -108 27 -111 36 -3 37 -2 40 35 3 35 6 38
36 41 30 3 32 6 32 41 0 35 -3 39 -31 45 -17 3 -46 6 -65 6 -32 0 -33 -1 -39
-57z"/>
<path d="M4324 106 c-3 -19 -2 -41 2 -48 5 -7 9 -19 9 -27 0 -23 25 -25 25 -2
0 17 6 21 34 21 18 0 39 -7 46 -15 7 -8 23 -15 36 -15 23 0 24 3 23 58 l-1 57
-13 -45 -14 -45 2 40 c2 48 -15 50 -24 3 l-6 -33 -2 38 c0 20 -5 37 -11 37 -5
0 -11 -17 -12 -37 l-1 -38 -7 45 c-6 46 -16 40 -23 -15 -3 -23 -4 -20 -6 13
-1 38 -4 42 -26 42 -20 0 -25 -6 -31 -34z"/>
<path d="M3105 120 c-3 -5 -1 -10 4 -10 6 0 11 5 11 10 0 6 -2 10 -4 10 -3 0
-8 -4 -11 -10z"/>
<path d="M2993 109 c14 -8 22 -8 30 0 8 8 3 11 -18 11 -26 -1 -28 -2 -12 -11z"/>
<path d="M2695 90 c-3 -5 1 -10 9 -10 9 0 16 5 16 10 0 6 -4 10 -9 10 -6 0
-13 -4 -16 -10z"/>
<path d="M3098 55 c-7 -33 -2 -44 11 -29 4 5 5 20 1 34 -6 25 -6 25 -12 -5z"/>
<path d="M2750 34 c0 -8 5 -12 10 -9 6 3 10 10 10 16 0 5 -4 9 -10 9 -5 0 -10
-7 -10 -16z"/>
<path d="M2700 30 c0 -5 7 -10 16 -10 8 0 12 5 9 10 -3 6 -10 10 -16 10 -5 0
-9 -4 -9 -10z"/>
</g>
</svg>
