<svg xmlns="http://www.w3.org/2000/svg" viewBox="0 0 165.86 165.86"><defs><style>.cls-1{fill:#c1e8f6;}.cls-2{fill:#1c3c53;}.cls-3{fill:#722d16;}.cls-14,.cls-4{fill:#43231b;}.cls-4{stroke:#543025;stroke-miterlimit:10;stroke-width:0.37px;}.cls-5{fill:#a66e52;}.cls-6{fill:#010101;}.cls-7{fill:#231f1f;}.cls-8{fill:#161412;}.cls-9{fill:#643c2a;}.cls-10{fill:#311811;}.cls-11{fill:#f1edf6;}.cls-12{fill:#fff;isolation:isolate;opacity:0.14;}.cls-13{fill:#273339;}.cls-15{fill:#5fa0ae;}.cls-16{fill:#395557;}.cls-17{fill:#a14123;}.cls-18{fill:#f37260;}.cls-19{fill:#98722b;}.cls-20{fill:#dfa826;}.cls-21{opacity:0.3;}</style></defs><g id="Layer_5" data-name="Layer 5"><circle class="cls-1" cx="82.39" cy="88.13" r="71.63"/><path class="cls-2" d="M61.39,156.45a71.71,71.71,0,0,0,51.16-3.12c-.66-2.14-1.44-4-1.59-4.51l-48.23-.89C62.73,148.06,62,151.38,61.39,156.45Z"/><path class="cls-3" d="M125.52,85a2,2,0,0,0,.56-2.61c-1.91-4.29.24-.45-3-3.75a29.05,29.05,0,0,0-10.85-7,26.65,26.65,0,0,0-12.72-1A54.37,54.37,0,0,1,86.22,71a57.38,57.38,0,0,1-12.89-2.61c-.92-.31-3.74-1.22-3.94-.31-.22,1.07,2.23,3.69,3.15,4,4.7,1.6,9.48,3.13,14.46,3.48a64.55,64.55,0,0,0,13.18-.45c4-.68,7.88.37,11.67,1.77,7.42,3,7.84.24,11.2,7.61a1.71,1.71,0,0,0,2.36.6Z"/><path class="cls-4" d="M77.27,57.09a5.19,5.19,0,0,0-.34-1.27,3.07,3.07,0,0,0-1-1.28,2.25,2.25,0,0,0-1.44-.45l.15.16c0-.64-.06-1.27-.14-1.9a3.67,3.67,0,0,0-.11-.74,2.05,2.05,0,0,0-.07.74c0,.45.05,1.14,0,1.87v.17h.16a2,2,0,0,1,1.24.41,3.61,3.61,0,0,1,1.3,2.35,9.67,9.67,0,0,0,.24,1.16A3.39,3.39,0,0,0,77.27,57.09Z"/><path class="cls-5" d="M71.39,62.45s.67,6.8-.53,9.51c-.36.81-11.32,5.65-11.32,5.65l24.93,8.25,13.15-4.1s-7.43-2.48-7.9-3.41c-1.3-2.56-.48-15.3-.48-15.3"/><path class="cls-5" d="M69.19,51.31s-1.4-2.71-2.35-2.71c-.58,0-2,1.55-2,3,0,2,1.39,4.22,1.73,5.37s.29,2.81,1.83,2.8c.6,0,1.35-1.28,1.35-1.28S69.51,53.1,69.19,51.31Z"/><path class="cls-6" d="M68.78,54a12.8,12.8,0,0,0-1.23-2.16,4.46,4.46,0,0,0-.89-1,1.26,1.26,0,0,0-.48-.23.33.33,0,0,0-.29,0,.58.58,0,0,0-.19.27,3.18,3.18,0,0,0-.14,2.19c0,.16.44.06.4-.1a3.38,3.38,0,0,1,0-1.7,1.92,1.92,0,0,1,.16-.42l.07-.11s0-.07,0,0l-.24.08H66l0,0,.07,0,.18.11a4.7,4.7,0,0,1,1.15,1.32,14.15,14.15,0,0,1,.93,1.71c.07.16.47,0,.4-.11Z"/><path class="cls-6" d="M68.2,54.27a.8.8,0,0,0-.63.19.68.68,0,0,0-.16.49,10,10,0,0,1,.12,1.32s0,.07,0,.1l0,0v0l.23,0-.08-.08a.77.77,0,0,1-.1-.18,4.62,4.62,0,0,1-.29-1,3.9,3.9,0,0,1-.09-1.27c0-.45.15-1.21.62-1.42.27-.11,0-.19-.14-.12a1.57,1.57,0,0,0-.83,1.24,3.2,3.2,0,0,0-.07,1A7.36,7.36,0,0,0,67,55.91c.06.19.15.51.34.62a.44.44,0,0,0,.53-.18.8.8,0,0,0,0-.53c0-.28-.08-.56-.1-.84a1.29,1.29,0,0,1,0-.39c0-.05.05-.08.07-.13s0,0,0,0h0a.39.39,0,0,0,.29-.07s.06-.11,0-.11Z"/><path class="cls-5" d="M91.76,51.31s1.4-2.71,2.36-2.71c.57,0,2,1.55,2,3,0,2-1.4,4.22-1.75,5.37s-.28,2.81-1.82,2.8c-.6,0-1.35-1.28-1.35-1.28S91.44,53.1,91.76,51.31Z"/><path class="cls-6" d="M92.55,54a10.79,10.79,0,0,1,1.5-2.48,3.24,3.24,0,0,1,.49-.49l.2-.13h0l0,0,.07,0s0,0,0,0h0l-.11,0a1.53,1.53,0,0,1,.27.56,3.24,3.24,0,0,1,0,1.72c0,.16.36.1.4,0A3.23,3.23,0,0,0,95.31,51c-.08-.18-.15-.41-.38-.38a2.4,2.4,0,0,0-1.38,1.07A12.31,12.31,0,0,0,92.18,54c-.08.19.32.15.38,0Z"/><path class="cls-6" d="M92.86,54.51c.44,0,.24.84.2,1.09s-.2,1,.3,1c.25,0,.38-.27.47-.46A6.2,6.2,0,0,0,94.14,55a4.18,4.18,0,0,0,0-1.32,1.77,1.77,0,0,0-.83-1.47c-.17-.07-.46.18-.23.27.44.19.57.76.64,1.18a3,3,0,0,1,0,1,5.94,5.94,0,0,1-.27,1.18,1.69,1.69,0,0,1-.15.37s-.06.07-.06.09l0,0c.31.09.1,0,.1,0s0-.13,0-.19,0-.19,0-.29.07-.46.09-.69a1.19,1.19,0,0,0-.07-.67.55.55,0,0,0-.56-.26c-.23,0-.31.31,0,.3Z"/><path class="cls-5" d="M93.11,52.6c-.2,2.14-.61,4.16-.71,6.41a30.15,30.15,0,0,1-.64,6c-.18.43-.73.8-1.07,1.13a22.29,22.29,0,0,1-6.47,4.49,14.2,14.2,0,0,1-3.68.43,14.63,14.63,0,0,1-3.69-.42,22.81,22.81,0,0,1-4-2.53,12.53,12.53,0,0,1-3.62-3.24,3.23,3.23,0,0,1-.27-1.41c-.16-1.49-.19-3-.25-4.49-.1-2.25-.52-4.26-.71-6.41s-.44-11.09.19-12.8,8.17-6.31,12.38-6.31c2.94,0,7.54,2.26,10.24,4.21a6.61,6.61,0,0,1,2.14,2.1C93.55,41.51,93.31,50.45,93.11,52.6Z"/><path class="cls-7" d="M81.3,58.19a1.18,1.18,0,0,1-1.37-.08c-.08-.08-.37,0-.27.11a1.77,1.77,0,0,0,2,0,.07.07,0,0,0,0-.12c-.06,0-.27.07-.32.11"/><path class="cls-7" d="M79.46,58a2.86,2.86,0,0,0-1.13-.08.24.24,0,0,0-.15.09s0,.08,0,.1a1.3,1.3,0,0,0,.62,0A.23.23,0,0,0,79,58c0-.06,0-.08-.1-.07a.86.86,0,0,1-.5,0l-.13.19a2.46,2.46,0,0,1,1,.08.23.23,0,0,0,.19-.07s.07-.1,0-.12"/><path class="cls-7" d="M81.84,58a3.08,3.08,0,0,1,1.13-.1.26.26,0,0,1,.16.09.06.06,0,0,1,0,.08s0,0,0,0a1.19,1.19,0,0,1-.62,0,.25.25,0,0,1-.17-.11c0-.06.05-.09.1-.08a.82.82,0,0,0,.49,0l.14.18a2.47,2.47,0,0,0-1,.09.22.22,0,0,1-.19-.06s-.07-.1,0-.12"/><path class="cls-7" d="M78,58.12a1.16,1.16,0,0,1-1-.58A1.27,1.27,0,0,1,77.43,56s0-.09,0-.1a.21.21,0,0,0-.2,0,1.48,1.48,0,0,0-.61,1.32,1.16,1.16,0,0,0,.86,1,1.56,1.56,0,0,0,.42.08s.16,0,.18-.08,0-.08-.07-.09"/><path class="cls-7" d="M83.37,58.14a1.17,1.17,0,0,0,1-.59A1.27,1.27,0,0,0,83.92,56s0-.08,0-.1a.24.24,0,0,1,.2.06,1.47,1.47,0,0,1,.61,1.31,1.17,1.17,0,0,1-.86,1,1.41,1.41,0,0,1-.41.07c-.06,0-.16,0-.19-.08s0-.08.08-.08"/><path class="cls-8" d="M74.46,50.24a1,1,0,0,0-1.07.2,1,1,0,0,0-.29.44,1,1,0,0,0,.24.9.91.91,0,0,0,1,.18,1,1,0,0,0,.5-1.17.93.93,0,0,0-.43-.54"/><path class="cls-8" d="M87,50.24a1,1,0,0,1,1.07.2.88.88,0,0,1,.29.44,1,1,0,0,1-.23.9A.92.92,0,0,1,87.1,52a1,1,0,0,1-.5-1.17.93.93,0,0,1,.43-.54"/><path class="cls-8" d="M83.8,51.76s2.18-1.58,3.29-1.68a5.69,5.69,0,0,1,4.21,1.43s-2.65-1.25-3.8-1.11A19.6,19.6,0,0,0,83.8,51.76Z"/><path class="cls-8" d="M77.82,51.67s-2.18-1.59-3.3-1.69a5.69,5.69,0,0,0-4.21,1.43s2.66-1.25,3.8-1.11A19.61,19.61,0,0,1,77.82,51.67Z"/><path class="cls-8" d="M77.94,45.94v1.17c0,.3,0,1,0,1.27-.87-.26-1.65-.64-2.22-.75a9.75,9.75,0,0,0-3.39-.34,3.54,3.54,0,0,0-1.47.54c-.15.09-.54.5-.75.39s.06-.52.08-.57a2.41,2.41,0,0,1,2-1.58,15.23,15.23,0,0,1,5.75-.13"/><path class="cls-8" d="M83.73,45.94v2.3c.86-.26,1.6-.56,2.14-.67a9.62,9.62,0,0,1,3.37-.28,3.45,3.45,0,0,1,1.45.54c.14.09.52.5.73.39s-.06-.52-.07-.57a2.37,2.37,0,0,0-2-1.58,14.76,14.76,0,0,0-5.66-.13"/><path class="cls-8" d="M68.94,63.6A4.16,4.16,0,0,0,70,64.94c1.71,1.14,5,2.74,6,3.48a4.4,4.4,0,0,0,1.45.84,14.7,14.7,0,0,1,3.16-.53,7.35,7.35,0,0,1,3,.6s5.61-3.58,7.35-4.46c.12-.07.92-1.07,1-1.07s.66,1.36-3.21,4c-2.68,1.83-3.4,2.71-5.55,3.16a12.62,12.62,0,0,1-6.42-.31,38.38,38.38,0,0,1-7.41-5.26A3.65,3.65,0,0,1,68.94,63.6Z"/><path class="cls-8" d="M78.89,64.09l4-.15a2,2,0,0,1-2.09,1.71C79.28,65.48,79.6,64.76,78.89,64.09Z"/><path class="cls-9" d="M80.84,61c-2,0-5.12-.22-5.12-.22s.59,3.75,5.12,3.75S86,60.79,86,60.79,82.79,61,80.84,61Z"/><path class="cls-10" d="M80.86,61c-.93,0-4.68-.15-4.68-.15s1.24,2,4.6,2c3.65,0,4.72-2,4.72-2Z"/><path class="cls-11" d="M80.9,61.15c-.93,0-3.75-.15-3.75-.15s1,1,3.81,1,3.67-1,3.67-1Z"/><path class="cls-9" d="M86.17,60.51a6.9,6.9,0,0,1-1.1.11c-.77-.06-1.7-.26-2.26-.3a8.62,8.62,0,0,0-2,.29,8.72,8.72,0,0,0-2-.29c-.56,0-1.49.24-2.26.3a6.9,6.9,0,0,1-1.1-.11c-.1,0,.13,1,5.33,1S86.31,60.54,86.17,60.51Z"/><path class="cls-8" d="M80.2,59.05l-.14.9a.31.31,0,0,1-.27.25c-.91.12-4.38.6-5.2.58h-.06l-.27.23c-.31-.06.06-.92.36-1a19.26,19.26,0,0,1,2.21-.77,17,17,0,0,1,3.06-.52.33.33,0,0,1,.32.31S80.2,59,80.2,59.05Z"/><path class="cls-8" d="M81.07,59.05l.27.92a.31.31,0,0,0,.26.25c.92.12,4.39.56,5.22.54h.05l.27-.06c.31-.07.09-.67-.2-.78a18.29,18.29,0,0,0-2.39-.73,19.07,19.07,0,0,0-3.17-.52.32.32,0,0,0-.32.31A.17.17,0,0,0,81.07,59.05Z"/><path class="cls-12" d="M90.1,54.5c-.32.44-4.84.63-5.85,0-.7-.46-1-2.64-1.31-3.89,2.29-1.3,6.68-1.69,9.1-.41A26.74,26.74,0,0,1,90.1,54.5Z"/><path class="cls-12" d="M71.63,54.5a26.79,26.79,0,0,1-1.95-4.34c2.43-1.28,6.82-.89,9.11.41-.29,1.25-.61,3.43-1.32,3.89-1,.67-5.53.48-5.84,0Z"/><path class="cls-13" d="M67.87,51.23l1.47-.31.19.49A18.62,18.62,0,0,0,71,54.75c.51.71,5.67.69,6.65,0s1.31-3.14,1.55-4.1a6,6,0,0,1,1.66-.39,9.35,9.35,0,0,1,1.58.29c.24.86.64,3.58,1.57,4.2s6.14.66,6.65,0a18.62,18.62,0,0,0,1.5-3.34l.2-.5a.45.45,0,0,1,0-.23l1.52.32.12-.41-1.46-.51c.06-.15.11-.3.18-.44l-1.18-.41c-2.73-1.24-6.68-.66-9,.71a6.42,6.42,0,0,0-1.63-.24,8.2,8.2,0,0,0-1.71.24c-2.36-1.37-6.3-1.95-9-.71L69,49.64c.09.21.17.44.25.66l-1.48.51Zm15.06-.65c2.3-1.3,6.68-1.69,9.11-.41A27.53,27.53,0,0,1,90.1,54.5c-.32.44-4.84.63-5.85,0-.71-.45-1-2.63-1.32-3.88Zm-13.25-.41c2.43-1.28,6.81-.89,9.1.41-.28,1.25-.61,3.43-1.31,3.89-1,.67-5.53.48-5.85,0a27.63,27.63,0,0,1-1.94-4.34Z"/><path class="cls-8" d="M93.11,52.6s-.27-9.66-.23-11.23S88,35.65,85.5,34.76s2.9-.61,4.23-.36,1.42,1.07,1.42,1.07a2.21,2.21,0,0,1,1.21.5l.36.42s1.07.24,1.12.74.19,1.58.19,1.58.85-.29.85.95.05.64.05.64.73.8.38,1.48-.24.58-.24.58a3.49,3.49,0,0,1,.31.75,6.41,6.41,0,0,1-.07,3.58,5.83,5.83,0,0,0-.5,2.3Z"/><path class="cls-8" d="M67.91,52.6s.27-9.66.23-11.23,4.84-5.72,7.38-6.61-2.83-.62-4.23-.36-1.42,1.07-1.42,1.07a2.25,2.25,0,0,0-1.22.5l-.35.42s-1.07.24-1.12.74S67,38.71,67,38.71s-.86-.29-.86.95,0,.64,0,.64-.73.8-.37,1.48.24.58.24.58a3.53,3.53,0,0,0-.32.75,6.52,6.52,0,0,0,.08,3.58,6.2,6.2,0,0,1,.5,2.3Z"/><path class="cls-8" d="M89.61,34.43a7.49,7.49,0,0,0-2.24-.87,1.13,1.13,0,0,0-.76.43s-.18-.68-.81-.6a5.35,5.35,0,0,0-.87.17s-.44-.54-.72-.54-.68.37-.68.37a.65.65,0,0,0-.68-.37c-.48.08-.6.33-.6.33a.68.68,0,0,0-.76-.34,2.28,2.28,0,0,0-.82.38s-.5-.59-.82-.4l-.32.19s-.36-.5-.64-.23a3.64,3.64,0,0,1-.48.4s-.12-.25-.53-.17a1.41,1.41,0,0,0-.56.21,2.46,2.46,0,0,0-.72-.1c-.32,0-.36.4-.36.4a.54.54,0,0,0-.68-.34l-.09,0-.54.3a4.25,4.25,0,0,0-1.07.42c-.36.24-.2,1-.2,1l-2.15,2.18a16,16,0,0,1,8.84-2.5,21.28,21.28,0,0,1,9.54,2.32Z"/><path class="cls-8" d="M83.8,34.62a2.17,2.17,0,0,1,.86.27.29.29,0,0,1,.12.39.32.32,0,0,1-.19.15c-.3.09-.75-.07-1,.1s.21.47.07.69-.35.19-.53.29-.27.31-.48.44a1,1,0,0,1-.79.1c-.26-.08-.43-.27-.42-.44a.33.33,0,0,0,0-.14c-.12-.22-.73,0-1-.15s-.08-.2-.12-.3a.66.66,0,0,0-.21-.23l-.58-.48a.54.54,0,0,1-.18-.19c-.07-.16.1-.33.32-.41a2.51,2.51,0,0,1,.72-.11c1,0,2-.07,3-.06"/><path class="cls-8" d="M77.11,34.44a1.93,1.93,0,0,0-.87.3.35.35,0,0,0-.1.48.55.55,0,0,0,.17.14c.31.11.75-.08,1,.11s-.21.54-.07.81.35.21.53.32.27.37.47.51a.93.93,0,0,0,.79.12.58.58,0,0,0,.43-.51.43.43,0,0,1,0-.16c.12-.26.73,0,1-.17s.08-.23.12-.34a.71.71,0,0,1,.21-.27l.58-.54a.79.79,0,0,0,.18-.22c.06-.18-.1-.38-.32-.47a2,2,0,0,0-.71-.14c-1,0-2-.07-3-.07"/><path class="cls-8" d="M78.85,35a1.8,1.8,0,0,0-.87.29.36.36,0,0,0-.1.49.37.37,0,0,0,.17.13c.31.11.76-.08,1,.12s-.2.53-.06.8.35.22.53.33.27.36.47.51a.93.93,0,0,0,.79.12.56.56,0,0,0,.43-.52.43.43,0,0,1,0-.16c.12-.25.73,0,1-.17s.08-.22.12-.34a.79.79,0,0,1,.21-.27l.58-.55a.55.55,0,0,0,.18-.22c.06-.18-.1-.38-.32-.47a2.23,2.23,0,0,0-.72-.13q-1.5-.08-3-.06"/><path class="cls-8" d="M87,60.25a1.41,1.41,0,0,1,.56.85,1.2,1.2,0,0,1,0,.38l-.13.58a.18.18,0,0,1,0,.1.23.23,0,0,1-.12.06,1.07,1.07,0,0,1-.4,0,.32.32,0,0,1-.27-.27.49.49,0,0,0,0-.17c0-.1-.18-.08-.29-.11s-.32-.41-.43-.66a1.44,1.44,0,0,0-.85-.68,2.62,2.62,0,0,1-.53-.2.53.53,0,0,1-.29-.45"/><path class="cls-8" d="M74.59,60.44a1.36,1.36,0,0,0-.57.85,1.24,1.24,0,0,0,0,.38l.12.57a.22.22,0,0,0,0,.11.16.16,0,0,0,.11,0,.92.92,0,0,0,.4.05.34.34,0,0,0,.27-.27A.49.49,0,0,1,75,62c0-.1.19-.09.29-.11.27-.07.32-.41.43-.66a1.41,1.41,0,0,1,.85-.68,2.49,2.49,0,0,0,.54-.2.54.54,0,0,0,.29-.45"/><path class="cls-5" d="M72.32,11.48c.21,0-1.5,7.5-2.29,8.3s-4.94,2.45-6.14,2S60.25,24,59.68,24.43l-6.63-5.11,2.19-2.78,2.37-7.21a6.44,6.44,0,0,1,1.93-3c1-.85,2.27-1.67,3-1,1.27,1.14,1.11,1.6,1.11,1.6s1.87-.77,1.82.89c0,0,2.32-.7,2.57,1.38,0,0,2.47-.49,2,2.49l-.48,2S70.15,11.32,72.32,11.48Z"/><path class="cls-14" d="M62.86,17.85a3.66,3.66,0,0,1,1.2-.68,8.16,8.16,0,0,1,4.61-.44l-.16.1c.33-.91.5-1.73.69-2.3a3.42,3.42,0,0,1,.37-.88,4.27,4.27,0,0,1-.19.93,23.6,23.6,0,0,1-.6,2.34l0,.11-.11,0a9.39,9.39,0,0,0-1.3-.13,9.14,9.14,0,0,0-3.19.5C63.31,17.63,62.85,17.88,62.86,17.85Z"/><path class="cls-14" d="M61,8.08a1.2,1.2,0,0,1,0,.5,2,2,0,0,1-.44,1.34c-.21.25-.59.32-.74.53a1,1,0,0,0,0,.92,1.38,1.38,0,0,0,1.86.61h0l0,0a2,2,0,0,0,.75-.94c.17-.36.31-.74.44-1.09A18.5,18.5,0,0,0,63.43,8a3.12,3.12,0,0,0,.13-1.32,3.53,3.53,0,0,0-.15-.46s.16.11.26.44a3.11,3.11,0,0,1,0,1.39,14.9,14.9,0,0,1-.52,2,11.13,11.13,0,0,1-.43,1.14,2.42,2.42,0,0,1-.85,1,1.67,1.67,0,0,1-2.25-.63h0l-.06-.11A1.05,1.05,0,0,1,60.08,10a1.41,1.41,0,0,0,.35-.23,2,2,0,0,0,.47-1.2A2.42,2.42,0,0,1,61,8.08Z"/><path class="cls-14" d="M61.6,12.13a1.55,1.55,0,0,0,.08.36,1.22,1.22,0,0,0,.62.68,1.44,1.44,0,0,0,1.32-.08,2.78,2.78,0,0,0,1.12-1.3,7.07,7.07,0,0,0,.72-3.16,9.2,9.2,0,0,0-.11-1.39,3.4,3.4,0,0,1,.29,1.37,6.59,6.59,0,0,1-.66,3.3,2.93,2.93,0,0,1-1.26,1.41,1.6,1.6,0,0,1-1.56,0,1.24,1.24,0,0,1-.63-.82A.78.78,0,0,1,61.6,12.13Z"/><path class="cls-14" d="M63.94,13.18a1.94,1.94,0,0,0,.13.3,1.39,1.39,0,0,0,.6.6,1.49,1.49,0,0,0,1.22.08,2.29,2.29,0,0,0,1.17-1,7.92,7.92,0,0,0,.74-2.84,5.2,5.2,0,0,1,.27-1.23A5.22,5.22,0,0,1,68,10.36c0,.39-.06.84-.15,1.36a4.37,4.37,0,0,1-.53,1.61A2.53,2.53,0,0,1,66,14.42a1.63,1.63,0,0,1-1.41-.17,1.35,1.35,0,0,1-.62-.73C63.89,13.31,63.9,13.17,63.94,13.18Z"/><path class="cls-14" d="M66.75,14a2.41,2.41,0,0,1,0,.38,2.6,2.6,0,0,0,.09,1,1.22,1.22,0,0,0,1,.85,1.28,1.28,0,0,0,1.16-1,18.85,18.85,0,0,0,.85-3.22,12.45,12.45,0,0,1,.23-1.36A4.69,4.69,0,0,1,70,12a15.36,15.36,0,0,1-.78,3.28,1.53,1.53,0,0,1-1.48,1.18,1.44,1.44,0,0,1-1.14-1.06,2.28,2.28,0,0,1,0-1A.81.81,0,0,1,66.75,14Z"/><path class="cls-15" d="M106.34,104.79c1.11-7.47-1.65-22.73-1.65-22.73L93.69,79l-3.81-1.48C83,80.1,74.51,77.73,71.3,70.58a.89.89,0,0,1-.08-.32l-6-2.31s-7-2.64-10.26-5.27-6.4-11.93-6.4-11.93L61.33,24.32l-8.8-6.47S26.65,49.09,28.11,55,49.46,89.07,49.46,89.07l5.84,23.15L61.46,133s-2.64,1.18-1.17,5.28,3.35,5.9,1.47,6.74a2.34,2.34,0,0,0-1,3.84L88,152.33c2.76.34,18.1-1.5,20.85-1.92l2.43-.62S105.25,112.13,106.34,104.79Z"/><path class="cls-16" d="M53,96.26a7.85,7.85,0,0,1,0-1V94.15c0-.45,0-1,0-1.5a33.92,33.92,0,0,0-.38-3.89,37.34,37.34,0,0,0-1.05-4.66,37.67,37.67,0,0,0-1.67-4.48A36.82,36.82,0,0,0,48,76.16c-.27-.48-.56-.9-.8-1.28s-.46-.69-.61-.94a4.84,4.84,0,0,1-.54-.82,5.55,5.55,0,0,1,.61.75c.19.24.43.54.68.92s.55.77.84,1.25a32.65,32.65,0,0,1,4.68,12.68,32.19,32.19,0,0,1,.31,3.92v1.51a6.14,6.14,0,0,1,0,1.14A5.31,5.31,0,0,1,53,96.26Z"/><g id="freepik--Character--inject-2"><path class="cls-15" d="M117.71,127c1.93.52,3.52.68,5.28-.36a9.18,9.18,0,0,0,1-.57,5.12,5.12,0,0,0,1.39-1.86c4.62-10.76,8.57-31.85,8.57-31.85l-8.78-3.62-9.86,21.21,0,.1a25.28,25.28,0,0,1,.54,5.06c0,1.48,0,3,.2,4.46a17.51,17.51,0,0,0,1.15,4.61C117.5,125,117.35,126.21,117.71,127Z"/><path class="cls-15" d="M117.71,127c-.1-.67,1-.84.91-1.52a26.25,26.25,0,0,1,.75-10.14c.9-2.83,2.27-5.5,2.84-8.43L109.87,85.37a6.42,6.42,0,0,0-4-3l-2.34-.58c-.54,6.4-2.08,12.69-2.17,19.13a46.63,46.63,0,0,0,1.44,11.34,58.67,58.67,0,0,0,3.41,10.22l-.56-7.74C108.47,119.09,112.45,125.41,117.71,127Z"/><path class="cls-16" d="M118.81,102.39l0-.35,0,0a8.2,8.2,0,0,0-1.84,5.76,3,3,0,0,0,.26,1.25A10.78,10.78,0,0,1,118.81,102.39Z"/><path class="cls-16" d="M108,130.85c0-.31-.08-.65-.14-1.09-.13-1-.29-2.35-.48-4-.37-3.44-.9-8-1.44-13.2s-1-9.82-1.32-13.2c-.15-1.65-.27-3-.37-4,0-.43-.05-.8-.07-1.09a1.21,1.21,0,0,1,0-.38,1.58,1.58,0,0,1,0,.38c0,.32.09.66.15,1.09.16,1,.33,2.34.54,4,.37,3.35.89,8,1.43,13.2s1,9.82,1.32,13.2c.15,1.65.27,3,.35,4"/><path class="cls-17" d="M119.36,74.14c-5.18-2.21-17.51,2.41-23.29,2.38-5.56,0-7.31.52-12.81-.55-4.08-.8-10.26-3.81-13.75-8.14l-1.73,3c1,3.43,3.48,5,6.41,6.72s11.34,4.14,20.61,4.17c8.14,0,16.24-5.24,22.5-2.65"/><path class="cls-5" d="M132.54,84.53A34.1,34.1,0,0,0,133.61,81l-2.46-6.69-4.75,7s1.77,6,2,6.21C128.37,87.5,132.42,84.55,132.54,84.53Z"/><path class="cls-18" d="M116.49,68.76h0a10.23,10.23,0,1,1-4.64,13.71h0a10.23,10.23,0,0,1,4.64-13.71Z"/><path class="cls-19" d="M116.49,68.76h0a10.23,10.23,0,1,1-4.64,13.71h0a10.23,10.23,0,0,1,4.64-13.71Z"/><path class="cls-20" d="M115.81,67.62h0a10.23,10.23,0,1,1-4.64,13.71h0A10.23,10.23,0,0,1,115.81,67.62Z"/><path class="cls-13" d="M112.75,78.74a8,8,0,0,1,3-8.11,8.11,8.11,0,0,1,3.94-1.58,7.85,7.85,0,0,1,2.32.07,7.66,7.66,0,0,1,2.27.79,8.05,8.05,0,0,1,2.14,12.76c-.21.22-.43.42-.66.62a8,8,0,0,1-11.23-1l0,0a6.31,6.31,0,0,1-1-1.67,15.57,15.57,0,0,0,1.13,1.57c.15.17.3.33.47.49a7.8,7.8,0,0,0,11-.23,7.69,7.69,0,0,0-2-12.13,7.05,7.05,0,0,0-2.18-.75,7.14,7.14,0,0,0-2.21-.08,7.74,7.74,0,0,0-6.08,4.21,7.9,7.9,0,0,0-.69,5.08,14.62,14.62,0,0,0,.56,1.85A6,6,0,0,1,112.75,78.74Z"/><g class="cls-21"><path class="cls-6" d="M119.29,73.73l2.9,6.45-1.5.67-2.36-5.25-1.28.59-.53-1.2Z"/></g><path class="cls-5" d="M126,89.08,132.92,92l3.65-6.91s2.35-4.27,2.12-5.15a4.17,4.17,0,0,0-.78-1.49s.94-1,.36-1.92a4,4,0,0,0-1.87-1.29s-.16-2-.87-2.4-8.7-1.32-8.7-1.32-.77,1.64.43,2l-1.43.33a1,1,0,0,0,0,.16,1.4,1.4,0,0,0,1.26,1.53l-1.74.61s.43,1.63,1.56,1.91l-1.63.45a2.85,2.85,0,0,0,1.43,2.23c1.34.68,4.28-.09,4.28-.09l1.61,1.85A47.09,47.09,0,0,0,127.49,87C126.54,88.26,126,89.08,126,89.08Z"/><path class="cls-14" d="M126.76,78a18.29,18.29,0,0,1,3.48-1,5.9,5.9,0,0,1,2,.08c.53.14,1,.3,1.55.49.85.32,1.4.42,1.39.47a3.28,3.28,0,0,1-1.47-.2c-.49-.14-1-.27-1.54-.4a6.23,6.23,0,0,0-1.88,0,29,29,0,0,0-3.43.82,4.09,4.09,0,0,1-1.47.24A8.25,8.25,0,0,1,126.76,78Z"/><path class="cls-14" d="M132.66,82.47l0,.31a9.73,9.73,0,0,1-.86-.84,10.19,10.19,0,0,1-1-1.33l.24.06a4.64,4.64,0,0,1-1.94.39c-.48,0-.75,0-.75-.09s.27-.06.73-.14a5.41,5.41,0,0,0,1.77-.48l.15-.09.08.14a13.59,13.59,0,0,0,1,1.26c.27.27.56.58.83.83l.2.18-.23.14c-1.54.84-2.51,1.77-2.57,1.69A6.72,6.72,0,0,1,132.66,82.47Z"/><path class="cls-14" d="M133.18,75.48l-1.48-.27a3.87,3.87,0,0,0-.84-.12,5.49,5.49,0,0,0-.91.07c-1.27.2-2.41.54-3.23.74a4.65,4.65,0,0,1-1.38.24,5.61,5.61,0,0,1,1.3-.52,19.43,19.43,0,0,1,3.25-.85,4.72,4.72,0,0,1,1-.07,3.94,3.94,0,0,1,.9.15l1.47.35a4.88,4.88,0,0,1,1.3.39A4.85,4.85,0,0,1,133.18,75.48Z"/><path class="cls-14" d="M133.3,73.6l-1.4-.18-.83-.11-.44-.07-.22,0h-.2c-1.18.13-2.26.34-3.08.47a4.79,4.79,0,0,1-1.3.13,4.16,4.16,0,0,1,1.25-.4,23.39,23.39,0,0,1,3.11-.6,1.22,1.22,0,0,1,.27,0l.23,0,.43.06.83.15,1.39.25a4.07,4.07,0,0,1,1.28.34A4.5,4.5,0,0,1,133.3,73.6Z"/></g><path class="cls-19" d="M121.89,77.38a.11.11,0,0,1-.08,0,.13.13,0,0,1-.06-.07l-.12-.68-.53.18H121a.16.16,0,0,1-.06-.08l-.06-.18a.12.12,0,0,1,.07-.15h0l.59-.19-.17-1-.59.2a.17.17,0,0,1-.1,0,.12.12,0,0,1-.06-.08l-.06-.18a.17.17,0,0,1,0-.1.09.09,0,0,1,.07,0l.66-.22-.12-.68V74a.11.11,0,0,1,.07-.06l.2-.07h.09s0,0,0,.07l.12.68.79-.27-.12-.67V73.6a.09.09,0,0,1,.07-.06l.2-.07a.14.14,0,0,1,.09,0,.08.08,0,0,1,.05.07l.12.68.52-.18a.17.17,0,0,1,.1,0,.16.16,0,0,1,.06.08l.06.18a.09.09,0,0,1,0,.1.11.11,0,0,1-.07.06l-.58.19.17,1,.58-.19a.09.09,0,0,1,.1,0,.11.11,0,0,1,.06.07l.06.18a.09.09,0,0,1,0,.1.12.12,0,0,1-.08.06l-.64.21.12.68a.12.12,0,0,1-.07.15h0l-.19.07a.14.14,0,0,1-.09,0,.13.13,0,0,1-.06-.07l-.11-.68-.79.27.12.68a.12.12,0,0,1-.08.15h0ZM122,76l.78-.27-.17-1-.79.27Z"/><path class="cls-8" d="M77.44,69.86a1.57,1.57,0,0,0,.66.22l.27.08c.76,0,1.52,0,2.28,0a1.54,1.54,0,0,0,.56-.1l.05,0c.57,0,1.13,0,1.7,0l.26-.07a1.57,1.57,0,0,0,.67-.19.24.24,0,0,0,.09-.3.21.21,0,0,0-.15-.11c-.23-.08-.57,0-.73-.08s.16-.36.05-.54-.27-.14-.4-.21-.22-.24-.36-.34a.84.84,0,0,0-.6-.08c-.22,0-.5.07-.57-.07a.29.29,0,0,1,0-.13.45.45,0,0,0-.33-.39.71.71,0,0,0-.6.09c-.15.11-.2.28-.36.39l-.17.08a.49.49,0,0,0-.2-.11A.71.71,0,0,0,79,68c-.15.12-.2.29-.36.39s-.34.13-.4.25.23.45,0,.62-.5,0-.74.08a.27.27,0,0,0-.18.33A.31.31,0,0,0,77.44,69.86Z"/><path class="cls-6" d="M69,64.67a4.3,4.3,0,0,1,.8,1.8c.24-.17.56.08.71.33s.3.56.6.59.37-.07.5,0,.09.34.14.52c.15.56,1.2.37,1.39.93.06.17,0,.37.12.52.24.38,1-.05,1.26.3.11.13.1.35.23.48s.7,0,1,.15.23.44.44.58.64,0,.93.11.38.69.74.71.44-.29.7-.35c.47-.11.83.64,1.29.51.17,0,.27-.19.44-.25.4-.14.81.33,1.23.22s.46-.41.75-.41a2.27,2.27,0,0,1,.46.16s.55.32.8-.07l.27-.39a1.63,1.63,0,0,0,.76,0c.33-.11.65-.71.65-.71s.81-.06,1-.28l.38-.55a2.32,2.32,0,0,0,.82-.18,1.46,1.46,0,0,0,.36-.61s.84,0,1-.23A2.43,2.43,0,0,0,89,68a1,1,0,0,0,.77,0c.36-.18.54-1,.54-1a3,3,0,0,0,.67-.2A2.81,2.81,0,0,0,91.4,66s1.12-.43.86-.61,0-1.59,0-1.59a7.17,7.17,0,0,1-1.09,1.46c-.36.24-.93.07-1,.39s-.71.66-.71.66a1.28,1.28,0,0,0-.85.47,3.61,3.61,0,0,0-.59.76s0-.69-.62-.11a4.17,4.17,0,0,1-.88.74s-.67-.41-.82,0A3.67,3.67,0,0,1,85,69s-.44-.55-.81-.14a3.77,3.77,0,0,1-.87.66l-5.33,0a.54.54,0,0,0-.4-.18l-.8,0s-.11-.74-.41-.6a1.2,1.2,0,0,1-.75,0,2.3,2.3,0,0,0-.46-.42c-.25-.16-.67-.37-.67-.37s.14-.69-.29-.59a1.18,1.18,0,0,1-.82-.15s0-.61-.35-.51a4.29,4.29,0,0,1-.73.15,3.93,3.93,0,0,0-.44-.55L71.47,66s-.47-.9-.69-.9-.59,0-.59,0-.4-1-.65-.87-.54-.93-.54-.93A1.37,1.37,0,0,0,69,64.67Z"/></g></svg>