<svg id="Layer_1" data-name="Layer 1" xmlns="http://www.w3.org/2000/svg" xmlns:xlink="http://www.w3.org/1999/xlink" viewBox="0 0 165.86 165.86"><defs><style>.cls-1{fill:none;}.cls-2{clip-path:url(#clip-path);}.cls-3{fill:#a66e54;}.cls-4{fill:#50939e;}.cls-5{fill:#4f2e25;}.cls-6{fill:#283f3f;}.cls-7{fill:#010101;}.cls-8{fill:#231f20;}.cls-9{fill:#151210;}.cls-10{fill:#653c29;}.cls-11{fill:#31160e;}.cls-12{fill:#f1eef7;}.cls-13{fill:#fff;opacity:0.14;}.cls-14{fill:#273238;}.cls-15{fill:#161312;}</style><clipPath id="clip-path"><rect class="cls-1" width="165.86" height="165.86"/></clipPath></defs><g class="cls-2"><path class="cls-3" d="M58.38,56.78l-.82,15.44C57,73.54,39.9,81.39,39.9,81.39L78.78,94.77l27.28-13.38L86.73,72.76l-.52-15"/><path class="cls-4" d="M47.51,75.77S27.19,81,20.58,89C11,100.55,10.07,148.43,8.3,159.61S11.49,216,11.49,216s11.85,2.3,15.51-.51l3.52-55,5.64-45.62Z"/><path class="cls-3" d="M139.3,73.8l.3,8.08h11.75a12,12,0,0,1,1.27-8.75c1.68-2.38,9.13-19.57,10.06-21.65s.56-3.3-.26-3.2c-1.45.18-6,10.12-6.76,9.94s5.09-12.26,4.9-14.56c-.09-1.1-.65-1.25-1.21-1.11A2,2,0,0,0,158,43.79c-.45,1.17-2.53,5.36-3.65,7.74-1.68,3.58-2.64,5.36-2.8,5.27s.35-2.21,2-5.8c1-2.21,2.25-6.12,2.94-8.21l.06-.17c.81-2.22-.36-3.8-1.72-2.06-2,2.52-6.9,14.95-6.79,14.8s.59-3.33.95-5.7,4.35-11.78,1.36-10.78c-1.44.47-3.82,6.82-4.86,9.54-1.2,3-4.68,12-4.68,12a69.55,69.55,0,0,0-1.06-7.74c-.83-3.24-3-3-3-3s-.48,16.38-.07,19.2A9.35,9.35,0,0,0,139.3,73.8Z"/><path class="cls-5" d="M143.54,61.73a6.69,6.69,0,0,1,5.16,2.79,8.86,8.86,0,0,1,1.37,3.24c0,.22.7.06.65-.18a8,8,0,0,0-2.91-4.83,7.36,7.36,0,0,0-3.26-1.33,6.48,6.48,0,0,0-.76-.06c-.13,0-.36,0-.43.18s0,.19.18.19Z"/><g id="freepik--Character--inject-1209"><path class="cls-4" d="M45.87,77.68,55.41,73s.86,12,17,11.42c16-.59,16.28-11.1,16.32-11.17a15,15,0,0,1,2.73-.1c1.41,0,2.8.11,4.21,0a73.68,73.68,0,0,1,9.16,0c2.7.13,5.63.2,8.13,1.39a22.12,22.12,0,0,1,10.19,10.72c.22.55,1.5,3.88,1.65,4.46L132,107.06l5.37-29,1.5,1.05a19.81,19.81,0,0,0,13.3.57l.88-.27s-2.92,51-4.29,58.31c-3.35,10.88-7.59,18.47-19.5,12.51-3.87-1.94-8.74-8.6-13-15.57l-.45,28.88s2.54,33.8,3.9,44.89c.2,1.76-20.75,7.27-22,7.5-10,1.8-31,1.94-41.15.47-1.46-.22-23.36-2-23.35-10.46,0-.61.9-79.83.9-79.83Z"/></g><path class="cls-4" d="M57.61,201.25c-2.09-.91-4.1-2-6.12-3.05s-4.13-2-6.14-3.12a53,53,0,0,1-6.86-4.55c.78-8.59,1.55-15.44,1.55-15.44l-8.16-72c.1-6.57.33-13.16.27-19.73,0-.6,5.85-3.09,6.62-3.47,2.48-1.25,5-2.44,7.52-3.58s5.53-1.74,8.1-2.76c1.16-.46.3,1.4.86,2.53.26.54,1.34,1.32,1.35,1.94l6.12,54.2c.18,4.48,1.56,23.61,1.55,23.66-.07,1.86,1.52,28.8.9,35.29a62.35,62.35,0,0,1-2.67,11.71A22.19,22.19,0,0,1,57.61,201.25Z"/><polygon class="cls-6" points="116.26 134.67 118.89 99.65 117.78 137.12 116.26 134.67"/><polygon class="cls-6" points="34.23 130.79 32.8 99.78 32.53 120.36 33.16 138.42 34.23 130.79"/><path class="cls-3" d="M54.53,38.71s-2.28-4.4-3.82-4.39c-.94,0-3.21,2.51-3.18,4.91,0,3.2,2.26,6.84,2.82,8.71s.46,4.55,2.95,4.54c1,0,2.21-2.07,2.21-2.07S55,41.62,54.53,38.71Z"/><path class="cls-7" d="M53.86,43a20.55,20.55,0,0,0-2-3.5A7,7,0,0,0,50.42,38a2,2,0,0,0-.85-.4c-.38-.06-.56.23-.71.53a5.22,5.22,0,0,0-.22,3.57c.07.28.72.11.65-.17a5.49,5.49,0,0,1,0-2.76,3.91,3.91,0,0,1,.27-.67l.11-.19c0-.06,0,0,0,0l-.31.13c-.08,0-.1,0,0,0s-.08,0,0,0l.08,0,.09,0s.06,0,0,0l.07,0,.3.18a7.45,7.45,0,0,1,1.85,2.14,23.92,23.92,0,0,1,1.51,2.77c.13.26.77.07.65-.18Z"/><path class="cls-7" d="M52.84,43.49c-2-.07-.84,2.22-1,3.28,0,0,0,.1,0,.15s0,0,0,.07.36,0,.34-.08a.63.63,0,0,0-.11-.12,1.82,1.82,0,0,1-.15-.27,7.26,7.26,0,0,1-.48-1.65,6.33,6.33,0,0,1-.14-2c.07-.73.26-1.92,1-2.25.41-.18,0-.36-.25-.24a2.57,2.57,0,0,0-1.34,2,5.66,5.66,0,0,0-.09,1.79,12.11,12.11,0,0,0,.45,2c.1.3.24.81.55,1a.69.69,0,0,0,.86-.31,1.65,1.65,0,0,0,.05-.91c0-.31-.46-2.17.12-2.15.12,0,.37,0,.43-.17s-.06-.17-.17-.17Z"/><path class="cls-3" d="M91.14,38.71s2.27-4.4,3.82-4.39c.94,0,3.21,2.51,3.18,4.91,0,3.2-2.27,6.84-2.82,8.71s-.47,4.55-3,4.54c-1,0-2.2-2.07-2.2-2.07S90.62,41.62,91.14,38.71Z"/><path class="cls-7" d="M92.45,43.09a17.87,17.87,0,0,1,2.43-4,5.7,5.7,0,0,1,.82-.81c.12-.08.14-.1.28-.18s.15-.07.07,0l.11,0h0c.09,0,0,0,0,0h0l-.17,0a2.7,2.7,0,0,1,.42.93,5.43,5.43,0,0,1,0,2.8c-.05.21.6.12.65-.09a5.27,5.27,0,0,0-.12-3.33,1.5,1.5,0,0,0-.3-.54.35.35,0,0,0-.31-.05A4.08,4.08,0,0,0,94,39.4a20.3,20.3,0,0,0-2.2,3.77c-.06.13.22.13.28.13a.47.47,0,0,0,.37-.21Z"/><path class="cls-7" d="M92.93,43.91c.72,0,.39,1.36.33,1.76s-.33,1.71.49,1.66c.39,0,.61-.42.75-.74a8.33,8.33,0,0,0,.5-1.82,6.76,6.76,0,0,0,.09-2.15,2.82,2.82,0,0,0-1.34-2.38c-.29-.12-.75.29-.37.46.7.31.92,1.23,1,1.91a5.12,5.12,0,0,1,0,1.61A10.36,10.36,0,0,1,94,46.13a2.63,2.63,0,0,1-.25.6s-.1.11-.1.14l.08,0c.5.14.15,0,.15,0s-.06-.2-.06-.29a2.58,2.58,0,0,1,0-.48c0-.37.12-.75.15-1.12a2.08,2.08,0,0,0-.11-1.08.91.91,0,0,0-.92-.44c-.38,0-.49.51,0,.5Z"/><path class="cls-3" d="M93.34,40.81c-.32,3.49-1,6.75-1.16,10.4s-.46,8.43-1,9.79c-.29.7-1.19,1.32-1.74,1.84a36,36,0,0,1-10.49,7.28c-1.67.69-6,.69-6,.69s-4.32,0-6-.69A36.69,36.69,0,0,1,60.43,66c-2-1.4-4.56-3.12-5.88-5.25a5.3,5.3,0,0,1-.45-2.27c-.26-2.42-.3-4.86-.41-7.29-.16-3.65-.83-6.91-1.15-10.4s-.71-18,.32-20.77S66.11,9.8,72.94,9.8c4.79,0,12.24,3.67,16.61,6.83C91.41,18,92.71,19.21,93,20,94.05,22.82,93.65,37.32,93.34,40.81Z"/><path class="cls-8" d="M74.18,49.88A1.92,1.92,0,0,1,72,49.74c-.14-.12-.62,0-.43.18a2.8,2.8,0,0,0,3.19,0c.08-.06.07-.15,0-.19s-.42.11-.51.17"/><path class="cls-8" d="M71.2,49.49a4.77,4.77,0,0,0-1.84-.13.35.35,0,0,0-.25.14c0,.06,0,.13,0,.16a1.79,1.79,0,0,0,1,.05.37.37,0,0,0,.27-.18c0-.1-.07-.14-.15-.12a1.49,1.49,0,0,1-.81,0l-.22.3a4.18,4.18,0,0,1,1.65.13.37.37,0,0,0,.31-.1c0-.06.1-.17,0-.2"/><path class="cls-8" d="M75.06,49.63a4.71,4.71,0,0,1,1.83-.15.35.35,0,0,1,.25.14c0,.06,0,.13,0,.15a1.8,1.8,0,0,1-1,.07.35.35,0,0,1-.28-.18c0-.1.08-.14.16-.12a1.46,1.46,0,0,0,.8-.06l.22.3a4.34,4.34,0,0,0-1.64.14.33.33,0,0,1-.31-.09c-.06-.06-.11-.17,0-.2"/><path class="cls-8" d="M68.78,49.77a1.93,1.93,0,0,1-1.61-1,2.08,2.08,0,0,1,.72-2.52c.09-.06,0-.14,0-.16a.4.4,0,0,0-.32.08,2.39,2.39,0,0,0-1,2.14,1.89,1.89,0,0,0,1.4,1.56,2.94,2.94,0,0,0,.67.12.38.38,0,0,0,.3-.13c0-.09,0-.14-.13-.14"/><path class="cls-8" d="M77.53,49.8a1.93,1.93,0,0,0,1.61-1,2.06,2.06,0,0,0-.72-2.51.09.09,0,0,1,0-.17.4.4,0,0,1,.33.09,2.36,2.36,0,0,1,1,2.14,1.88,1.88,0,0,1-1.39,1.55,2.63,2.63,0,0,1-.67.12c-.1,0-.26,0-.31-.13s0-.13.13-.13"/><path class="cls-9" d="M63.08,37a1.61,1.61,0,0,0-1.73.31,1.55,1.55,0,0,0-.47.73,1.6,1.6,0,0,0,.38,1.45,1.48,1.48,0,0,0,1.71.3,1.63,1.63,0,0,0,.8-1.91,1.43,1.43,0,0,0-.69-.88"/><path class="cls-9" d="M83.46,37a1.62,1.62,0,0,1,1.74.31,1.55,1.55,0,0,1,.46.73,1.57,1.57,0,0,1-.37,1.45,1.48,1.48,0,0,1-1.71.3,1.65,1.65,0,0,1-.81-1.91,1.51,1.51,0,0,1,.69-.88"/><path class="cls-9" d="M78.22,39.45s3.54-2.57,5.35-2.74c2.64-.24,5.89,1.11,6.83,2.32,0,0-4.31-2-6.16-1.8S78.22,39.45,78.22,39.45Z"/><path class="cls-9" d="M68.53,39.29S65,36.72,63.18,36.55c-2.64-.24-5.89,1.11-6.83,2.32,0,0,4.3-2,6.16-1.8S68.53,39.29,68.53,39.29Z"/><path class="cls-9" d="M68.73,30c0,.63,0,1.26,0,1.9,0,.48,0,1.58,0,2.06-1.41-.42-2.69-1-3.6-1.21a16.13,16.13,0,0,0-5.51-.56,5.94,5.94,0,0,0-2.39.87c-.23.15-.86.81-1.2.64-.14-.07.09-.85.12-.93.48-1.56,1.72-2.2,3.24-2.57a24.86,24.86,0,0,1,9.34-.2"/><path class="cls-9" d="M78.11,30c0,.63,0,1.26,0,1.9,0,.48,0,1.35,0,1.83,1.4-.42,2.6-.91,3.5-1.08a15.57,15.57,0,0,1,5.47-.46,5.71,5.71,0,0,1,2.35.87c.23.15.85.81,1.19.64.14-.07-.1-.85-.12-.93-.48-1.56-1.7-2.2-3.19-2.57a24.13,24.13,0,0,0-9.2-.2"/><path class="cls-9" d="M54.12,58.67a6.77,6.77,0,0,0,1.74,2.19c2.77,1.84,8.18,4.43,9.78,5.65A7.43,7.43,0,0,0,68,67.87,25.08,25.08,0,0,1,73.12,67a12.28,12.28,0,0,1,4.93,1s9.09-5.8,11.91-7.24c.2-.1,1.51-1.71,1.63-1.75s1.07,2.21-5.2,6.5c-4.36,3-5.5,4.4-9,5.13s-8.31.49-10.44-.51c-3.3-1.53-10.84-7.1-12-8.56A6,6,0,0,1,54.12,58.67Z"/><path class="cls-9" d="M70.27,59.46l6.46-.25c-.15.36-.65,3-3.4,2.76C70.89,61.72,71.42,60.54,70.27,59.46Z"/><path class="cls-10" d="M73.43,54.45c-3.17,0-8.31-.36-8.31-.36s1,6.11,8.31,6.11,8.31-6.11,8.31-6.11S76.6,54.45,73.43,54.45Z"/><path class="cls-11" d="M73.46,54.45c-1.51,0-7.59-.24-7.59-.24s2,3.24,7.47,3.24c5.91,0,7.65-3.2,7.65-3.2Z"/><path class="cls-12" d="M73.53,54.67c-1.51,0-6.1-.24-6.1-.24S69.08,56,73.6,56s6-1.56,6-1.56Z"/><path class="cls-10" d="M82.07,53.64a11.26,11.26,0,0,1-1.78.18c-1.25-.1-2.76-.42-3.67-.49a14,14,0,0,0-3.19.48,14.06,14.06,0,0,0-3.2-.48c-.9.07-2.41.39-3.66.49a11.44,11.44,0,0,1-1.79-.18c-.22,0,.21,1.64,8.65,1.64S82.3,53.69,82.07,53.64Z"/><path class="cls-9" d="M72.39,51.25l-.22,1.46a.52.52,0,0,1-.43.4c-1.48.21-7.11,1-8.45,1H63.2l-.42.37c-.5-.1.1-1.51.57-1.69A33,33,0,0,1,67,51.48a31,31,0,0,1,5-.84A.51.51,0,0,1,72.39,51.25Z"/><path class="cls-9" d="M73.8,51.26l.42,1.49a.5.5,0,0,0,.43.4c1.49.2,7.27.46,8.46.88a.14.14,0,0,0,.09,0l.43-.09c.5-.1.15-1.09-.32-1.27a33.25,33.25,0,0,0-3.88-1.18,33.63,33.63,0,0,0-5.14-.84A.52.52,0,0,0,73.8,51.26Z"/><path class="cls-13" d="M88.45,43.9a43.15,43.15,0,0,0,3.16-7c-3.94-2.07-11.06-1.44-14.78.67.46,2,1,5.57,2.13,6.32,1.63,1.08,9,.77,9.49,0Z"/><path class="cls-13" d="M58.49,43.9c.52.72,7.85,1,9.49,0,1.14-.75,1.67-4.29,2.13-6.32-3.73-2.11-10.84-2.74-14.79-.67a42.36,42.36,0,0,0,3.17,7Z"/><path class="cls-14" d="M52.38,38.58l2.39-.5.32.8a29,29,0,0,0,2.43,5.41c.82,1.15,9.2,1.13,10.79.08s2.12-5.08,2.51-6.64a9.08,9.08,0,0,1,2.7-.63,14.29,14.29,0,0,1,2.56.46c.38,1.4,1,5.81,2.55,6.81s10,1.07,10.79-.08a29,29,0,0,0,2.43-5.41l.32-.81a.77.77,0,0,1,0-.37l2.46.51.2-.67-2.36-.82c.08-.24.18-.48.28-.72l-1.91-.66c-4.44-2-10.84-1.07-14.66,1.15a11.62,11.62,0,0,0-2.66-.39,13.54,13.54,0,0,0-2.77.38c-3.83-2.21-10.22-3.16-14.65-1.14L54.18,36a10.7,10.7,0,0,1,.41,1.07l-2.4.83Zm24.44-1c3.73-2.11,10.85-2.74,14.79-.67a43.15,43.15,0,0,1-3.16,7c-.52.72-7.86,1-9.49,0C77.82,43.1,77.29,39.56,76.82,37.53Zm-21.5-.67c4-2.07,11.06-1.44,14.79.67-.46,2-1,5.57-2.13,6.32-1.64,1.08-9,.77-9.49,0A42.36,42.36,0,0,1,55.32,36.86Z"/><path class="cls-9" d="M93.34,40.81S92.89,25.14,93,22.59,85.1,13.31,81,11.85s4.7-1,6.86-.57S90.16,13,90.16,13a3.58,3.58,0,0,1,2,.81l.57.67s1.75.41,1.82,1.21.31,2.56.31,2.56,1.38-.47,1.38,1.55.09,1,.09,1,1.18,1.32.61,2.4-.4.94-.4.94A5.73,5.73,0,0,1,97,25.43c.25.79.72,3.91-.12,5.79A9.66,9.66,0,0,0,96.1,35Z"/><path class="cls-9" d="M52.45,40.81s.44-15.67.38-18.22,7.85-9.28,12-10.74-4.59-1-6.86-.57S55.62,13,55.62,13a3.58,3.58,0,0,0-2,.81l-.57.67s-1.75.41-1.82,1.21-.3,2.56-.3,2.56-1.39-.47-1.39,1.55-.09,1-.09,1-1.18,1.32-.61,2.4.4.94.4.94a5.47,5.47,0,0,0-.51,1.23c-.25.79-.73,3.91.11,5.79A9.78,9.78,0,0,1,49.69,35Z"/><path class="cls-9" d="M87.66,11.33S84.87,9.79,84,9.91a1.84,1.84,0,0,0-1.23.71s-.29-1.11-1.31-1a7.68,7.68,0,0,0-1.42.27s-.71-.85-1.17-.85a2.36,2.36,0,0,0-1.1.58,1.06,1.06,0,0,0-1.11-.58c-.78.13-1,.52-1,.52A1.11,1.11,0,0,0,74.47,9a3.65,3.65,0,0,0-1.32.6s-.82-1-1.34-.64l-.52.32s-.59-.82-1-.38a4.87,4.87,0,0,1-.78.64s-.19-.39-.84-.26a2.36,2.36,0,0,0-.91.33,3.34,3.34,0,0,0-1.17-.15c-.52.05-.59.64-.59.64a.87.87,0,0,0-1.26-.49l-.88.49a7.1,7.1,0,0,0-1.76.67c-.58.39-.32,1.62-.32,1.62L58.25,16A26,26,0,0,1,72.6,11.91a34.51,34.51,0,0,1,15.48,3.76Z"/><path class="cls-5" d="M83.72,24.39s-12.57-1.76-21.17,0"/><path class="cls-9" d="M78.23,11.64a3.29,3.29,0,0,1,1.4.41.46.46,0,0,1-.11.87c-.49.16-1.22-.11-1.56.17s.34.76.11,1.13c-.14.22-.57.3-.85.46s-.46.51-.77.72a1.7,1.7,0,0,1-1.28.16c-.42-.12-.71-.42-.69-.72a.59.59,0,0,0,0-.23c-.2-.36-1.18,0-1.58-.24-.17-.12-.12-.32-.19-.48a1.2,1.2,0,0,0-.34-.38l-.94-.77a1,1,0,0,1-.29-.32c-.11-.25.15-.53.51-.66a4.05,4.05,0,0,1,1.18-.18q2.43-.11,4.86-.09"/><path class="cls-9" d="M67.38,11.35a3,3,0,0,0-1.41.47.57.57,0,0,0,.12,1c.49.18,1.22-.13,1.56.19s-.34.88-.12,1.3c.14.26.58.34.86.53s.45.59.77.83a1.49,1.49,0,0,0,1.28.18.91.91,0,0,0,.69-.83.46.46,0,0,1,0-.26c.19-.41,1.18,0,1.57-.27.18-.15.13-.37.2-.56a1.14,1.14,0,0,1,.34-.43l.94-.9a1,1,0,0,0,.29-.36c.11-.3-.16-.61-.51-.76a3.57,3.57,0,0,0-1.18-.2q-2.43-.13-4.86-.12"/><path class="cls-9" d="M70.2,12.29a3,3,0,0,0-1.4.48.57.57,0,0,0,.11,1c.5.17,1.22-.13,1.56.19s-.33.88-.11,1.29.57.35.86.54.45.58.76.82a1.51,1.51,0,0,0,1.28.19A.92.92,0,0,0,74,16a.46.46,0,0,1,0-.26c.19-.41,1.18,0,1.57-.28.17-.14.13-.36.19-.55a1.28,1.28,0,0,1,.34-.44l1-.89a1,1,0,0,0,.28-.36c.11-.3-.15-.61-.51-.77a3.48,3.48,0,0,0-1.18-.2c-1.61-.08-3.24-.12-4.86-.11"/><path class="cls-9" d="M83.42,53.22a2.28,2.28,0,0,1,.92,1.38,2.2,2.2,0,0,1-.08.62l-.2.93a.4.4,0,0,1-.07.18.33.33,0,0,1-.19.08,1.45,1.45,0,0,1-.65.07.53.53,0,0,1-.44-.44.82.82,0,0,0,0-.27c-.07-.16-.3-.14-.47-.19-.43-.11-.3-1.34-.49-1.74-.25-.55-1-.23-1.59-.42a4.16,4.16,0,0,1-.85-.33.86.86,0,0,1-.47-.73"/><path class="cls-9" d="M63.28,53.52a2.22,2.22,0,0,0-.91,1.39,2.12,2.12,0,0,0,.07.61l.2.93a.56.56,0,0,0,.07.18.33.33,0,0,0,.19.08,1.48,1.48,0,0,0,.66.07.53.53,0,0,0,.43-.44.82.82,0,0,1,0-.27c.07-.16.3-.14.47-.18a1.13,1.13,0,0,0,.7-1.07c0-.39-.28-.85.29-1,.28-.1,1.67-.23,1.93-.39a.82.82,0,0,0,.47-.73"/><path class="cls-15" d="M88.33,12.05a4.55,4.55,0,0,0-3.69-1.55,3.08,3.08,0,0,1-1.25,0c-.47-.17-.77-.63-1.17-.93a2.93,2.93,0,0,0-2.87-.08,1.42,1.42,0,0,1-.74.18c-.38-.07-.6-.47-.85-.77a2,2,0,0,0-2.41-.41c-.43.25-.8.67-1.3.7-.94.06-1.5-1.32-2.44-1.25-.78.06-1.35,1.11-2.1.87-.36-.11-.57-.5-.92-.67-1-.48-1.83,1.16-2.93,1.19-.78,0-1.61-.76-2.24-.3-.22.16-.32.43-.54.6-.39.3-1,.14-1.44.18a3.44,3.44,0,0,0-2.09,1.4l-1.42,1.6"/><path class="cls-9" d="M89.09,11.75a5.1,5.1,0,0,0-2.3-1.46c-1.05-.31-2.32.06-3.25-.55-.74-.48-1.08-.93-2-1a5.38,5.38,0,0,0-1.33.09A5.69,5.69,0,0,1,79,9.17c-.27-.08-.54-.66-.76-.84a2.45,2.45,0,0,0-1-.45A3.39,3.39,0,0,0,75.34,8c-.28.1-.68.47-1,.53-.48.1-.68-.28-1-.55a2.12,2.12,0,0,0-1.53-.52c-.69,0-1.09.52-1.68.67-.19.26-.3.25-.35,0a1.93,1.93,0,0,0-.46-.35,1.57,1.57,0,0,0-.67-.19,3,3,0,0,0-1.77.53c-.27.17-.57.54-.86.63s-.81-.16-1.22-.25a2.53,2.53,0,0,0-1.9.28c-.21.13-.42.53-.61.61s-.84,0-1.11,0c-1.78.38-2.89,2.05-4,3.33-.41.47,1.19.33,1.51,0a13.44,13.44,0,0,1,2.1-2.29c.65-.45,1.54-.22,2.26-.54a1.84,1.84,0,0,0,.85-.65q.15-.27.09.12a4.67,4.67,0,0,0,1.81.25A3.8,3.8,0,0,0,67.21,9c.25-.16.53-.52.86-.47.13,0,.39.37.54.45a1.93,1.93,0,0,0,1.53.08c.42-.13,1-.73,1.39-.69s.9.81,1.34,1a2.24,2.24,0,0,0,1.63,0c.58-.19,1.15-.85,1.79-.72S77.22,9.78,78,10a3,3,0,0,0,1.69-.26,2,2,0,0,1,2.09.35c.24.18.41.41.67.57.81.48,1.59.17,2.47.27a4.28,4.28,0,0,1,2.69,1.43c.35.37,1.89-.22,1.52-.6Z"/><path class="cls-6" d="M132,107.06s-1.34,7.62-1.9,12.23l-.57,4.62a67.75,67.75,0,0,1,1.72-18.66Z"/></g></svg>